<svg width="24" height="20" viewBox="0 0 24 20" fill="none" xmlns="http://www.w3.org/2000/svg">
<path d="M23 9.00013L3.0505 9.00013L10.6895 1.72422C11.0895 1.34323 11.105 0.710235 10.724 0.31024C10.3435 -0.0892551 9.7105 -0.105255 9.31 0.27574L0.586 8.58564C0.2085 8.96363 0 9.46563 0 10.0001C0 10.5341 0.2085 11.0366 0.6035 11.4311L9.3105 19.724C9.504 19.9085 9.752 20 10 20C10.264 20 10.528 19.896 10.7245 19.6895C11.1055 19.2895 11.09 18.657 10.69 18.276L3.019 11.0001L23 11.0001C23.552 11.0001 24 10.5521 24 10.0001C24 9.44813 23.552 9.00013 23 9.00013Z" fill="#2F76FF"/>
</svg>
