<svg width="24" height="20" viewBox="0 0 24 20" fill="none" xmlns="http://www.w3.org/2000/svg">
<path d="M0.999999 10.9999L20.9495 10.9999L13.3105 18.2758C12.9105 18.6568 12.895 19.2898 13.276 19.6898C13.6565 20.0893 14.2895 20.1053 14.69 19.7243L23.414 11.4144C23.7915 11.0364 24 10.5344 24 9.99988C24 9.46589 23.7915 8.96339 23.3965 8.5689L14.6895 0.275996C14.496 0.0914985 14.248 1.0548e-06 14 1.03312e-06C13.736 1.01004e-06 13.472 0.103999 13.2755 0.310496C12.8945 0.71049 12.91 1.34298 13.31 1.72398L20.981 8.99989L0.999999 8.99989C0.447999 8.99989 -2.8922e-06 9.44788 -2.94046e-06 9.99988C-2.98872e-06 10.5519 0.447999 10.9999 0.999999 10.9999Z" fill="#2F76FF"/>
</svg>
