<svg width="110" height="110" viewBox="0 0 110 110" fill="none" xmlns="http://www.w3.org/2000/svg">
<g filter="url(#filter0_d_1233_63)">
<circle cx="55" cy="55" r="35" fill="#FF9700"/>
</g>
<path d="M64.7798 58.2959C64.6024 58.2959 64.3238 58.2453 63.9438 58.1439L63.7158 58.1059C63.0064 57.9286 62.3224 57.7133 61.6638 57.4599C60.9038 57.1813 60.1438 57.1939 59.3838 57.4979C58.6238 57.8019 58.0664 58.3213 57.7118 59.0559L57.3698 59.7779C55.8244 58.9166 54.4184 57.8653 53.1518 56.6239C51.9104 55.3573 50.8591 53.9513 49.9978 52.4059L50.6438 51.9499C51.3784 51.5953 51.8978 51.0506 52.2018 50.3159C52.5058 49.5559 52.5184 48.7959 52.2398 48.0359C51.9864 47.3519 51.7838 46.6553 51.6318 45.9459C51.5304 45.5153 51.4671 45.1606 51.4418 44.8819C51.2391 43.7166 50.6818 42.7666 49.7698 42.0319C48.8831 41.2719 47.8571 40.9046 46.6918 40.9299H41.9418C41.2578 40.9299 40.5991 41.0693 39.9658 41.3479C39.3324 41.6266 38.7878 42.0319 38.3318 42.5639C37.8758 43.0706 37.5464 43.6533 37.3438 44.3119C37.1411 44.9706 37.0904 45.6419 37.1918 46.3259C37.7744 50.8099 39.2818 54.9519 41.7138 58.7519C44.0951 62.4759 47.1478 65.5286 50.8718 67.9099C54.6971 70.3419 58.8518 71.8366 63.3358 72.3939H63.9438C65.1598 72.3939 66.2111 71.9886 67.0978 71.1779C67.6044 70.7219 67.9971 70.1899 68.2758 69.5819C68.5544 68.9486 68.6938 68.2899 68.6938 67.6059V62.8559C68.6684 61.7159 68.2884 60.7279 67.5538 59.8919C66.8191 59.0306 65.8944 58.4986 64.7798 58.2959ZM65.5778 67.7959C65.5778 68.2773 65.3878 68.6699 65.0078 68.9739C64.6531 69.2779 64.2351 69.4046 63.7538 69.3539C59.7258 68.8473 56.0144 67.4919 52.6198 65.2879C49.3011 63.1599 46.5778 60.4239 44.4498 57.0799C42.2711 53.6853 40.9411 49.9739 40.4598 45.9459C40.4091 45.4646 40.5358 45.0466 40.8398 44.6919C41.1438 44.3119 41.5364 44.1219 42.0178 44.1219H46.7678C47.1478 44.1219 47.4898 44.2359 47.7938 44.4639C48.0978 44.6919 48.2878 44.9959 48.3638 45.3759C48.4144 45.8066 48.4904 46.2373 48.5918 46.6679C48.7691 47.5039 49.0098 48.3146 49.3138 49.0999L47.1098 50.1259C46.7044 50.3033 46.4258 50.6073 46.2738 51.0379C46.1471 51.4433 46.1724 51.8486 46.3498 52.2539C47.4898 54.6859 49.0098 56.8646 50.9098 58.7899C52.8098 60.6899 54.9758 62.2099 57.4078 63.3499C57.8131 63.5273 58.2184 63.5399 58.6238 63.3879C59.0544 63.2106 59.3584 62.9193 59.5358 62.5139L60.5238 60.3099C61.3344 60.5886 62.1578 60.8293 62.9938 61.0319L64.2858 61.2599C64.6658 61.3359 64.9698 61.5259 65.1978 61.8299C65.4258 62.1339 65.5398 62.4759 65.5398 62.8559L65.5778 67.7959ZM68.6178 41.9559C68.4404 41.5506 68.1491 41.2593 67.7438 41.0819C67.5664 41.0059 67.3764 40.9679 67.1738 40.9679H60.8278C60.5238 40.9173 60.2198 40.9553 59.9158 41.0819C59.6371 41.2086 59.4091 41.4113 59.2318 41.6899C59.0798 41.9433 59.0038 42.2346 59.0038 42.5639C59.0038 42.8679 59.0798 43.1593 59.2318 43.4379C59.4091 43.6913 59.6371 43.8813 59.9158 44.0079C60.2198 44.1346 60.5238 44.1726 60.8278 44.1219H63.3358L58.1298 49.3659C57.8258 49.6699 57.6738 50.0373 57.6738 50.4679C57.6738 50.8986 57.8258 51.2659 58.1298 51.5699C58.4338 51.8739 58.8011 52.0259 59.2318 52.0259C59.6624 52.0259 60.0298 51.8739 60.3338 51.5699L65.5778 46.3639V48.8719C65.6284 49.2519 65.8058 49.5813 66.1098 49.8599C66.4138 50.1133 66.7558 50.2399 67.1358 50.2399C67.5411 50.2399 67.8958 50.1133 68.1998 49.8599C68.5038 49.5813 68.6811 49.2519 68.7318 48.8719V42.5259C68.7318 42.3233 68.6938 42.1333 68.6178 41.9559Z" fill="white"/>
<defs>
<filter id="filter0_d_1233_63" x="0" y="0" width="110" height="110" filterUnits="userSpaceOnUse" color-interpolation-filters="sRGB">
<feFlood flood-opacity="0" result="BackgroundImageFix"/>
<feColorMatrix in="SourceAlpha" type="matrix" values="0 0 0 0 0 0 0 0 0 0 0 0 0 0 0 0 0 0 127 0" result="hardAlpha"/>
<feOffset/>
<feGaussianBlur stdDeviation="10"/>
<feColorMatrix type="matrix" values="0 0 0 0 1 0 0 0 0 0.592157 0 0 0 0 0 0 0 0 0.5 0"/>
<feBlend mode="normal" in2="BackgroundImageFix" result="effect1_dropShadow_1233_63"/>
<feBlend mode="normal" in="SourceGraphic" in2="effect1_dropShadow_1233_63" result="shape"/>
</filter>
</defs>
</svg>
