<svg width="110" height="110" viewBox="0 0 110 110" fill="none" xmlns="http://www.w3.org/2000/svg">
<g filter="url(#filter0_d_1233_62)">
<path d="M90 55C90 74.33 74.33 90 55 90C35.67 90 20 74.33 20 55C20 35.67 35.67 20 55 20C74.33 20 90 35.67 90 55Z" fill="#00DF54"/>
</g>
<path d="M62.2958 57.854C61.1558 57.3473 60.2565 56.9293 59.5978 56.6C59.2431 56.4226 58.9265 56.4733 58.6478 56.752C58.5465 56.8533 58.3058 57.1446 57.9258 57.626C57.6725 58.006 57.4951 58.2466 57.3938 58.348C57.2165 58.6266 56.9505 58.6773 56.5958 58.5C55.2785 57.892 54.2145 57.2586 53.4038 56.6C52.5425 55.688 51.8078 54.7886 51.1998 53.902C51.1238 53.7753 51.0985 53.636 51.1238 53.484C51.1745 53.332 51.2505 53.2053 51.3518 53.104L51.5038 52.952C51.6811 52.724 51.8458 52.572 51.9978 52.496C52.2005 52.2426 52.3018 52.0273 52.3018 51.85C52.3778 51.774 52.4158 51.6726 52.4158 51.546C52.4158 51.394 52.3778 51.28 52.3018 51.204C52.2258 51.128 52.0358 50.7353 51.7318 50.026C51.4531 49.3926 51.2251 48.8353 51.0478 48.354C50.9718 47.8726 50.8578 47.556 50.7058 47.404C50.6045 47.3026 50.4525 47.252 50.2498 47.252H49.4518C49.2998 47.252 49.1225 47.3153 48.9198 47.442C48.7171 47.5433 48.5778 47.6446 48.5018 47.746C47.5645 48.6833 47.0958 49.7853 47.0958 51.052C47.2731 52.648 47.7925 54.016 48.6538 55.156C50.4778 57.816 52.6945 59.7793 55.3038 61.046L55.7978 61.236C56.5578 61.54 57.1405 61.73 57.5458 61.806C57.9258 61.958 58.3058 62.0466 58.6858 62.072C59.0911 62.0973 59.5598 62.072 60.0918 61.996C60.6238 61.8946 61.1178 61.6793 61.5738 61.35C62.0298 61.0206 62.4225 60.6026 62.7518 60.096C63.0558 59.5133 63.1065 58.88 62.9038 58.196L62.2958 57.854ZM66.2478 43.452C64.2211 41.4253 61.8271 40.0573 59.0658 39.348C56.4058 38.664 53.7458 38.664 51.0858 39.348C48.3245 40.0573 45.9305 41.4253 43.9038 43.452C42.2318 45.124 41.0031 47.062 40.2178 49.266C39.4578 51.4193 39.1665 53.6486 39.3438 55.954C39.5465 58.2593 40.2305 60.4253 41.3958 62.452L39.1538 70.546L47.5518 68.304C49.9078 69.5706 52.3905 70.204 54.9998 70.204C57.8625 70.204 60.5098 69.4946 62.9418 68.076C65.2978 66.708 67.1725 64.846 68.5658 62.49C69.9845 60.058 70.6938 57.4106 70.6938 54.548C70.7698 52.5213 70.4025 50.5326 69.5918 48.582C68.8318 46.7073 67.7171 44.9973 66.2478 43.452ZM61.9538 65.606C59.7498 66.9993 57.4318 67.696 54.9998 67.696C52.7451 67.696 50.5285 67.1133 48.3498 65.948L47.8938 65.606L42.9538 66.898L44.2458 62.148L43.9038 61.654C42.6625 59.5766 42.0165 57.36 41.9658 55.004C41.9151 52.724 42.4218 50.5706 43.4858 48.544C44.6005 46.4413 46.1711 44.744 48.1978 43.452C50.2245 42.16 52.4031 41.4886 54.7338 41.438C56.9885 41.362 59.1291 41.8686 61.1558 42.958C63.1825 44.0473 64.8165 45.5926 66.0578 47.594C67.3245 49.5953 67.9958 51.774 68.0718 54.13C68.1478 56.4353 67.6665 58.6013 66.6278 60.628C65.5385 62.7053 63.9805 64.3646 61.9538 65.606Z" fill="white"/>
<defs>
<filter id="filter0_d_1233_62" x="0" y="0" width="110" height="110" filterUnits="userSpaceOnUse" color-interpolation-filters="sRGB">
<feFlood flood-opacity="0" result="BackgroundImageFix"/>
<feColorMatrix in="SourceAlpha" type="matrix" values="0 0 0 0 0 0 0 0 0 0 0 0 0 0 0 0 0 0 127 0" result="hardAlpha"/>
<feOffset/>
<feGaussianBlur stdDeviation="10"/>
<feColorMatrix type="matrix" values="0 0 0 0 0 0 0 0 0 0.87451 0 0 0 0 0.329412 0 0 0 0.5 0"/>
<feBlend mode="normal" in2="BackgroundImageFix" result="effect1_dropShadow_1233_62"/>
<feBlend mode="normal" in="SourceGraphic" in2="effect1_dropShadow_1233_62" result="shape"/>
</filter>
</defs>
</svg>
