<svg width="46" height="46" viewBox="0 0 46 46" fill="none" xmlns="http://www.w3.org/2000/svg">
<path d="M45 23C45 35.1503 35.1503 45 23 45C10.8497 45 1 35.1503 1 23C1 10.8497 10.8497 1 23 1C35.1503 1 45 10.8497 45 23Z" stroke="#2F76FF" stroke-width="2"/>
<path d="M30.8399 18.6001C30.6159 18.3574 30.3359 18.2361 29.9999 18.2361C29.6639 18.2361 29.3839 18.3574 29.1599 18.6001L20.4799 27.3081L16.8399 23.6401C16.5972 23.4161 16.3079 23.3041 15.9719 23.3041C15.6359 23.3041 15.3559 23.4254 15.1319 23.6681C14.9079 23.9108 14.7959 24.2001 14.7959 24.5361C14.7959 24.8721 14.9172 25.1521 15.1599 25.3761L19.6399 29.8561C19.8639 30.0988 20.1439 30.2201 20.4799 30.2201C20.8159 30.2201 21.0959 30.0988 21.3199 29.8561L30.8399 20.3361C31.1012 20.1121 31.2319 19.8228 31.2319 19.4681C31.2319 19.1134 31.1012 18.8241 30.8399 18.6001Z" fill="#2F76FF"/>
</svg>
