<svg width="58" height="58" viewBox="0 0 58 58" fill="none" xmlns="http://www.w3.org/2000/svg">
<path d="M21.928 24.916H29C29.68 24.8253 30.2467 24.508 30.7 23.964C31.1987 23.42 31.448 22.808 31.448 22.128C31.448 21.4027 31.1987 20.768 30.7 20.224C30.2467 19.68 29.68 19.3627 29 19.272H26.144V17.844C26.0534 17.164 25.736 16.5973 25.192 16.144C24.648 15.6453 24.0134 15.396 23.288 15.396C22.608 15.396 21.996 15.6453 21.452 16.144C20.908 16.5973 20.5907 17.164 20.5 17.844V19.408C18.732 19.7707 17.304 20.7 16.216 22.196C15.128 23.6467 14.6747 25.2787 14.856 27.092C15.0374 28.9053 15.808 30.424 17.168 31.648C18.528 32.8267 20.1147 33.416 21.928 33.416H24.784C25.192 33.416 25.532 33.552 25.804 33.824C26.076 34.096 26.212 34.436 26.212 34.844C26.212 35.252 26.076 35.592 25.804 35.864C25.532 36.136 25.192 36.272 24.784 36.272H17.644C16.964 36.3627 16.3747 36.68 15.876 37.224C15.4227 37.768 15.196 38.4027 15.196 39.128C15.196 39.808 15.4227 40.42 15.876 40.964C16.3747 41.508 16.964 41.8253 17.644 41.916H20.5V43.344C20.5907 44.024 20.908 44.6133 21.452 45.112C21.996 45.5653 22.608 45.792 23.288 45.792C24.0134 45.792 24.648 45.5653 25.192 45.112C25.736 44.6133 26.0534 44.024 26.144 43.344V41.78C27.912 41.4173 29.34 40.5107 30.428 39.06C31.516 37.6093 31.9694 35.9773 31.788 34.164C31.6067 32.3507 30.836 30.832 29.476 29.608C28.1614 28.384 26.5974 27.772 24.784 27.772H21.928C21.6107 27.6813 21.3387 27.5227 21.112 27.296C20.9307 27.024 20.84 26.7293 20.84 26.412C20.84 26.0493 20.9307 25.7547 21.112 25.528C21.3387 25.256 21.6107 25.0747 21.928 24.984V24.916ZM54.5 29.2H46V3.69999C46 3.20133 45.864 2.74799 45.592 2.33999C45.3654 1.88666 45.0254 1.54666 44.572 1.31999C44.1187 1.04799 43.6427 0.911993 43.144 0.911993C42.6907 0.911993 42.2374 1.02533 41.784 1.25199L33.284 6.07999L24.784 1.25199C24.3307 0.979994 23.8547 0.843994 23.356 0.843994C22.8574 0.843994 22.3814 0.979994 21.928 1.25199L13.428 6.07999L4.92804 1.25199C4.47471 0.979994 3.99871 0.843994 3.50004 0.843994C3.00138 0.843994 2.52538 0.979994 2.07204 1.25199C1.61871 1.52399 1.25604 1.88666 0.984043 2.33999C0.757376 2.74799 0.644043 3.20133 0.644043 3.69999V49.056C0.644043 50.5973 1.02938 52.0027 1.80004 53.272C2.57071 54.5867 3.59071 55.6293 4.86004 56.4C6.17471 57.1707 7.60271 57.556 9.14404 57.556H48.856C50.3974 57.556 51.8027 57.1707 53.072 56.4C54.3867 55.6293 55.4294 54.5867 56.2 53.272C56.9707 52.0027 57.356 50.5973 57.356 49.056V32.056C57.356 31.2853 57.0614 30.628 56.472 30.084C55.928 29.4947 55.2707 29.2 54.5 29.2ZM9.14404 51.844C8.37338 51.844 7.71604 51.572 7.17204 51.028C6.62804 50.484 6.35604 49.8267 6.35604 49.056V8.59599L12 11.86C12.4534 12.0867 12.9294 12.2 13.428 12.2C13.9267 12.2 14.4027 12.0867 14.856 11.86L23.356 6.96399L31.856 11.86C32.3094 12.0867 32.7627 12.2 33.216 12.2C33.7147 12.2 34.1907 12.0867 34.644 11.86L40.356 8.59599V49.056C40.356 50.008 40.5147 50.9373 40.832 51.844H9.14404ZM51.644 49.056C51.5534 49.736 51.236 50.3253 50.692 50.824C50.148 51.2773 49.5134 51.504 48.788 51.504C48.108 51.504 47.496 51.2773 46.952 50.824C46.408 50.3253 46.0907 49.736 46 49.056V34.844H51.644V49.056Z" fill="#FFF85B"/>
</svg>
