<svg width="32" height="32" viewBox="0 0 32 32" fill="none" xmlns="http://www.w3.org/2000/svg">
<path d="M29.1778 8.8921C29.1778 8.84067 29.1778 8.80209 29.1778 8.77637C29.1778 8.75065 29.1778 8.71208 29.1778 8.66064V8.50633L29.0621 8.27486C29.0106 8.19771 28.9592 8.13341 28.9078 8.08198L28.792 7.96624H28.7149L22.3496 3.95419L16.3701 0.289329C16.2415 0.160738 16.0872 0.0707244 15.9072 0.0192885H15.7914C15.6371 -0.00642949 15.4957 -0.00642949 15.3671 0.0192885H15.2128C15.0328 0.0707244 14.8527 0.147879 14.6727 0.250753L2.67511 7.6962L2.5208 7.81194L2.13502 8.15913L2.01929 8.3906V8.66064C1.99357 8.76351 1.99357 8.86638 2.01929 8.96926V23.0115C2.01929 23.2944 2.08358 23.5515 2.21218 23.783C2.36649 24.0145 2.55937 24.2074 2.79084 24.3617L14.8656 31.8457L15.097 31.9228H15.2128C15.4957 32.0257 15.7786 32.0257 16.0615 31.9228H16.1772L16.4087 31.8457L28.3677 24.4774C28.5992 24.3231 28.7792 24.1302 28.9078 23.8987C29.0621 23.6673 29.1392 23.4101 29.1392 23.1272V9.08499L29.1778 8.8921ZM15.5214 3.52984L18.3761 5.3044L9.38758 10.8596L6.53285 9.08499L15.5214 3.52984ZM13.9011 27.6407L5.06691 22.2399V11.9397L13.9011 17.4177V27.6407ZM15.5214 14.6016L12.4352 12.7498L21.4238 7.15612L24.5099 9.08499L15.5214 14.6016ZM25.9759 22.1627L17.1417 27.6793V17.4177L25.9759 11.9397V22.1627Z" fill="#202737"/>
</svg>
