<svg width="100" height="100" viewBox="0 0 100 100" fill="none" xmlns="http://www.w3.org/2000/svg">
<path d="M80.8954 82.6146C80.6679 82.6106 80.4423 82.6555 80.2336 82.7461C80.0249 82.8367 79.838 82.971 79.6856 83.1399C79.523 83.2998 79.3942 83.4906 79.3067 83.7011C79.2192 83.9117 79.1748 84.1376 79.1763 84.3656C79.1926 84.8119 79.3805 85.2347 79.7007 85.5461C80.0209 85.8574 80.4488 86.0332 80.8954 86.037C81.3208 85.996 81.7156 85.7979 82.0029 85.4815C82.2902 85.1652 82.4493 84.7532 82.4493 84.3258C82.4493 83.8985 82.2902 83.4865 82.0029 83.1701C81.7156 82.8537 81.3208 82.6557 80.8954 82.6146Z" fill="#2F76FF"/>
<path d="M65.5822 87.6925C66.3041 90.9966 68.0771 93.978 70.6356 96.1898C73.1941 98.4017 76.4004 99.725 79.7742 99.9617C83.148 100.198 86.5076 99.3355 89.3498 97.5024C92.1921 95.6693 94.3639 92.9647 95.5399 89.7937C95.7347 89.2365 95.8941 88.6677 96.0175 88.0905C96.1479 87.4423 96.3235 86.8041 96.5428 86.1803V82.8375C96.4643 82.7064 96.4154 82.5597 96.3995 82.4078C95.9535 78.8247 94.2633 75.512 91.6241 73.048C91.368 72.7964 91.1688 72.4929 91.0397 72.158C90.9107 71.823 90.8549 71.4643 90.876 71.106V68.6228C90.876 66.2987 90.876 63.8473 90.876 61.5552C90.7949 59.2219 89.901 56.9903 88.3488 55.2463C86.7966 53.5023 84.6838 52.3555 82.3757 52.0043C80.9603 51.8358 79.5332 51.7878 78.1097 51.8611C77.3456 51.8611 76.5179 51.8611 75.8334 51.8611C75.6165 51.8741 75.3992 51.8426 75.1949 51.7684C74.9906 51.6943 74.8037 51.5791 74.6456 51.43C74.4875 51.2809 74.3616 51.101 74.2757 50.9013C74.1898 50.7017 74.1457 50.4866 74.1461 50.2693C74.1461 47.6269 74.1461 44.9845 74.1461 42.3102V36.914C74.0734 36.1396 74.2716 35.364 74.7071 34.7196C75.1425 34.0751 75.7882 33.6017 76.5338 33.3802C76.6768 33.358 76.8129 33.3036 76.9318 33.2211C76.9795 32.974 76.9795 32.72 76.9318 32.4729C76.9078 32.2135 76.9078 31.9524 76.9318 31.6929V31.2313C76.9079 30.8762 76.9079 30.5199 76.9318 30.1648C76.9318 29.9897 76.9318 29.8305 76.9318 29.6714C76.3288 29.7655 75.7368 29.9202 75.1648 30.133L74.8783 30.2762C73.5617 30.8976 72.4602 31.8973 71.7145 33.1477C70.9688 34.3981 70.6128 35.8424 70.6919 37.2961C70.6919 41.5409 70.6919 45.7857 70.6919 50.0305C70.7193 50.2834 70.6924 50.5392 70.6127 50.7809C70.5331 51.0225 70.4027 51.2443 70.2303 51.4313C70.0478 51.5958 69.8337 51.7216 69.6011 51.8009C69.3685 51.8803 69.1223 51.9116 68.8772 51.8929C65.2957 51.8929 61.6823 51.8929 58.1007 51.8929C57.6302 51.916 57.1674 51.7672 56.7984 51.4744C56.4294 51.1815 56.1795 50.7646 56.0951 50.3011C55.2992 47.6163 54.4926 44.9633 53.6755 42.3421L52.4339 38.2193C51.7653 35.9908 51.1127 33.7623 50.4441 31.5178L49.2185 27.4428H51.829C52.6408 27.4428 53.4208 27.4428 54.2008 27.4428C54.2008 26.1057 54.2008 25.0233 54.2008 24.0045H11.7793C11.7793 25.1825 11.7793 26.3445 11.7793 27.4587H15.3449C15.6166 27.4076 15.8966 27.4221 16.1616 27.5011C16.4265 27.5801 16.6687 27.7212 16.8681 27.9128C17.0674 28.1043 17.2181 28.3408 17.3076 28.6024C17.397 28.864 17.4227 29.1431 17.3824 29.4167C17.3824 34.4627 17.3824 39.7315 17.3824 45.4938C17.4352 45.9864 17.3008 46.4809 17.0059 46.879C16.711 47.2771 16.2772 47.5497 15.7906 47.6428C11.8459 48.7584 8.15039 50.6169 4.90271 53.1186C5.81004 54.1533 6.49449 54.9969 7.11529 55.7928C11.2493 52.6365 16.1571 50.652 21.3231 50.0479C26.489 49.4437 31.7223 50.2422 36.473 52.3594C41.2238 54.4766 45.3165 57.8344 48.3211 62.0799C51.3257 66.3254 53.1314 71.3018 53.5482 76.4862C53.7146 78.8223 53.7624 81.1653 53.6914 83.5061C53.6914 84.3975 53.6914 85.273 53.6914 86.1644H63.5924C64.0549 86.1254 64.5152 86.2605 64.8833 86.5432C65.2513 86.8258 65.5005 87.2357 65.5822 87.6925ZM89.4592 75.6744C91.1731 77.3823 92.3416 79.5604 92.8168 81.9328C93.292 84.3052 93.0526 86.7653 92.1287 89.0015C91.2049 91.2377 89.6383 93.1496 87.6273 94.4949C85.6162 95.8402 83.2512 96.5585 80.8316 96.5589C77.5837 96.5504 74.4719 95.2532 72.1797 92.9521C69.8875 90.6509 68.6024 87.5341 68.6066 84.2861C68.6234 81.0547 69.9156 77.9606 72.2021 75.6771C74.4885 73.3936 77.5843 72.1054 80.8158 72.0929C82.4216 72.0896 84.0122 72.4045 85.4957 73.0192C86.9792 73.6339 88.3263 74.5363 89.4592 75.6744ZM43.4084 51.9088C42.934 51.8922 42.4747 51.7373 42.0872 51.4631C36.3022 47.7343 29.4713 45.9651 22.6035 46.4171C22.3738 46.4514 22.1393 46.4349 21.9166 46.3689C21.6938 46.3029 21.4882 46.189 21.3142 46.0351C21.1461 45.8681 21.0175 45.6656 20.9376 45.4426C20.8577 45.2195 20.8287 44.9814 20.8526 44.7457C20.8526 39.5458 20.8526 34.3406 20.8526 29.1301C20.8321 28.8951 20.8643 28.6584 20.9465 28.4373C21.0288 28.2162 21.1592 28.0161 21.3283 27.8516C21.4974 27.687 21.701 27.5622 21.9243 27.486C22.1476 27.4098 22.3851 27.3841 22.6195 27.411H44.3794C44.7878 27.3765 45.1951 27.4891 45.5278 27.7284C45.8605 27.9678 46.0968 28.3181 46.1941 28.7163C47.7859 34.0223 49.3777 39.3654 50.9695 44.7457L52.5613 50.1101C52.5613 50.2215 52.5613 50.3329 52.6408 50.4762L52.8955 51.7656L51.6062 51.9088H43.488H43.4084ZM54.949 67.3971C53.5893 63.7435 51.5775 60.3672 49.0115 57.4324C48.9005 57.2975 48.8094 57.1474 48.741 56.9867L48.0246 55.3949L50.6352 55.2834H80.1154C84.7953 55.2834 87.4854 57.9895 87.4854 62.7013V70.0713L86.0369 69.5142C83.6408 68.7587 81.1272 68.4458 78.6191 68.5909H57.1138V67.5085L57.0024 68.5909C56.5842 68.6494 56.1586 68.5628 55.7966 68.3456C55.4345 68.1283 55.1578 67.7936 55.0126 67.3971H54.949ZM58.6897 82.6147C58.4798 82.6222 58.2704 82.5881 58.0737 82.5144C57.877 82.4406 57.6968 82.3286 57.5436 82.1849C57.3877 82.0205 57.2688 81.8246 57.1946 81.6105C57.1205 81.3964 57.0929 81.1689 57.1138 80.9433C57.1984 78.6241 57.0812 76.3019 56.7636 74.003C56.6984 73.7598 56.6917 73.5046 56.7443 73.2583C56.7969 73.012 56.9072 72.7817 57.0661 72.5863C57.2337 72.403 57.442 72.2614 57.6742 72.1729C57.9063 72.0845 58.156 72.0516 58.4032 72.077H70.8033L69.2115 73.8439C67.859 75.3537 66.8105 77.1102 66.1234 79.0172C65.8846 79.7387 65.6827 80.4719 65.5185 81.2139C65.4667 81.6283 65.254 82.0057 64.9265 82.2648C64.599 82.5238 64.1827 82.6438 63.7675 82.5988L58.6897 82.6147Z" fill="#2F76FF"/>
<path d="M24.6888 99.9495C30.3141 99.9327 35.7048 97.6928 39.6855 93.7181C43.6662 89.7433 45.9142 84.3561 45.9393 78.7308C45.9351 73.0931 43.6959 67.6871 39.7125 63.6977C35.729 59.7083 30.3264 57.461 24.6888 57.4484C19.069 57.4819 13.6899 59.7336 9.72201 63.7134C5.75412 67.6932 3.51858 73.0791 3.50189 78.6989C3.531 84.3149 5.77054 89.6936 9.73575 93.6707C13.701 97.6479 19.0729 99.9035 24.6888 99.9495ZM12.0817 66.1237C13.727 64.4566 15.6876 63.1335 17.8493 62.2317C20.011 61.3298 22.3306 60.8672 24.6728 60.8707C29.3069 61.0092 33.7047 62.9474 36.9336 66.2743C40.1624 69.6011 41.9684 74.0549 41.9684 78.691C41.9684 83.3271 40.1624 87.7808 36.9336 91.1077C33.7047 94.4345 29.3069 96.3727 24.6728 96.5112C21.151 96.514 17.7074 95.4719 14.7781 93.5166C11.8489 91.5613 9.56566 88.7808 8.2175 85.5272C6.86934 82.2735 6.51692 78.693 7.20479 75.239C7.89267 71.7849 9.58994 68.6126 12.0817 66.1237Z" fill="#2F76FF"/>
<path d="M24.6253 86.0368C25.5686 86.0435 26.5041 85.8642 27.3781 85.5091C28.2521 85.154 29.0476 84.6302 29.719 83.9675C30.766 82.9691 31.4907 81.6807 31.8003 80.2676C32.1098 78.8544 31.9901 77.381 31.4563 76.0364C30.9226 74.6918 29.9993 73.5374 28.8048 72.7212C27.6103 71.9051 26.1993 71.4645 24.7526 71.4559H24.6253C23.6985 71.4591 22.7815 71.6448 21.9266 72.0026C21.0716 72.3604 20.2957 72.8833 19.643 73.5412C18.595 74.5405 17.8699 75.8304 17.5609 77.245C17.2519 78.6596 17.373 80.1343 17.9087 81.4796C18.4444 82.8249 19.3702 83.9791 20.5671 84.7941C21.764 85.609 23.1773 86.0473 24.6253 86.0527V86.0368ZM24.6253 74.8942C25.6062 74.9572 26.5263 75.3914 27.1987 76.1083C27.8711 76.8253 28.2453 77.7714 28.2453 78.7543C28.2453 79.7373 27.8711 80.6833 27.1987 81.4003C26.5263 82.1173 25.6062 82.5514 24.6253 82.6144C24.1125 82.6124 23.6052 82.5088 23.1327 82.3097C22.6602 82.1106 22.2317 81.8199 21.8721 81.4544C21.5125 81.0889 21.2289 80.6558 21.0375 80.18C20.8462 79.7043 20.7509 79.1954 20.7572 78.6827C20.7781 77.6581 21.2031 76.6834 21.9396 75.9708C22.676 75.2582 23.6642 74.8655 24.6889 74.8783L24.6253 74.8942Z" fill="#2F76FF"/>
</svg>
