<svg width="101" height="100" viewBox="0 0 101 100" fill="none" xmlns="http://www.w3.org/2000/svg">
<path d="M0 98.5193C0.322544 99.1638 0.848383 99.6841 1.49629 99.9997C-4.46892e-05 99.9519 0 99.952 0 98.5193Z" fill="white"/>
<path d="M36.0873 15.6958C34.973 15.6958 34.0497 15.6958 33.1583 15.6958V15.7913C33.1583 17.3832 33.1583 18.975 33.1583 20.5669V20.6783C34.1022 20.6305 35.0479 20.6305 35.9918 20.6783V20.5669C35.9918 20.0097 35.9918 19.4685 35.9918 18.975V17.606C35.9918 17.017 35.9918 16.4439 35.9918 15.8709L36.0873 15.6958Z" fill="#2F76FF"/>
<path d="M36.0713 28.3191C36.0935 28.0542 36.0935 27.788 36.0713 27.5232C35.834 27.5604 35.5923 27.5604 35.355 27.5232C35.0743 27.5461 34.7921 27.5461 34.5113 27.5232C34.0781 27.4106 33.6233 27.4106 33.1901 27.5232C32.9991 27.6983 33.0786 28.2872 33.1901 28.7648C33.2127 29.0828 33.2127 29.4019 33.1901 29.7199C33.1901 30.4203 33.1901 31.1367 33.1901 31.8371V32.3942C33.7198 32.4367 34.2522 32.4367 34.7819 32.3942C35.2061 32.3703 35.6313 32.3703 36.0554 32.3942V28.3191H36.0713Z" fill="#2F76FF"/>
<path d="M23.2569 36.5171H23.5912C24.3067 36.4694 25.0246 36.4694 25.7402 36.5171C25.8762 36.5496 26.018 36.5496 26.1541 36.5171C26.1854 36.3648 26.1854 36.2078 26.1541 36.0555C26.1541 31.7416 26.1541 27.4436 26.1541 23.1297C26.1541 18.8158 26.1541 14.5019 26.1541 10.2039C26.1128 9.78547 26.2387 9.36773 26.5043 9.04182C26.846 8.78287 27.2708 8.65826 27.6982 8.69162H75.6287C75.7871 8.66193 75.95 8.66647 76.1065 8.7049C76.263 8.74334 76.4095 8.81479 76.5361 8.91447C76.6532 9.03862 76.7412 9.18738 76.7935 9.34987C76.8459 9.51236 76.8612 9.68447 76.8385 9.85366C76.8385 10.3312 76.8385 10.8088 76.8385 11.2704C76.8385 11.732 76.8385 12.1937 76.8385 12.6394C77.6504 12.6394 78.5418 12.6394 79.4014 12.6394C79.5061 12.6638 79.615 12.6638 79.7198 12.6394C79.7262 12.5387 79.7262 12.4377 79.7198 12.337C79.7198 11.3023 79.7198 10.2516 79.7198 9.15327V7.81609C79.7198 6.11282 79.2741 5.66711 77.5389 5.66711H25.4696C23.6231 5.66711 23.241 6.04915 23.241 7.92754V36.1192C23.2489 36.2623 23.2489 36.4058 23.241 36.549C23.241 36.549 23.1614 36.549 23.1296 36.549L23.2569 37.0743V36.5171Z" fill="#2F76FF"/>
<path d="M49.0131 20.6303H49.1723C50.0319 20.6303 50.9233 20.6303 51.8943 20.6303H51.9898C51.9898 20.0891 51.9898 19.5319 51.9898 19.0385V17.6376C51.9898 17.0646 51.9898 16.4915 51.9898 15.9185V15.8389H51.9102C50.8915 15.8389 50 15.8389 49.1882 15.8389H49.0449V15.998C49.0449 17.6854 49.0449 19.1817 49.0449 20.6462C49.0346 20.6405 49.0239 20.6352 49.0131 20.6303Z" fill="#2F76FF"/>
<path d="M97.6599 97.087H96.9276C96.3975 97.0538 95.8659 97.0538 95.3358 97.087C95.1151 97.1388 94.886 97.1428 94.6636 97.0989C94.4412 97.055 94.2308 96.9641 94.0464 96.8323C93.8801 96.6391 93.7559 96.4133 93.6819 96.1693C93.6079 95.9253 93.5857 95.6686 93.6166 95.4155C93.6166 74.297 93.6166 53.1732 93.6166 32.0441V19.9779C93.6166 18.0995 93.2027 17.6856 91.3084 17.6856H60.7449C60.4166 17.6558 60.0872 17.7285 59.8021 17.8939C59.5169 18.0593 59.2901 18.3091 59.1531 18.6089C59.0346 18.9676 58.9913 19.347 59.0257 19.7232V24.2281C59.0257 48.0103 59.0257 71.7872 59.0257 95.5588C59.083 95.779 59.0817 96.0103 59.022 96.2298C58.9624 96.4494 58.8463 96.6495 58.6854 96.8104C58.5246 96.9712 58.3244 97.0873 58.1049 97.147C57.8854 97.2066 57.6541 97.2079 57.4339 97.1507C52.8653 97.1507 48.2011 97.1507 43.5848 97.1507C43.1431 97.1784 42.7068 97.0424 42.3591 96.7686C42.2166 96.6008 42.1105 96.4052 42.0475 96.1942C41.9845 95.9832 41.9659 95.7614 41.9929 95.5429C41.9929 81.0465 41.9929 66.5394 41.9929 52.0218V43.7442C41.9929 41.9295 41.6109 41.5315 39.8121 41.5315H9.78988C7.67272 41.5315 7.33842 41.8817 7.33842 43.967V95.4952C7.32262 95.5954 7.32262 95.6974 7.33842 95.7976C7.39023 95.9734 7.39514 96.1598 7.35265 96.3381C7.31017 96.5164 7.22178 96.6805 7.09625 96.814C6.97072 96.9476 6.81241 97.046 6.63708 97.0995C6.46175 97.153 6.27549 97.1596 6.09678 97.1188C5.34861 97.1188 4.60044 97.1188 3.85227 97.1188H3.37473V99.0291C3.42229 99.2851 3.55221 99.5185 3.74476 99.6938C3.93731 99.8691 4.1819 99.9767 4.44124 100H96.4819C96.9737 99.7141 97.3564 99.2726 97.5697 98.7452C97.783 98.2178 97.8147 97.6345 97.6599 97.087ZM30.8819 96.7686C30.7556 96.8834 30.607 96.9709 30.4454 97.0257C30.2838 97.0804 30.1127 97.1013 29.9427 97.087H29.8312C28.6214 97.087 27.4116 97.087 26.2018 97.087H23.2569C22.0153 97.087 20.7896 97.087 19.5479 97.087C19.3579 97.1087 19.1654 97.0916 18.9821 97.0369C18.7988 96.9822 18.6284 96.8909 18.4814 96.7686C18.3637 96.617 18.2801 96.4419 18.2361 96.2551C18.1922 96.0684 18.189 95.8743 18.2267 95.6862C18.2567 95.3419 18.2567 94.9957 18.2267 94.6515C18.112 94.273 18.0912 93.8723 18.1661 93.484C18.241 93.0957 18.4093 92.7315 18.6564 92.4229C19.3701 92.015 20.2109 91.89 21.0124 92.0727C21.2934 92.0872 21.575 92.0872 21.8561 92.0727C22.843 92.0727 23.8459 92.0727 24.8328 92.0727H29.8472C30.0434 92.0506 30.242 92.0688 30.4309 92.1263C30.6197 92.1838 30.7949 92.2794 30.9455 92.407C31.0573 92.5496 31.1389 92.7134 31.1854 92.8885C31.232 93.0637 31.2424 93.2464 31.2161 93.4257C31.1525 94.1726 31.1525 94.9234 31.2161 95.6702C31.2444 95.8666 31.229 96.0668 31.1713 96.2567C31.1135 96.4465 31.0147 96.6213 30.8819 96.7686ZM38.7297 96.8482C38.5625 96.9651 38.3732 97.0466 38.1733 97.0877C37.9735 97.1288 37.7673 97.1285 37.5676 97.087C37.2238 97.0481 36.8767 97.0481 36.5329 97.087C36.2625 97.1028 35.9914 97.1028 35.7211 97.087C35.4815 97.1113 35.2396 97.0809 35.0135 96.9982C34.7874 96.9155 34.5831 96.7826 34.4158 96.6094C34.0086 95.9364 33.8828 95.13 34.0656 94.3649C34.0885 94.0735 34.0885 93.7808 34.0656 93.4894V92.3751C34.0656 91.9188 34.0656 91.4572 34.0656 90.9902C34.0656 89.6371 33.5084 89.0959 32.1871 89.0959H17.1124C15.7752 89.0959 15.2499 89.6371 15.2499 90.9902V91.2608C15.2499 92.8527 15.2499 94.3013 15.2499 95.7976C15.2734 95.9631 15.2599 96.1318 15.2103 96.2914C15.1608 96.4511 15.0765 96.5977 14.9634 96.7209C14.8383 96.8302 14.6909 96.911 14.5315 96.9577C14.3721 97.0045 14.2044 97.016 14.0401 96.9915C13.1918 96.9435 12.3414 96.9435 11.4931 96.9915C11.3275 97.0164 11.1585 97.0066 10.9968 96.9628C10.8352 96.9189 10.6843 96.842 10.5539 96.7368C10.435 96.6004 10.3454 96.4409 10.2906 96.2684C10.2359 96.0959 10.2171 95.914 10.2356 95.7339C10.2356 79.0514 10.2356 62.3741 10.2356 45.7021C10.219 45.5222 10.2386 45.3407 10.2933 45.1685C10.348 44.9962 10.4366 44.8367 10.5539 44.6993C10.6981 44.5774 10.8657 44.4863 11.0464 44.4315C11.2271 44.3768 11.417 44.3596 11.6046 44.3809C20.3173 44.3809 29.0247 44.3809 37.7268 44.3809C37.9078 44.3674 38.0896 44.39 38.2618 44.4474C38.434 44.5047 38.593 44.5958 38.7297 44.7152C38.8545 44.8671 38.9471 45.0428 39.0018 45.2316C39.0565 45.4205 39.0723 45.6185 39.0481 45.8136C39.0481 52.372 39.0481 58.9304 39.0481 65.4888V76.3293C39.0481 82.6967 39.0481 89.0641 39.0481 95.4315C39.0983 95.664 39.0957 95.9048 39.0406 96.1362C38.9855 96.3676 38.8793 96.5837 38.7297 96.7686V96.8482ZM76.8385 93.5212V94.2376C76.8385 94.8 76.8385 95.3572 76.8385 95.909C76.8602 96.0659 76.8472 96.2256 76.8004 96.3768C76.7537 96.5281 76.6743 96.6673 76.5679 96.7846C76.447 96.892 76.3059 96.9741 76.1528 97.026C75.9997 97.078 75.8377 97.0987 75.6765 97.087C74.0846 97.087 72.4928 97.087 70.9009 97.087C70.7569 97.0973 70.6123 97.0786 70.4756 97.0321C70.3389 96.9856 70.2129 96.9123 70.105 96.8164C70.0004 96.6943 69.9212 96.5526 69.872 96.3995C69.8228 96.2465 69.8046 96.0851 69.8185 95.9249C69.8185 94.3755 69.8185 92.8315 69.8185 91.2927C69.7903 91.1359 69.8004 90.9747 69.848 90.8228C69.8956 90.6708 69.9793 90.5326 70.0919 90.42C70.2045 90.3074 70.3427 90.2237 70.4947 90.1761C70.6466 90.1285 70.8079 90.1183 70.9646 90.1465C72.3973 90.1465 73.9254 90.1465 75.7401 90.1465C76.0635 90.1203 76.3841 90.2233 76.6316 90.4331C76.7329 90.5562 76.8079 90.6989 76.8517 90.8523C76.8955 91.0057 76.9073 91.1664 76.8863 91.3245C76.8863 91.8339 76.8863 92.3645 76.8863 92.9163L76.8385 93.5212ZM90.3692 96.7049C90.0817 96.948 89.71 97.0681 89.3345 97.0393H89.239C86.4374 97.0393 83.6198 97.0393 80.9932 97.0393C80.8229 97.0601 80.6501 97.0454 80.4857 96.9961C80.3213 96.9468 80.1689 96.8639 80.0381 96.7527C79.9273 96.6213 79.8435 96.4692 79.7916 96.3053C79.7397 96.1414 79.7207 95.9689 79.7357 95.7976C79.7357 93.8715 79.7357 91.9294 79.7357 90.0033V89.1118C79.7357 87.6633 79.2104 87.1539 77.7618 87.1539H68.8315C67.4148 87.1539 66.8735 87.6951 66.8735 89.1437V89.3506C66.8735 91.4837 66.8735 93.6168 66.8735 95.718C66.8911 95.9017 66.8705 96.0871 66.813 96.2624C66.7555 96.4377 66.6623 96.5993 66.5393 96.7368C66.4029 96.8486 66.2446 96.9304 66.0746 96.977C65.9045 97.0237 65.7266 97.034 65.5523 97.0074C64.7359 96.9596 63.9173 96.9596 63.1009 97.0074C62.9352 97.0323 62.7662 97.0225 62.6045 96.9786C62.4429 96.9348 62.2921 96.8579 62.1617 96.7527C62.0463 96.6172 61.9588 96.4603 61.9042 96.2909C61.8496 96.1216 61.8288 95.9431 61.8433 95.7658C61.8433 90.9902 61.8433 86.2147 61.8433 81.4391C61.8242 81.2541 61.8425 81.0672 61.8972 80.8894C61.9519 80.7116 62.0418 80.5467 62.1617 80.4044C62.3003 80.2899 62.4605 80.2041 62.6327 80.1522C62.8048 80.1003 62.9857 80.0832 63.1646 80.102C69.1817 80.102 75.1989 80.102 81.2161 80.102C81.3837 80.1407 81.5579 80.1407 81.7255 80.102C81.7483 79.981 81.7483 79.8568 81.7255 79.7358C81.6457 78.9898 81.6457 78.2374 81.7255 77.4913C81.7354 77.4014 81.7354 77.3107 81.7255 77.2207H81.3753C75.3899 77.2207 69.4046 77.2207 63.4193 77.2207C63.1908 77.2505 62.9587 77.2303 62.7388 77.1616C62.5189 77.0929 62.3166 76.9773 62.1457 76.8228C62.0052 76.6453 61.9041 76.44 61.8492 76.2204C61.7943 76.0008 61.7869 75.772 61.8274 75.5493C61.9071 74.2717 61.9071 72.9905 61.8274 71.7129C61.7926 71.5099 61.8001 71.302 61.8494 71.102C61.8987 70.9021 61.9888 70.7144 62.1139 70.5509C62.2856 70.4042 62.4865 70.2956 62.7033 70.2325C62.9201 70.1694 63.1479 70.1531 63.3715 70.1848C69.325 70.1848 75.2626 70.1848 81.232 70.1848C81.4012 70.2051 81.5722 70.2051 81.7414 70.1848C81.7414 70.1848 81.7414 70.0893 81.7414 69.8186C81.6616 69.0726 81.6616 68.3202 81.7414 67.5741C81.7507 67.4789 81.7507 67.3829 81.7414 67.2876H63.6421C62.0502 67.2876 61.891 67.0488 61.891 65.5525V64.3904C61.891 63.4513 61.891 62.5121 61.891 61.5729C61.8689 61.4 61.883 61.2244 61.9323 61.0572C61.9816 60.8901 62.0652 60.735 62.1776 60.6018C62.4616 60.3765 62.8184 60.2632 63.1804 60.2835C69.2454 60.2835 75.2785 60.2835 81.3275 60.2835C81.4752 60.3067 81.6256 60.3067 81.7733 60.2835C81.7948 60.1677 81.7948 60.049 81.7733 59.9333C81.7095 59.1918 81.7095 58.4462 81.7733 57.7047C81.8004 57.5895 81.8004 57.4696 81.7733 57.3545C81.7733 57.3545 81.6937 57.3545 81.423 57.3545C75.4377 57.3545 69.4523 57.3545 63.4829 57.3545C63.2607 57.3817 63.0353 57.3617 62.8213 57.2959C62.6074 57.23 62.4097 57.1198 62.2412 56.9724C62.1071 56.8008 62.0097 56.6034 61.9549 56.3926C61.9002 56.1817 61.8893 55.9619 61.9229 55.7467C61.9229 54.4891 61.9229 53.1838 61.9229 51.8944C61.8915 51.6817 61.9036 51.4649 61.9583 51.2569C62.013 51.049 62.1092 50.8543 62.2412 50.6846C62.4053 50.5463 62.5956 50.4425 62.8008 50.3796C63.006 50.3167 63.2217 50.2959 63.4351 50.3185C69.3886 50.3185 75.3422 50.3185 81.2957 50.3185C81.7096 50.3185 81.8051 50.3185 81.8051 50.3185C81.8401 50.1774 81.8401 50.0298 81.8051 49.8887C81.7653 49.4864 81.7653 49.0812 81.8051 48.6789C81.8051 48.1854 81.9165 47.6283 81.8051 47.4532C81.6936 47.2781 80.8818 47.3417 80.3565 47.4532H79.4491H63.1964C62.8229 47.4882 62.4508 47.3737 62.1617 47.1348C62.0467 46.9906 61.962 46.8245 61.9128 46.6467C61.8635 46.4689 61.8507 46.283 61.8752 46.1001C61.8752 44.6356 61.8752 43.1711 61.8752 41.7703C61.8524 41.5924 61.866 41.4118 61.9153 41.2394C61.9645 41.067 62.0484 40.9064 62.1617 40.7674C62.4609 40.5344 62.8335 40.4158 63.2123 40.4331C69.2613 40.4331 75.3103 40.4331 81.3434 40.4331C81.3998 40.4694 81.4667 40.4859 81.5335 40.48C81.6003 40.4742 81.6633 40.4462 81.7125 40.4007C81.7617 40.3551 81.7944 40.2945 81.8054 40.2283C81.8164 40.1621 81.8051 40.0942 81.7733 40.0352C81.7259 39.6226 81.7259 39.206 81.7733 38.7935C81.7733 38.2841 81.8847 37.6951 81.6777 37.52C81.4708 37.3449 80.7067 37.3927 80.0859 37.4404C79.4651 37.4882 79.4491 37.4404 79.1626 37.4404H77.5708C72.7952 37.4404 67.9242 37.4404 63.1009 37.4404C62.9021 37.4638 62.7008 37.4462 62.5091 37.3887C62.3175 37.3312 62.1396 37.2351 61.9865 37.1062C61.8703 36.9595 61.7849 36.7908 61.7357 36.6102C61.6864 36.4296 61.6743 36.2409 61.7 36.0555C61.7 34.7025 61.7 33.3335 61.7 31.8212C61.6733 31.6322 61.6864 31.4397 61.7385 31.256C61.7905 31.0723 61.8805 30.9015 62.0025 30.7547C62.1456 30.6253 62.3151 30.5285 62.4992 30.4708C62.6833 30.4131 62.8777 30.3959 63.069 30.4204C69.0544 30.4204 75.0397 30.4204 81.0251 30.4204C81.4867 30.4204 81.5822 30.4204 81.5822 30.4204C81.5822 30.4204 81.5822 30.3408 81.5822 29.9429C81.5026 29.2287 81.5026 28.508 81.5822 27.7938C81.5923 27.6986 81.5923 27.6026 81.5822 27.5073C81.5822 27.5073 81.5026 27.5073 81.232 27.5073C75.2785 27.5073 69.325 27.5073 63.3715 27.5073C63.1332 27.5391 62.8908 27.5201 62.6603 27.4515C62.4298 27.3829 62.2165 27.2663 62.0343 27.1094C61.8915 26.93 61.7892 26.722 61.7342 26.4994C61.6793 26.2769 61.6731 26.0451 61.716 25.8199C61.7956 24.642 61.716 23.4163 61.716 22.2383V21.9518C61.6954 21.7765 61.7101 21.5988 61.7593 21.4293C61.8086 21.2598 61.8912 21.1019 62.0025 20.9648C62.2582 20.746 62.5901 20.6372 62.9258 20.6624H89.3504C89.5167 20.6481 89.6842 20.6676 89.8429 20.7196C90.0015 20.7715 90.1481 20.8549 90.2737 20.9648C90.3829 21.0964 90.4635 21.2493 90.5101 21.4137C90.5567 21.5782 90.5683 21.7507 90.5443 21.9199V65.9345C90.5443 75.8252 90.5443 85.7159 90.5443 95.6066C90.5951 95.802 90.6057 96.0058 90.5756 96.2055C90.5455 96.4052 90.4753 96.5968 90.3692 96.7686V96.7049Z" fill="#2F76FF"/>
<path d="M34.0816 49.4905C33.8906 49.2676 33.3175 49.3313 32.7604 49.395C32.3372 49.4423 31.9101 49.4423 31.4869 49.395C31.3819 49.3731 31.2735 49.3731 31.1685 49.395C31.1519 49.5271 31.1519 49.6608 31.1685 49.793C31.1685 54.075 31.1685 58.3412 31.1685 62.6232V78.3189C31.1685 80.1495 31.1685 81.9801 31.1685 83.8107C31.1496 83.9106 31.1496 84.0133 31.1685 84.1132H31.4232H32.5853C32.9673 84.1132 33.3175 84.1132 33.6518 84.1132C33.7876 84.1482 33.93 84.1482 34.0657 84.1132C34.0657 84.1132 34.0657 84.0177 34.0657 83.572C34.0657 76.0054 34.0657 68.4441 34.0657 60.8881V51.9738C34.0657 51.6872 34.0657 51.3689 34.0657 51.0346C34.2249 50.4775 34.2885 49.7293 34.0816 49.4905Z" fill="#2F76FF"/>
<path d="M23.257 84.1608H23.4958H24.7056C25.0713 84.1351 25.4383 84.1351 25.804 84.1608C25.9198 84.1817 26.0384 84.1817 26.1542 84.1608C26.1751 84.0129 26.1751 83.8629 26.1542 83.7151C26.1542 77.5705 26.1542 71.426 26.1542 65.2656V57.4337C26.1542 54.8549 26.1542 52.2761 26.1542 49.6973C26.1542 49.554 26.1542 49.4903 26.1542 49.4426H25.9632C25.1632 49.5064 24.3594 49.5064 23.5595 49.4426C23.4489 49.4233 23.3358 49.4233 23.2252 49.4426C23.2252 49.4426 23.2252 49.5381 23.2252 49.8246C23.2252 54.1226 23.2252 58.4365 23.2252 62.7345V70.6938C23.2252 75.0713 23.2252 79.433 23.2252 83.8106C23.2137 83.9283 23.2245 84.0471 23.257 84.1608Z" fill="#2F76FF"/>
<path d="M15.2977 84.1609H15.5524H16.6985C17.0646 84.1609 17.4307 84.1609 17.765 84.1609C17.9007 84.196 18.0432 84.196 18.1789 84.1609C18.2193 84.0043 18.2193 83.84 18.1789 83.6834C18.1789 72.4131 18.1789 61.1375 18.1789 49.8566C18.2012 49.7196 18.2012 49.5798 18.1789 49.4428H17.8924C17.1509 49.5065 16.4053 49.5065 15.6638 49.4428C15.5374 49.4208 15.4081 49.4208 15.2817 49.4428C15.2817 49.4428 15.2817 49.5383 15.2817 49.8407C15.2817 54.1546 15.2817 58.4685 15.2817 62.7824V76.1858C15.2817 78.7487 15.2817 81.3116 15.2817 83.8585C15.2632 83.9592 15.2687 84.0628 15.2977 84.1609Z" fill="#2F76FF"/>
<path d="M44.0306 20.6146C44.0306 18.9272 44.0306 17.3036 44.0306 15.6958C43.0119 15.6958 42.0727 15.6958 41.1016 15.6958C41.1016 16.3644 41.1016 16.9215 41.1016 17.4946V18.9273C41.1016 19.5003 41.1016 20.0575 41.1016 20.6305L44.0306 20.6146Z" fill="#2F76FF"/>
<path d="M49.0131 68.2425H49.0927C50.0266 68.2425 50.9657 68.2425 51.9102 68.2425H51.9898V68.1151C51.9898 67.5898 51.9898 67.0645 51.9898 66.5233V65.1543C51.9898 64.5812 51.9898 64.0082 51.9898 63.4351V63.3396H51.9102C51.0035 63.3873 50.0949 63.3873 49.1882 63.3396H49.0608V63.5147C49.0608 65.1066 49.0608 66.6029 49.0608 68.1629L49.0131 68.2425Z" fill="#2F76FF"/>
<path d="M41.1016 27.5869C41.1016 28.2555 41.1016 28.8286 41.1016 29.4016V30.8184C41.1016 31.3915 41.1016 31.9486 41.1016 32.5217H44.0306C44.0306 30.8343 44.0306 29.2106 44.0306 27.6028C43.0119 27.6028 42.0567 27.6188 41.1016 27.5869Z" fill="#2F76FF"/>
<path d="M51.9898 32.5216C51.9898 31.9167 51.9898 31.3914 51.9898 30.9297V29.513C51.9898 28.924 51.9898 28.335 51.9898 27.7301V27.6505C51.0347 27.6505 50.0637 27.6505 49.0927 27.6505C49.0927 27.6505 49.0927 27.6505 49.0927 27.7301C49.0927 29.3326 49.0927 30.9244 49.0927 32.5057H52.0695L51.9898 32.5216Z" fill="#2F76FF"/>
<path d="M40.9742 32.5214L41.1015 33.0467V32.5532C41.1015 32.5532 41.0219 32.5373 40.9742 32.5214Z" fill="#2F76FF"/>
<path d="M49.0131 44.4283H49.1086C50.0478 44.4283 50.987 44.4283 51.9262 44.4283C51.9262 42.8364 51.9262 41.2446 51.9262 39.6527C51.1303 39.6527 50.1751 39.6527 49.2041 39.6527H48.9972C48.9914 39.7056 48.9914 39.759 48.9972 39.8119C48.9972 40.3691 48.9972 40.9262 48.9972 41.4038V42.6454C48.9972 43.2025 48.9972 43.7756 48.9972 44.3327L49.0131 44.4283Z" fill="#2F76FF"/>
<path d="M49.4748 80.1657H49.8568H50.6846C51.1462 80.1657 51.7829 80.2612 51.958 80.1657C52.1331 80.0701 52.1013 79.3697 52.0376 78.8762C51.999 78.5271 51.999 78.1748 52.0376 77.8256V77.0775C52.0376 76.5044 52.0376 75.9791 52.0376 75.4856C52.0458 75.4169 52.0458 75.3474 52.0376 75.2787H51.9103C51.0248 75.3264 50.1374 75.3264 49.2519 75.2787C49.1938 75.2704 49.1349 75.2704 49.0768 75.2787C49.0814 75.3529 49.0814 75.4273 49.0768 75.5015C49.0768 76.9819 49.0768 78.3191 49.0768 79.704C49.0768 80.1179 49.0768 80.1975 49.0768 80.1975C49.0768 80.1975 49.1246 80.1975 49.4748 80.1657Z" fill="#2F76FF"/>
<path d="M51.9899 51.4008C51.0507 51.4008 50.1274 51.4008 49.1882 51.4008H49.0768V51.4963C49.0768 53.0881 49.0768 54.68 49.0768 56.2718V56.3673H51.9103C51.9684 56.3756 52.0273 56.3756 52.0854 56.3673C52.0911 56.3304 52.0911 56.2928 52.0854 56.2559C52.0854 55.7306 52.0854 55.1894 52.0854 54.6641V53.2791C52.0854 52.6742 52.0854 52.0853 52.0854 51.4804L51.9899 51.4008Z" fill="#2F76FF"/>
</svg>
