<svg width="100" height="100" viewBox="0 0 100 100" fill="none" xmlns="http://www.w3.org/2000/svg">
<path d="M84.2088 91.611L84.0973 91.5155C83.9335 91.4035 83.796 91.2572 83.6943 91.0868C83.5926 90.9163 83.5291 90.7259 83.5083 90.5285C83.0467 88.1725 82.5691 85.7529 82.1075 83.4766L81.8369 82.1554C81.6937 81.4391 81.4071 81.057 80.9136 80.9137C80.6986 80.8361 80.4658 80.8218 80.2428 80.8726C80.0199 80.9233 79.8162 81.0371 79.656 81.2003C79.1785 81.6778 79.2422 82.235 79.3695 82.9194L79.5128 83.588L80.7544 89.7485C80.8111 89.8679 80.8405 89.9984 80.8405 90.1305C80.8405 90.2627 80.8111 90.3932 80.7544 90.5126C80.6685 90.5945 80.5651 90.6557 80.452 90.6915C80.3389 90.7274 80.2192 90.737 80.1018 90.7196C77.332 90.7196 74.6099 90.7196 72.3017 90.7196C72.1968 90.7327 72.0902 90.7239 71.9889 90.6938C71.8875 90.6637 71.7934 90.6128 71.7127 90.5444C71.645 90.4543 71.596 90.3515 71.5687 90.2422C71.5414 90.1328 71.5362 90.0191 71.5535 89.9077C71.5535 88.8252 71.5535 87.711 71.5535 86.6444C71.5535 86.2465 71.5535 85.8485 71.5535 85.4505C71.5535 85.0526 71.5535 84.7978 71.5535 84.4795C71.5535 83.6995 71.5535 82.8876 71.5535 82.1076C71.5578 81.9406 71.5284 81.7743 71.4669 81.6189C71.4054 81.4635 71.3132 81.3221 71.1958 81.2032C71.0784 81.0843 70.9382 80.9903 70.7836 80.9269C70.6289 80.8635 70.4631 80.8319 70.296 80.8341C69.9638 80.8466 69.6497 80.9884 69.4207 81.2293C69.1916 81.4702 69.0659 81.7911 69.0703 82.1235V86.1191C69.0703 89.5416 69.0703 93.0595 69.0703 96.5457C69.1055 96.8104 69.0371 97.0785 68.8792 97.2938C68.7839 97.3701 68.6741 97.4263 68.5565 97.4592C68.4389 97.492 68.3158 97.5008 68.1948 97.4849C64.5176 97.4849 60.8563 97.4849 57.3065 97.4849C56.9404 97.4849 56.7175 97.4849 56.5902 97.2938C56.4217 97.071 56.3474 96.7909 56.3832 96.5139C56.3832 91.9453 56.3832 87.313 56.3832 82.8239V78.0484C56.4067 77.6829 56.3635 77.3161 56.2559 76.9659C56.166 76.7058 55.9878 76.4853 55.7522 76.3428C55.5167 76.2003 55.2387 76.1448 54.9665 76.186C54.6974 76.1977 54.4407 76.3025 54.2404 76.4825C54.04 76.6626 53.9084 76.9066 53.8681 77.1729C53.836 77.4426 53.836 77.7151 53.8681 77.9847V82.1713C53.8681 86.8513 53.8681 91.7224 53.8681 96.4184C53.8871 96.5653 53.8757 96.7146 53.8346 96.857C53.7935 96.9994 53.7237 97.1318 53.6293 97.2461C53.4224 97.453 53.104 97.4371 52.706 97.4212H52.4195C52.2921 97.4472 52.1605 97.445 52.034 97.4148C51.9075 97.3845 51.7892 97.3269 51.6873 97.2461C51.5986 97.1321 51.5332 97.0017 51.495 96.8624C51.4567 96.7231 51.4463 96.5776 51.4644 96.4343C51.4644 90.3216 51.4644 83.6995 51.4644 75.7402C51.4827 74.6134 51.8074 73.5128 52.4036 72.5565V72.4292L52.515 72.5247L52.8175 72.7794C53.0244 72.9386 53.1995 73.0978 53.4065 73.241C54.0721 73.8225 54.8589 74.2485 55.7098 74.4881C56.5606 74.7276 57.454 74.7747 58.3253 74.6259C59.4151 74.3506 60.4205 73.8118 61.2532 73.0568C62.086 72.3018 62.7204 71.3538 63.1008 70.2961C63.731 68.6923 63.8965 66.9434 63.5784 65.2499V65.0748L63.9127 65.1544H64.1037L66.9849 66.1732C69.1976 66.9532 71.474 67.765 73.7025 68.5769C74.7269 68.9224 75.6389 69.5381 76.3422 70.3591C77.0454 71.1801 77.5139 72.1758 77.6981 73.241L77.8414 73.9096C77.9846 74.5623 78.112 75.2149 78.303 75.8517C78.346 76.0157 78.4217 76.1694 78.5257 76.3035C78.6297 76.4375 78.7597 76.5492 78.9079 76.6317C79.1939 76.7764 79.5247 76.8049 79.8312 76.7112C80.1409 76.6389 80.4103 76.449 80.5826 76.1817C80.7548 75.9143 80.8165 75.5905 80.7544 75.2786C80.7544 74.9125 80.6271 74.5304 80.5475 74.1802C80.4679 73.83 80.4679 73.7663 80.4202 73.5594C80.2484 72.0288 79.683 70.5689 78.7791 69.3219C77.8753 68.0749 76.6637 67.0833 75.2626 66.4438C74.8098 66.2936 74.4319 65.9755 74.2068 65.5549C73.9817 65.1343 73.9266 64.6434 74.0528 64.1834C74.2145 62.8706 74.5352 61.5824 75.0079 60.347L75.2944 59.5033C75.7635 58.3012 75.968 57.0119 75.8938 55.7236C75.8196 54.4352 75.4686 53.178 74.8646 52.0376C73.2158 49.1025 72.2271 45.843 71.9674 42.4865C71.929 42.2634 71.95 42.0342 72.0282 41.8219C72.1064 41.6095 72.2392 41.4215 72.4132 41.2767C73.0666 40.7733 73.5632 40.0943 73.8451 39.3192C74.127 38.544 74.1825 37.7046 74.005 36.8991C73.7259 35.6781 73.6082 34.4258 73.6548 33.1742C73.6548 32.7762 73.6548 32.3942 73.6548 31.9962C73.6548 31.5982 73.7344 31.2799 74.3075 31.1366C75.2737 31.0005 76.1492 30.4938 76.7485 29.7237C77.3478 28.9536 77.6239 27.9805 77.5184 27.0104C77.4129 26.0403 76.9341 25.1493 76.1833 24.526C75.4324 23.9027 74.4685 23.596 73.4956 23.6708C72.7156 23.6708 72.4928 23.3525 72.3336 22.6839C71.6207 19.5739 70.2598 16.6492 68.3397 14.101C66.4196 11.5528 63.9836 9.43825 61.1906 7.89559C60.7942 7.67676 60.4851 7.32831 60.3151 6.90865C60.1175 6.43785 59.8225 6.01426 59.4493 5.66579C59.0761 5.31733 58.6334 5.0519 58.1502 4.88699C57.667 4.71965 57.1544 4.65446 56.6447 4.69557C56.135 4.73667 55.6394 4.88316 55.1893 5.12576C54.7652 5.36821 54.269 5.4528 53.7885 5.36455C51.414 4.94265 48.9838 4.94265 46.6093 5.36455C46.1596 5.44208 45.697 5.35745 45.3039 5.12576C44.5004 4.67447 43.5529 4.55338 42.6617 4.78806C41.7705 5.02275 41.0054 5.59482 40.5284 6.38334C40.0144 7.2443 39.2701 7.94452 38.3794 8.40499C35.7066 9.95499 33.3881 12.0476 31.5731 14.548C29.7581 17.0484 28.4869 19.9012 27.8414 22.9227C27.714 23.4161 27.5389 23.6708 26.934 23.6867C25.97 23.6817 25.0404 24.0444 24.3344 24.7009C23.6285 25.3574 23.1993 26.2583 23.1344 27.2201C23.0694 28.1819 23.3736 29.1323 23.9849 29.8777C24.5962 30.6231 25.4687 31.1075 26.4246 31.2321H26.154C26.2909 31.2194 26.4275 31.2592 26.536 31.3435C26.5665 31.3811 26.5893 31.4244 26.603 31.4709C26.6166 31.5173 26.6209 31.566 26.6156 31.6142C26.5838 31.9902 26.5838 32.3683 26.6156 32.7444C26.752 33.5513 26.6525 34.3804 26.3291 35.1321C25.6863 36.1437 25.4473 37.3599 25.6597 38.5395C25.872 39.719 26.52 40.7756 27.4752 41.4995C27.6198 41.5915 27.7355 41.7225 27.8088 41.8775C27.882 42.0324 27.9098 42.2049 27.8891 42.3751C27.6841 45.4909 26.81 48.526 25.3263 51.2735C24.8649 52.0705 24.5014 52.9204 24.2438 53.8045C23.7506 56.0316 23.962 58.3569 24.8487 60.4585C25.3985 61.8574 25.721 63.3353 25.8038 64.8361C25.8252 65.1773 25.7361 65.5164 25.5497 65.8031C25.3634 66.0898 25.0897 66.3089 24.7691 66.4279C23.5861 66.9782 22.5466 67.7948 21.7319 68.8139C20.9172 69.8329 20.3494 71.0267 20.0731 72.3018C19.2613 75.7084 18.5927 79.1945 17.94 82.5692C17.5739 84.5113 17.1919 86.5329 16.778 88.4909C16.778 88.6979 16.778 88.8889 16.6666 89.0958C16.6559 89.6106 16.5303 90.1164 16.2989 90.5764C16.0676 91.0363 15.7363 91.4388 15.3294 91.7542C15.1338 91.9133 14.9943 92.1308 14.9315 92.375C14.2151 95.0812 14.0241 98.5514 17.2396 99.6976H34.8614C35.4345 99.2678 35.9279 98.8061 35.6414 98.1057C35.3549 97.4053 34.6545 97.1984 33.9222 97.2302H33.0786C32.681 97.2063 32.2823 97.2063 31.8847 97.2302C31.7746 97.256 31.6601 97.2565 31.5499 97.2317C31.4396 97.2069 31.3364 97.1574 31.2479 97.0869C31.1683 96.9872 31.1102 96.8721 31.0773 96.7488C31.0444 96.6255 31.0375 96.4967 31.0569 96.3706C31.0569 92.5342 31.0569 88.6183 31.0569 84.8456V82.4419C31.0858 82.1611 31.0476 81.8774 30.9455 81.6142C30.8287 81.3521 30.6269 81.1371 30.3727 81.0041C30.1185 80.871 29.8269 80.8277 29.545 80.8811C29.2631 80.9345 29.0076 81.0816 28.8197 81.2984C28.6318 81.5152 28.5227 81.7891 28.51 82.0758C28.51 82.9831 28.51 83.8905 28.51 84.7819V86.9787C28.51 87.9338 28.51 88.9207 28.51 89.8918C28.5382 90.1164 28.4814 90.3435 28.3508 90.5285C28.2669 90.6021 28.1676 90.6561 28.0602 90.6864C27.9527 90.7167 27.8399 90.7226 27.7299 90.7036C25.1193 90.7036 22.445 90.7036 19.7707 90.7036C19.4682 90.7036 19.2931 90.7036 19.1817 90.5126C19.0703 90.3216 19.0703 90.1305 19.1817 89.844C19.5478 88.077 19.898 86.2942 20.2482 84.5113C20.9805 80.866 21.7446 77.0774 22.5246 73.3684C22.7342 72.2718 23.2328 71.251 23.9688 70.4115C24.7047 69.572 25.6514 68.9442 26.7112 68.5928C28.892 67.781 31.1365 67.001 33.3014 66.2687L35.9916 65.3454L36.31 65.2499L36.6602 65.1544V65.3454C36.275 67.3978 36.6007 69.5202 37.5835 71.3626C37.9611 72.2199 38.5405 72.9732 39.2721 73.5582C40.0038 74.1432 40.8661 74.5427 41.7854 74.7225C42.7048 74.9023 43.654 74.8571 44.5521 74.5909C45.4503 74.3246 46.2707 73.8451 46.9436 73.1933L47.3415 72.8749L47.7872 72.5247L47.9942 72.9386C48.4541 73.7003 48.7168 74.5648 48.7583 75.4537C48.7583 82.8876 48.7583 89.6052 48.7583 96.3865C48.7583 97.4212 48.2648 97.4212 47.7872 97.4212H47.4689C47.3191 97.4581 47.1629 97.4615 47.0116 97.4313C46.8602 97.401 46.7175 97.3378 46.5933 97.2461C46.4924 97.1258 46.4177 96.9859 46.3738 96.8352C46.33 96.6844 46.318 96.5262 46.3386 96.3706C46.3386 91.6906 46.3386 86.9309 46.3386 82.3146V78.0166C46.3545 77.7515 46.3545 77.4857 46.3386 77.2206C46.3097 76.9508 46.1872 76.6995 45.9924 76.5105C45.7976 76.3215 45.5428 76.2067 45.2721 76.186C44.9885 76.1342 44.6958 76.1882 44.4493 76.3379C44.2029 76.4875 44.0199 76.7223 43.935 76.9978C43.8284 77.3208 43.7851 77.6613 43.8076 78.0007V82.2668C43.8076 86.8991 43.8076 91.6747 43.8076 96.3865C43.8321 96.5461 43.8235 96.7089 43.7824 96.865C43.7414 97.0211 43.6687 97.167 43.5688 97.2938C43.3359 97.4378 43.0555 97.4837 42.7888 97.4212C42.5298 97.3893 42.2678 97.3893 42.0088 97.4212H41.4995C40.6558 97.4212 40.0668 97.5327 39.7962 98.2808C39.5255 99.029 39.9235 99.4588 40.5284 99.9682H82.6647C82.6647 99.9682 82.6646 99.8727 82.792 99.8408C83.5106 99.4886 84.1293 98.9615 84.591 98.3078C85.0527 97.6542 85.3427 96.895 85.4345 96.1C85.6249 95.309 85.6154 94.483 85.407 93.6966C85.1986 92.9101 84.7977 92.1879 84.2406 91.595L84.2088 91.611ZM19.3727 93.2028H20.5348C22.843 93.2028 25.3103 93.2028 27.6026 93.2028C27.8746 93.1678 28.1495 93.2422 28.3667 93.4098C28.4374 93.5012 28.487 93.6071 28.5118 93.72C28.5365 93.8328 28.5359 93.9498 28.51 94.0624C28.462 94.9266 28.462 95.7929 28.51 96.6571C28.5279 96.7624 28.5244 96.8702 28.4998 96.9741C28.4752 97.0781 28.4299 97.176 28.3667 97.262C28.2009 97.3953 27.9894 97.4582 27.7777 97.4372C26.6634 97.4372 25.5173 97.4372 24.4189 97.4372H18.5609C17.4625 97.4372 17.1601 97.1347 17.1601 96.0841C17.1601 95.8294 17.1601 95.5906 17.1601 95.3837C17.1601 94.333 17.16 93.7918 17.4466 93.5212C17.7331 93.2506 18.1947 93.2506 19.3727 93.2506V93.2028ZM59.8057 70.5985C59.5528 71.0033 59.2208 71.3529 58.8297 71.6264C58.4386 71.8999 57.9963 72.0917 57.5293 72.1904H57.1473C56.3126 72.1449 55.5146 71.8324 54.871 71.299C53.2791 70.1528 53.2791 70.0732 54.282 68.4336L57.8 62.6552L57.8955 62.4801L58.0387 62.2891H58.1343C58.8363 62.7154 59.4431 63.2817 59.9169 63.9526C60.3907 64.6236 60.7213 65.3849 60.8882 66.1891C61.0418 66.9661 61.0246 67.7672 60.8377 68.5369C60.6507 69.3065 60.2986 70.0263 59.8057 70.6463V70.5985ZM33.9541 32.3942C33.9255 32.1399 33.9937 31.8841 34.1451 31.6778C34.2486 31.5994 34.3665 31.5421 34.4922 31.5094C34.6178 31.4766 34.7487 31.4689 34.8774 31.4868H64.6768C64.8872 31.4528 65.1028 31.4982 65.2816 31.6142C65.3518 31.6938 65.4038 31.7877 65.434 31.8894C65.4642 31.9911 65.472 32.0981 65.4568 32.2031C65.4568 33.4448 65.4568 34.7023 65.4568 35.9281C65.4568 38.0293 65.4568 40.2101 65.3453 42.2955C65.1075 46.2831 63.3193 50.0196 60.3628 52.7062C57.481 55.371 53.7021 56.8541 49.777 56.8609H49.5701C45.5114 56.8417 41.6194 55.2448 38.7169 52.4077C35.8145 49.5706 34.1293 45.7159 34.0177 41.6587C34.0177 39.8599 34.0177 38.0452 34.0177 36.2783C33.97 35.0366 33.9859 33.6995 33.9541 32.3942ZM72.4609 53.7886C72.8792 54.5757 73.0772 55.4612 73.034 56.3515C72.9713 57.6419 72.7082 58.9147 72.254 60.1242C72.1584 60.4107 72.063 60.6973 71.9834 60.9838L71.9037 61.2066C71.5357 62.2314 71.3159 63.3034 71.2511 64.3903C71.2642 64.4965 71.2539 64.6043 71.2209 64.706C71.1879 64.8078 71.133 64.9011 71.0601 64.9793C70.9876 65.0025 70.9097 65.0025 70.8372 64.9793C70.6946 64.9732 70.5543 64.9408 70.4233 64.8838L66.7621 63.6103C65.1703 63.0691 63.5784 62.512 61.9866 61.923C61.1809 61.5723 60.4469 61.0758 59.8216 60.4585L59.1053 59.8695C58.9988 59.7602 58.9245 59.6235 58.8908 59.4746C58.8571 59.3257 58.8652 59.1704 58.9142 59.0258C58.9381 58.8942 58.9381 58.7594 58.9142 58.6278C58.8251 58.1038 58.9032 57.565 59.1375 57.0878C59.3718 56.6106 59.7504 56.2193 60.2196 55.9694C62.2416 54.5812 63.9525 52.7872 65.2434 50.7016C66.5342 48.616 67.3767 46.2845 67.7172 43.8555V43.744C67.7172 43.3779 67.8286 42.8844 68.545 42.9481C68.8952 42.9481 69.1499 43.0596 69.1817 43.5212C69.4867 47.1471 70.6077 50.6571 72.4609 53.7886ZM68.0037 37.9656C68.0037 37.8064 68.0037 37.6473 68.0037 37.4722C68.0278 37.1224 68.0278 36.7713 68.0037 36.4215C68.0037 36.0236 68.0037 35.753 68.1788 35.6097C68.3539 35.4664 68.7678 35.4664 69.1339 35.6097C69.7409 35.7336 70.287 36.062 70.681 36.54C71.0751 37.018 71.2931 37.6168 71.2988 38.2362C71.1992 38.8603 70.895 39.4336 70.4339 39.8659C69.9728 40.2981 69.3811 40.5648 68.7519 40.624H68.5609C68.4893 40.6332 68.4165 40.6266 68.3477 40.6046C68.279 40.5826 68.2159 40.5457 68.1629 40.4967C68.0356 40.4011 68.0037 40.2261 68.0037 39.9714C68.0277 39.5207 68.0277 39.069 68.0037 38.6183V37.9656ZM70.678 33.1901C70.6092 33.2417 70.5254 33.2697 70.4393 33.2697C70.1966 33.2443 69.9567 33.1963 69.7229 33.1264V32.9991V33.1105C69.4387 33.0242 69.1443 32.9761 68.8474 32.9672C68.6158 32.9903 68.3837 32.9281 68.1948 32.7921C68.1268 32.708 68.0762 32.6112 68.0462 32.5073C68.0161 32.4035 68.0071 32.2946 68.0196 32.1872C68.0016 32.1002 68.0067 32.0099 68.0343 31.9255C68.0619 31.841 68.1112 31.7652 68.1772 31.7057C68.2432 31.6461 68.3236 31.6049 68.4104 31.586C68.4973 31.5672 68.5876 31.5714 68.6723 31.5982H69.5797C69.5797 31.5982 69.7866 31.5982 69.9458 31.5982C70.0435 31.5548 70.1492 31.5323 70.2562 31.5323C70.3631 31.5323 70.4689 31.5548 70.5666 31.5982C70.6443 31.6743 70.7045 31.7664 70.743 31.8681C70.7815 31.9699 70.7974 32.0787 70.7895 32.1872C70.8213 32.7125 70.8372 32.9672 70.7258 33.0946L70.678 33.1901ZM60.2673 14.2152V10.8087L60.4425 10.936C64.8466 13.7001 68.0424 18.0276 69.3886 23.05C69.3886 23.3206 69.516 23.5594 69.3886 23.7345C69.3117 23.8093 69.2185 23.8655 69.1164 23.8986C69.0143 23.9317 68.9059 23.941 68.7997 23.9255C67.0486 23.9255 65.2498 23.9255 63.5306 23.9255H60.9359C60.8482 23.9473 60.7565 23.9486 60.6682 23.9292C60.5799 23.9099 60.4972 23.8705 60.4265 23.8141C60.373 23.7506 60.3327 23.6771 60.3081 23.5978C60.2835 23.5185 60.2751 23.4351 60.2833 23.3525C60.2673 20.3598 60.2673 17.2875 60.2673 14.1197V14.2152ZM47.628 8.07069C49.1144 7.90351 50.6148 7.90351 52.1011 8.07069C52.5628 8.07069 52.706 8.29356 52.706 8.7552C52.706 9.93317 52.706 11.143 52.706 12.4801C52.706 13.3716 53.1518 13.9128 53.9159 13.9287C54.077 13.9395 54.2388 13.9184 54.3917 13.8665C54.5447 13.8146 54.686 13.7329 54.8073 13.6263C54.951 13.473 55.063 13.2929 55.1368 13.0962C55.2105 12.8994 55.2446 12.6901 55.2371 12.4801C55.2371 11.5728 55.2371 10.6495 55.2371 9.74214V8.94621C55.2371 8.08662 55.651 7.60906 56.4151 7.57722C56.5764 7.56459 56.7386 7.58489 56.8918 7.63688C57.0451 7.68887 57.1862 7.77148 57.3065 7.87968C57.4376 8.01022 57.5395 8.16712 57.6054 8.34002C57.6712 8.51291 57.6996 8.69784 57.6885 8.88253C57.6885 11.7319 57.6885 14.5973 57.6885 17.4467C57.6885 19.4365 57.6885 21.4104 57.6885 23.4002C57.6885 23.8618 57.4657 23.9574 57.0836 23.9892C56.7175 23.9892 56.415 23.9892 56.1763 23.9892C56.0552 24.0041 55.9324 23.995 55.8149 23.9622C55.6974 23.9294 55.5876 23.8737 55.4918 23.7982C55.2371 23.5594 55.2371 23.1137 55.2371 22.2063V21.3308C55.2371 20.6622 55.2371 19.9777 55.2371 19.3091C55.2548 19.1308 55.2351 18.9507 55.1793 18.7803C55.1235 18.61 55.0328 18.4531 54.913 18.3198C54.7931 18.1865 54.6468 18.0796 54.4833 18.006C54.3199 17.9324 54.1429 17.8937 53.9636 17.8924C53.1995 17.8924 52.722 18.4336 52.706 19.3091C52.706 20.8055 52.706 22.0153 52.706 23.1137C52.7338 23.3433 52.6772 23.5752 52.5468 23.7663C52.4635 23.8349 52.3662 23.8847 52.2618 23.9122C52.1574 23.9396 52.0483 23.9442 51.942 23.9255C50.4297 23.9255 49.0607 23.9255 47.7554 23.9255C47.643 23.9407 47.5286 23.9329 47.4192 23.9029C47.3098 23.8728 47.2076 23.8209 47.1187 23.7504C47.0412 23.6526 46.9843 23.5401 46.9514 23.4198C46.9186 23.2994 46.9105 23.1736 46.9276 23.05C46.9276 21.299 46.9276 19.5002 46.9276 17.781V16.014V13.9924C46.9276 12.2891 46.9276 10.5221 46.9276 8.78702C46.848 8.32538 46.9913 8.03886 47.628 7.97519V8.07069ZM41.8974 9.37602C41.8815 9.18533 41.8815 8.99365 41.8974 8.80295C41.9929 8.03887 42.4068 7.60907 43.0913 7.60907C43.2558 7.60346 43.4196 7.63334 43.5715 7.6967C43.7234 7.76007 43.8599 7.85542 43.9717 7.97625C44.0834 8.09709 44.1679 8.24059 44.2192 8.39698C44.2706 8.55336 44.2876 8.71896 44.2693 8.88253V17.9879C44.2693 19.6594 44.2693 21.4104 44.2693 23.1137C44.3091 23.3763 44.2464 23.6442 44.0941 23.8618C43.9156 23.9943 43.6947 24.0566 43.4733 24.0369H43.2982C41.8496 24.0369 41.786 23.9414 41.786 22.4451V9.59888C41.786 9.59888 41.8974 9.34417 41.8974 9.21683V9.37602ZM29.9904 23.2888C31.2862 18.2264 34.4776 13.8554 38.9047 11.0793C38.9567 11.0643 39.0119 11.0643 39.0639 11.0793H39.1913C39.3047 11.2591 39.3446 11.4757 39.3027 11.6842C39.3027 11.6842 39.3027 11.7956 39.3027 11.8434C39.3027 13.0744 39.3027 14.3001 39.3027 15.5206C39.3027 18.0038 39.3027 20.5667 39.3027 23.0978C39.3301 23.3643 39.2563 23.6314 39.0957 23.8459C39.0023 23.9202 38.8952 23.9752 38.7805 24.008C38.6657 24.0408 38.5457 24.0506 38.4271 24.0369C36.119 24.0369 33.779 24.0369 31.5345 24.0369H30.6271C30.3565 24.0369 30.1177 24.037 29.9904 23.8778C29.863 23.7186 29.9108 23.5435 29.9904 23.1933V23.2888ZM26.9022 29.0353H26.5201H26.1381C25.8391 29.0011 25.5632 28.8581 25.3628 28.6335C25.1625 28.409 25.0518 28.1185 25.0518 27.8176C25.0518 27.5167 25.1625 27.2262 25.3628 27.0017C25.5632 26.7771 25.8391 26.6341 26.1381 26.5998C26.35 26.5839 26.5629 26.5839 26.7748 26.5998H73.034C73.1981 26.584 73.3633 26.584 73.5275 26.5998C73.823 26.6242 74.0976 26.7623 74.2935 26.9849C74.4894 27.2075 74.5915 27.4974 74.5781 27.7937C74.5917 28.0917 74.4902 28.3835 74.2946 28.6087C74.0991 28.8339 73.8244 28.9752 73.5275 29.0035C73.3057 29.0353 73.0806 29.0353 72.8589 29.0035H26.9022V29.0353ZM31.423 38.0452V38.6024C31.423 39.0163 31.423 39.462 31.423 39.8758C31.4371 39.9736 31.4317 40.0731 31.4071 40.1688C31.3825 40.2644 31.3392 40.3542 31.2798 40.433C31.2157 40.4914 31.1401 40.5358 31.0578 40.5632C30.9756 40.5906 30.8885 40.6005 30.8022 40.5922C30.4677 40.5995 30.1351 40.5409 29.8233 40.4196C29.5115 40.2984 29.2266 40.1169 28.9849 39.8856C28.7432 39.6542 28.5495 39.3776 28.4147 39.0714C28.28 38.7652 28.2068 38.4354 28.1995 38.1009C28.1922 37.7665 28.2508 37.4338 28.3721 37.122C28.4933 36.8102 28.6748 36.5253 28.9061 36.2836C29.1375 36.042 29.4141 35.8482 29.7203 35.7135C30.0265 35.5787 30.3563 35.5056 30.6908 35.4983C30.8033 35.4711 30.9205 35.47 31.0336 35.4948C31.1467 35.5196 31.2526 35.5698 31.3434 35.6415C31.4063 35.7184 31.4517 35.8081 31.4765 35.9043C31.5012 36.0005 31.5047 36.101 31.4867 36.1987C31.4628 36.6228 31.4628 37.048 31.4867 37.4722L31.423 38.0452ZM29.2422 31.6778C29.3638 31.593 29.5046 31.5399 29.6519 31.5232C29.7992 31.5065 29.9484 31.5268 30.0859 31.5823C30.2222 31.6126 30.3635 31.6126 30.4998 31.5823C30.6149 31.5305 30.7396 31.5037 30.8659 31.5037C30.9921 31.5037 31.1169 31.5305 31.232 31.5823C31.3043 31.6638 31.3576 31.7603 31.3879 31.865C31.4182 31.9696 31.4247 32.0797 31.4071 32.1872C31.4121 32.3063 31.3936 32.4253 31.3527 32.5373C31.3117 32.6493 31.2491 32.7521 31.1683 32.8399C31.0425 32.9145 30.9029 32.9628 30.7579 32.982C30.6129 33.0011 30.4655 32.9907 30.3246 32.9513C30.1109 32.8939 29.8857 32.8939 29.672 32.9513C29.5977 33.0042 29.5085 33.0321 29.4173 33.0309H29.3377C29.1944 32.9354 29.1944 32.7285 29.1944 32.5533C29.2036 32.4847 29.2036 32.4151 29.1944 32.3464C29.1403 32.2301 29.1163 32.1021 29.1247 31.9742C29.133 31.8462 29.1734 31.7224 29.2422 31.6142V31.6778ZM36.31 62.6393C34.7182 63.1646 33.1263 63.7218 31.614 64.2311L29.1307 65.1067H29.0034C28.8945 65.1651 28.7758 65.2028 28.6532 65.2181H28.51C28.444 65.1623 28.3933 65.0907 28.3627 65.0099C28.3321 64.9292 28.3225 64.8419 28.3348 64.7565C28.2761 63.2778 27.9694 61.8195 27.4275 60.4425C27.1384 59.5923 26.8992 58.726 26.7112 57.8478C26.3263 56.4023 26.4908 54.8653 27.1728 53.5339C28.952 50.5205 30.0394 47.1495 30.3565 43.6645C30.3565 43.362 30.452 43.0596 30.9455 43.0436C31.5185 43.0436 31.5822 43.4734 31.614 43.7759C31.8257 45.4554 32.2927 47.0926 32.9989 48.631C34.4233 51.9055 36.7964 54.6779 39.812 56.5903C40.6239 57.0997 41.2447 57.5931 40.8945 58.6438C41.1811 59.5989 40.6717 60.1083 39.9712 60.6654C38.8789 61.5222 37.6377 62.1698 36.31 62.5756V62.6393ZM46.0999 70.5985L45.9566 70.7418C45.1912 71.6171 44.1328 72.1831 42.9799 72.3337C42.5998 72.3278 42.2253 72.241 41.8815 72.079C41.0399 71.6951 40.325 71.0796 39.8204 70.3044C39.3158 69.5292 39.0424 68.6263 39.0321 67.7014C39.0321 65.1703 39.7484 63.6899 41.3721 62.7348C41.77 62.496 41.9929 62.4324 42.2794 62.9258C43.5529 65.0589 44.8901 67.2716 46.2591 69.5002C46.4183 69.8185 46.5615 70.1687 46.0999 70.519V70.5985ZM49.9681 71.0284L49.8726 70.8373C48.6468 68.5928 47.2938 66.412 46.0044 64.2789C45.2403 63.0532 44.4125 61.7638 43.7121 60.4903C43.5076 60.082 43.4406 59.6186 43.5211 59.1691C43.5211 58.994 43.5211 58.8189 43.5211 58.6438V58.4846H43.6803C47.7369 59.8895 52.1568 59.8332 56.1763 58.3254H56.3036V58.4527C56.3988 58.9501 56.3929 59.4615 56.2862 59.9565C56.1796 60.4515 55.9743 60.92 55.6828 61.334L54.3775 63.483C52.8971 65.8548 51.3848 68.2585 50.0317 70.8214L49.9681 71.0284ZM82.8397 95.3677C82.8397 96.4183 82.8398 96.9596 82.5532 97.2461C82.2667 97.5326 81.6937 97.5486 80.4998 97.5327H78.9079C76.743 97.5327 74.4985 97.5327 72.2858 97.5327C72.1636 97.5493 72.0392 97.5394 71.921 97.5037C71.8029 97.468 71.6938 97.4073 71.6013 97.3257C71.5222 97.223 71.467 97.1041 71.4394 96.9774C71.4119 96.8508 71.4128 96.7197 71.4421 96.5935C71.4421 95.702 71.4421 94.8106 71.4421 93.9988C71.4255 93.9035 71.4297 93.8059 71.4544 93.7124C71.4791 93.619 71.5238 93.532 71.5854 93.4575C71.6621 93.3937 71.7512 93.3465 71.8472 93.3191C71.9431 93.2917 72.0437 93.2846 72.1426 93.2983C73.3046 93.2983 74.5144 93.2983 75.6605 93.2983H77.0932H81.614C81.7854 93.2816 81.9584 93.2997 82.1226 93.3517C82.2867 93.4037 82.4387 93.4884 82.5692 93.6008C82.6775 93.7301 82.7587 93.8799 82.8079 94.0413C82.8571 94.2026 82.8734 94.3722 82.8557 94.54L82.8397 95.3677Z" fill="#2F76FF"/>
</svg>
