<svg width="15" height="16" viewBox="0 0 15 16" fill="none" xmlns="http://www.w3.org/2000/svg">
<path d="M13.8539 0.194092H1.14585C0.845852 0.194092 0.587852 0.302092 0.371852 0.518092C0.155852 0.722091 0.0478516 0.974091 0.0478516 1.27409V14.1261C0.0478516 14.4261 0.155852 14.6781 0.371852 14.8821C0.587852 15.0981 0.845852 15.2061 1.14585 15.2061H13.8539C14.1539 15.2061 14.4119 15.0981 14.6279 14.8821C14.8439 14.6781 14.9519 14.4261 14.9519 14.1261V1.27409C14.9519 0.974091 14.8439 0.722091 14.6279 0.518092C14.4119 0.302092 14.1539 0.194092 13.8539 0.194092ZM4.56585 12.7581H2.31585V6.00809H4.56585V12.7581ZM3.44985 5.05409C3.12585 5.05409 2.84985 4.94009 2.62185 4.71209C2.39385 4.48409 2.27985 4.20809 2.27985 3.88409C2.27985 3.56009 2.39385 3.28409 2.62185 3.05609C2.84985 2.82809 3.12585 2.71409 3.44985 2.71409C3.77385 2.71409 4.04985 2.82809 4.27785 3.05609C4.50585 3.28409 4.61985 3.56009 4.61985 3.88409C4.61985 4.20809 4.50585 4.48409 4.27785 4.71209C4.04985 4.94009 3.77385 5.05409 3.44985 5.05409ZM12.6839 12.7581H10.4339V9.14009C10.4339 8.13209 10.0559 7.62809 9.29985 7.62809C9.03585 7.62809 8.79585 7.70609 8.57985 7.86209C8.36385 8.00609 8.21385 8.20409 8.12985 8.45609C8.06985 8.63609 8.04585 8.81609 8.05785 8.99609V12.7401H5.80785V5.99009H8.05785V6.94409C8.26185 6.58409 8.54385 6.30809 8.90385 6.11609C9.27585 5.91209 9.67185 5.81609 10.0919 5.82809C10.8839 5.82809 11.5079 6.07409 11.9639 6.56609C12.4439 7.10609 12.6839 7.87409 12.6839 8.87009V12.7581Z" fill="#202737"/>
</svg>
