<svg width="32" height="32" viewBox="0 0 32 32" fill="none" xmlns="http://www.w3.org/2000/svg">
<path d="M0 16.5677V23.8341C0 24.23 0.139738 24.5793 0.419214 24.8821C0.69869 25.1616 1.03639 25.3013 1.43231 25.3013H2.89956C2.89956 26.0932 3.09753 26.8268 3.49345 27.5022C3.88937 28.1543 4.41339 28.6783 5.0655 29.0742C5.7409 29.4702 6.47453 29.6681 7.26637 29.6681C8.05822 29.6681 8.7802 29.4702 9.43231 29.0742C10.1077 28.6783 10.6434 28.1543 11.0393 27.5022C11.4352 26.8268 11.6332 26.0932 11.6332 25.3013H20.3668C20.3668 26.0932 20.5648 26.8268 20.9607 27.5022C21.3566 28.1543 21.8806 28.6783 22.5328 29.0742C23.2082 29.4702 23.9418 29.6681 24.7336 29.6681C25.5255 29.6681 26.2475 29.4702 26.8996 29.0742C27.575 28.6783 28.1106 28.1543 28.5065 27.5022C28.9025 26.8268 29.1004 26.0932 29.1004 25.3013H30.5677C30.9636 25.3013 31.3013 25.1616 31.5808 24.8821C31.8603 24.5793 32 24.23 32 23.8341V6.36681C32 5.57496 31.802 4.85298 31.4061 4.20087C31.0102 3.52547 30.4745 2.98981 29.7991 2.59389C29.147 2.19796 28.425 2 27.6332 2H14.5328C13.7409 2 13.0073 2.19796 12.3319 2.59389C11.6798 2.98981 11.1557 3.52547 10.7598 4.20087C10.3639 4.85298 10.1659 5.57496 10.1659 6.36681V9.26638H7.26637C6.56769 9.26638 5.91557 9.41776 5.31004 9.72052C4.70451 10.0233 4.19214 10.4541 3.77293 11.0131L0.279476 15.6943C0.232897 15.7642 0.197962 15.8341 0.174672 15.9039L0.104803 16.0437C0.0349345 16.2067 0 16.3814 0 16.5677ZM23.2664 25.3013C23.2664 24.9985 23.3362 24.7307 23.476 24.4978C23.639 24.2416 23.8603 24.0553 24.1397 23.9389C24.4192 23.7991 24.6987 23.7642 24.9782 23.8341C25.2809 23.8806 25.5371 24.0087 25.7467 24.2183C25.9563 24.4279 26.0961 24.6841 26.1659 24.9869C26.2358 25.2664 26.2125 25.5459 26.0961 25.8253C25.9796 26.1048 25.7933 26.3261 25.5371 26.4891C25.3042 26.6521 25.0364 26.7336 24.7336 26.7336C24.3377 26.7336 23.9884 26.5939 23.6856 26.3144C23.4061 26.0349 23.2664 25.6972 23.2664 25.3013ZM13.1004 6.36681C13.1004 5.97089 13.2402 5.63319 13.5196 5.35371C13.7991 5.05095 14.1368 4.89956 14.5328 4.89956H27.6332C28.0291 4.89956 28.3668 5.05095 28.6463 5.35371C28.9491 5.63319 29.1004 5.97089 29.1004 6.36681V22.3668H27.9476C27.5284 21.901 27.0393 21.5517 26.4803 21.3188C25.9214 21.0626 25.3275 20.9345 24.6987 20.9345C24.0932 20.9345 23.5109 21.0626 22.952 21.3188C22.393 21.5517 21.9039 21.901 21.4847 22.3668H13.1004V6.36681ZM10.1659 15.1004H4.36681L6.11354 12.7598C6.4163 12.3872 6.80058 12.2009 7.26637 12.2009H10.1659V15.1004ZM5.79913 25.3013C5.79913 24.9985 5.869 24.7307 6.00873 24.4978C6.17176 24.2416 6.39301 24.0553 6.67249 23.9389C6.95196 23.7991 7.23144 23.7642 7.51092 23.8341C7.81368 23.8806 8.06987 24.0087 8.27948 24.2183C8.48908 24.4279 8.62882 24.6841 8.69869 24.9869C8.76856 25.2664 8.74527 25.5459 8.62882 25.8253C8.51237 26.1048 8.32605 26.3261 8.06987 26.4891C7.83697 26.6521 7.56914 26.7336 7.26637 26.7336C6.87045 26.7336 6.52111 26.5939 6.21834 26.3144C5.93886 26.0349 5.79913 25.6972 5.79913 25.3013ZM2.89956 18H10.1659V22.0524C9.5837 21.54 8.9083 21.214 8.13974 21.0742C7.39447 20.9112 6.66084 20.9461 5.93886 21.179C5.21688 21.3886 4.58806 21.7846 4.0524 22.3668H2.89956V18Z" fill="#202737"/>
</svg>
