<svg width="17" height="16" viewBox="0 0 17 16" fill="none" xmlns="http://www.w3.org/2000/svg">
<path d="M12.5141 2.78609C12.2621 2.78609 12.0461 2.87609 11.8661 3.05609C11.6981 3.22409 11.6141 3.43409 11.6141 3.68609C11.6141 3.93809 11.6981 4.15409 11.8661 4.33409C12.0461 4.50209 12.2621 4.58609 12.5141 4.58609C12.7661 4.58609 12.9761 4.50209 13.1441 4.33409C13.3241 4.15409 13.4141 3.93809 13.4141 3.68609C13.4141 3.43409 13.3241 3.22409 13.1441 3.05609C12.9761 2.87609 12.7661 2.78609 12.5141 2.78609ZM15.9521 4.60409C15.9401 3.98009 15.8261 3.37409 15.6101 2.78609C15.4181 2.28209 15.1301 1.83809 14.7461 1.45409C14.3741 1.05809 13.9301 0.770092 13.4141 0.590091C12.8261 0.374092 12.2201 0.260092 11.5961 0.248091C11.2121 0.224091 10.8521 0.206092 10.5161 0.194092H6.50214C6.16614 0.206092 5.80014 0.224091 5.40414 0.248091C4.78014 0.260092 4.17414 0.374092 3.58614 0.590091C3.08214 0.782091 2.63214 1.07009 2.23614 1.45409C1.85214 1.82609 1.57014 2.27009 1.39014 2.78609C1.17414 3.37409 1.06014 3.98009 1.04814 4.60409C1.02414 4.98809 1.00614 5.34809 0.994141 5.68409V9.69809C1.00614 10.0341 1.02414 10.4001 1.04814 10.7961C1.06014 11.4201 1.17414 12.0261 1.39014 12.6141C1.57014 13.1301 1.85214 13.5801 2.23614 13.9641C2.63214 14.3361 3.08214 14.6181 3.58614 14.8101C4.17414 15.0261 4.78014 15.1401 5.40414 15.1521C5.78814 15.1761 6.14814 15.1941 6.48414 15.2061H10.5161C10.8521 15.1941 11.2121 15.1761 11.5961 15.1521C12.2201 15.1401 12.8261 15.0261 13.4141 14.8101C13.9301 14.6301 14.3741 14.3481 14.7461 13.9641C15.1301 13.5681 15.4181 13.1181 15.6101 12.6141C15.8261 12.0261 15.9401 11.4201 15.9521 10.7961C15.9521 10.5921 15.9581 10.3161 15.9701 9.96809C15.9941 9.28409 16.0061 8.52809 16.0061 7.70009V5.68409C15.9941 5.34809 15.9761 4.98809 15.9521 4.60409ZM14.6021 10.7061C14.6021 11.1861 14.5181 11.6481 14.3501 12.0921C14.2301 12.4281 14.0441 12.7221 13.7921 12.9741C13.5401 13.2141 13.2521 13.3941 12.9281 13.5141C12.4721 13.6821 12.0041 13.7661 11.5241 13.7661C11.1641 13.7901 10.8221 13.8081 10.4981 13.8201H6.57414C6.23814 13.8081 5.89014 13.7901 5.53014 13.7661C5.02614 13.7781 4.54014 13.7061 4.07214 13.5501C3.76014 13.4181 3.47814 13.2321 3.22614 12.9921C2.98614 12.7401 2.81214 12.4521 2.70414 12.1281C2.51214 11.6721 2.41014 11.1981 2.39814 10.7061C2.39814 10.5141 2.39214 10.2561 2.38014 9.93209C2.35614 9.26009 2.34414 8.51609 2.34414 7.70009V5.73809C2.35614 5.40209 2.37414 5.05409 2.39814 4.69409C2.39814 4.20209 2.48214 3.72809 2.65014 3.27209C2.78214 2.94809 2.98014 2.67209 3.24414 2.44409C3.47214 2.18009 3.74814 1.98209 4.07214 1.85009C4.52814 1.68209 5.00214 1.59809 5.49414 1.59809C5.68614 1.59809 5.94414 1.59209 6.26814 1.58009C6.94014 1.55609 7.68414 1.54409 8.50014 1.54409H10.4621C10.7981 1.55609 11.1461 1.57409 11.5061 1.59809C11.9861 1.59809 12.4481 1.68209 12.8921 1.85009C13.2401 1.97009 13.5401 2.16809 13.7921 2.44409C14.0441 2.68409 14.2301 2.96009 14.3501 3.27209C14.5181 3.72809 14.6021 4.20209 14.6021 4.69409V4.80209C14.6381 5.48609 14.6561 6.45209 14.6561 7.70009C14.6561 8.94809 14.6381 9.91409 14.6021 10.5981V10.7061ZM8.50014 3.84809C7.80414 3.84809 7.16214 4.02209 6.57414 4.37009C5.98614 4.71809 5.51814 5.18609 5.17014 5.77409C4.82214 6.36209 4.64814 7.00409 4.64814 7.70009C4.64814 8.39609 4.82214 9.03809 5.17014 9.62609C5.51814 10.2141 5.98614 10.6821 6.57414 11.0301C7.16214 11.3781 7.80414 11.5521 8.50014 11.5521C9.19614 11.5521 9.83814 11.3781 10.4261 11.0301C11.0141 10.6821 11.4821 10.2141 11.8301 9.62609C12.1781 9.03809 12.3521 8.39609 12.3521 7.70009C12.3521 7.18409 12.2561 6.69209 12.0641 6.22409C11.8721 5.75609 11.5901 5.34209 11.2181 4.98209C10.8581 4.61009 10.4441 4.32809 9.97614 4.13609C9.50814 3.94409 9.01614 3.84809 8.50014 3.84809ZM8.50014 10.2021C8.04414 10.2021 7.62414 10.0941 7.24014 9.87809C6.85614 9.65009 6.55014 9.34409 6.32214 8.96009C6.10614 8.57609 5.99814 8.15609 5.99814 7.70009C5.99814 7.24409 6.10614 6.82409 6.32214 6.44009C6.55014 6.05609 6.85614 5.75609 7.24014 5.54009C7.62414 5.31209 8.04414 5.19809 8.50014 5.19809C8.95614 5.19809 9.37614 5.31209 9.76014 5.54009C10.1441 5.75609 10.4441 6.05609 10.6601 6.44009C10.8881 6.82409 11.0021 7.24409 11.0021 7.70009C11.0021 8.15609 10.8881 8.57609 10.6601 8.96009C10.4441 9.34409 10.1441 9.65009 9.76014 9.87809C9.37614 10.0941 8.95614 10.2021 8.50014 10.2021Z" fill="#202737"/>
</svg>
