<svg width="32" height="32" viewBox="0 0 32 32" fill="none" xmlns="http://www.w3.org/2000/svg">
<path d="M31.3493 1.55713C31.2795 1.30148 31.1517 1.08069 30.9658 0.894767C30.7799 0.708842 30.5591 0.581019 30.3034 0.511296C28.2815 4.37449e-07 26.2479 -0.127824 24.2027 0.127823C22.1808 0.360232 20.2634 0.96449 18.4507 1.9406C16.6379 2.91671 15.0575 4.19495 13.7096 5.77532L12.106 7.69267L8.3061 6.78629C7.35324 6.46092 6.41199 6.48416 5.48236 6.85601C4.55273 7.22786 3.85551 7.86698 3.3907 8.77336L0.183479 14.4209C-0.0489278 14.8392 -0.0605481 15.2808 0.148618 15.7456C0.357784 16.1871 0.694775 16.4544 1.15959 16.5474L5.6218 17.5235C5.24995 18.6623 4.98268 19.8359 4.82 21.0445C4.75028 21.5093 4.88972 21.916 5.23833 22.2646L9.73541 26.7617C10.0143 27.0406 10.3513 27.18 10.7464 27.18H10.8858C12.1176 27.0638 13.3261 26.8314 14.5114 26.4828L15.4526 30.8404C15.5456 31.3052 15.8129 31.6422 16.2544 31.8514C16.7192 32.0605 17.1608 32.0489 17.5791 31.8165L23.2615 28.6093C24.0749 28.1212 24.6676 27.4356 25.0394 26.5525C25.4113 25.6461 25.481 24.7281 25.2486 23.7985L24.2725 19.7895L26.0852 18.151C27.6656 16.803 28.9438 15.2227 29.92 13.4099C30.8961 11.5971 31.5119 9.67975 31.7676 7.65781C32.0232 5.61263 31.8838 3.57907 31.3493 1.55713ZM3.70445 14.142L5.97041 10.1329C6.10986 9.85406 6.33065 9.66813 6.63277 9.57517C6.9349 9.45897 7.22541 9.45897 7.5043 9.57517L10.0143 10.1678L9.07305 11.3182C8.16666 12.3873 7.3881 13.5493 6.73736 14.8043L3.70445 14.142ZM21.7973 26.0644L17.858 28.2956L17.2305 25.4021C18.5088 24.7746 19.6824 23.9844 20.7515 23.0315L21.8322 22.0554L22.4248 24.4608C22.4946 24.763 22.4713 25.0651 22.3551 25.3672C22.2389 25.6461 22.053 25.8785 21.7973 26.0644ZM24.1679 15.9547L18.7993 20.8701C17.7534 21.7765 16.5914 22.5202 15.3132 23.1013C14.0349 23.659 12.6986 24.0309 11.3042 24.2168L7.81805 20.7307C8.3061 17.8953 9.46814 15.3737 11.3042 13.1659L15.9407 7.65781C17.521 5.79856 19.45 4.47384 21.7276 3.68365C24.0052 2.87023 26.3409 2.6843 28.7347 3.12587C29.1995 5.51967 29.0252 7.86698 28.2118 10.1678C27.3983 12.4686 26.0504 14.3976 24.1679 15.9547ZM22.8083 6.99545C22.204 6.99545 21.6811 7.21624 21.2396 7.65781C20.8212 8.07614 20.6121 8.58744 20.6121 9.1917C20.6121 9.79596 20.8212 10.3189 21.2396 10.7604C21.6811 11.1788 22.204 11.3879 22.8083 11.3879C23.4126 11.3879 23.9239 11.1788 24.3422 10.7604C24.7838 10.3189 25.0045 9.79596 25.0045 9.1917C25.0045 8.58744 24.7838 8.07614 24.3422 7.65781C23.9239 7.21624 23.4126 6.99545 22.8083 6.99545Z" fill="#202737"/>
</svg>
