<svg width="100" height="100" viewBox="0 0 100 100" fill="none" xmlns="http://www.w3.org/2000/svg">
<path d="M75.0476 98.5527C79.6118 97.6621 84.1601 96.7874 88.7243 95.865C89.2898 95.7737 89.8314 95.5705 90.3175 95.2674C90.8035 94.9643 91.2243 94.5674 91.5552 94.0998C92.1875 93.0199 92.3703 91.7349 92.0641 90.5215C91.9675 89.947 91.7511 89.3992 91.4288 88.9138C91.1065 88.4284 90.6857 88.0163 90.1936 87.7043C89.7016 87.3922 89.1494 87.1873 88.5729 87.1028C87.9965 87.0183 87.4087 87.056 86.8478 87.2136L84.1284 87.7385C82.538 88.0247 80.9476 88.3269 79.4845 88.645C79.3334 88.6948 79.1738 88.7134 79.0152 88.6997C78.8567 88.6861 78.7026 88.6404 78.5622 88.5654C78.3171 88.356 78.163 88.0595 78.1328 87.7385C76.8605 81.1545 75.5777 74.5706 74.2842 67.9866C74.1939 67.7309 74.2044 67.4503 74.3137 67.2021C74.4231 66.9538 74.623 66.7566 74.8727 66.6507C77.6932 65.1858 79.8487 62.7003 80.9 59.701C83.1918 53.9298 83.8038 47.6279 82.6652 41.5235C81.073 31.8212 77.8466 22.4592 73.1232 13.8359C72.503 12.7068 72.1213 12.5318 70.8332 12.7863L66.5234 13.6291L61.482 14.6151L53.8008 16.1101C52.6558 16.3327 52.3377 16.6826 52.2105 17.8753C52.2105 18.098 52.2105 18.3206 52.2105 18.5592L52.1151 19.3384C51.5982 24.9616 51.5982 30.6204 52.1151 36.2436C52.4166 40.0467 53.0336 43.8182 53.9598 47.519C55.2009 52.9225 57.7083 57.9536 61.2754 62.1978C64.2175 65.5534 67.1595 67.2391 70.531 67.5095C70.8054 67.5135 71.0677 67.6232 71.2633 67.8157C71.4588 68.0083 71.5725 68.2689 71.5807 68.5432L72.5985 73.7595C73.4891 78.435 74.4273 83.3014 75.3974 88.0724C75.4754 88.2608 75.5046 88.4658 75.4821 88.6685C75.4596 88.8711 75.3862 89.0647 75.2688 89.2314C75.1513 89.398 74.9937 89.5323 74.8104 89.6216C74.6272 89.7109 74.4242 89.7525 74.2206 89.7423L72.5348 90.0603C70.5946 90.4261 68.5909 90.8078 66.6348 91.2531C65.5886 91.4792 64.6716 92.1037 64.0779 92.9943C63.4843 93.8848 63.2605 94.9714 63.4541 96.0241C63.5495 96.9592 63.9303 97.8423 64.5448 98.5536C65.1594 99.2648 65.9778 99.7698 66.8892 99.9999H68.4795L68.9089 99.8568L75.0476 98.5527ZM55.3752 40.3467C54.4429 33.4953 54.2669 26.5622 54.8504 19.6724C54.8453 19.3902 54.9476 19.1167 55.1365 18.9071C55.3255 18.6974 55.587 18.5674 55.8682 18.5433L56.9655 18.3365C61.3707 17.4778 65.76 16.6349 70.1493 15.7443C70.4023 15.6741 70.6727 15.7045 70.9038 15.829C71.135 15.9534 71.3091 16.1624 71.3898 16.4122V16.5236C74.2857 22.1906 76.5829 28.1441 78.2441 34.2875C78.594 35.5757 78.8803 36.8957 79.1666 38.1679C79.3097 38.8041 79.4368 39.4402 79.5959 40.0763C79.6623 40.2591 79.6853 40.4547 79.6632 40.6479C79.6412 40.8411 79.5746 41.0265 79.4687 41.1895C79.3214 41.3321 79.1417 41.4369 78.9451 41.495C78.7485 41.5532 78.5407 41.563 78.3396 41.5235H56.7429C56.5736 41.5486 56.4008 41.537 56.2364 41.4894C56.072 41.4418 55.9197 41.3594 55.79 41.2478C55.6602 41.1361 55.5561 40.9979 55.4845 40.8424C55.4129 40.6869 55.3756 40.5178 55.3752 40.3467ZM72.0737 64.6469C71.7129 64.7233 71.345 64.7606 70.9763 64.7582C69.4883 64.7066 68.0446 64.2383 66.8097 63.4064C64.38 61.7728 62.3651 59.5945 60.9254 57.0451C58.6394 53.2982 57.0249 49.1811 56.1545 44.8791L56.0272 44.3066H78.8485C79.6436 44.3066 80.1843 44.5292 80.232 45.5948C80.6793 50.5449 79.7781 55.5239 77.6239 60.0031C77.1321 61.161 76.3725 62.1857 75.4077 62.993C74.4428 63.8003 73.3002 64.3671 72.0737 64.6469ZM68.3205 97.0419H67.9388C66.5712 97.0419 66.3485 96.0241 66.3485 95.4516C66.302 95.2548 66.2986 95.0501 66.3387 94.8519C66.3788 94.6537 66.4615 94.4665 66.5809 94.3032C66.7003 94.14 66.8536 94.0046 67.0304 93.9063C67.2072 93.8081 67.4032 93.7493 67.6048 93.734L73.2505 92.6208L87.3408 89.8854C87.5825 89.8101 87.8371 89.7854 88.0889 89.8127C88.3406 89.8401 88.584 89.9189 88.8039 90.0444C89.1815 90.3604 89.4211 90.8111 89.4719 91.3008C89.6468 92.3027 89.1697 92.8911 88.0088 93.1456L68.3205 97.0419Z" fill="#2F76FF"/>
<path d="M49.5546 14.4721C49.7474 14.4703 49.9379 14.4292 50.1143 14.3512C50.2906 14.2733 50.4492 14.1601 50.5803 14.0186C50.7113 13.8771 50.8122 13.7103 50.8764 13.5285C50.9407 13.3467 50.9671 13.1537 50.9541 12.9613C50.9541 10.8938 50.9541 8.98544 50.9541 7.14066C50.9553 6.93136 50.9152 6.72387 50.8361 6.53011C50.7569 6.33635 50.6403 6.16014 50.4929 6.01154C50.3676 5.88915 50.2178 5.79469 50.0533 5.73439C49.8888 5.67409 49.7135 5.6493 49.5388 5.66166C49.344 5.67109 49.1532 5.72067 48.9785 5.80729C48.8038 5.89391 48.6489 6.0157 48.5235 6.16502C48.398 6.31434 48.3048 6.48798 48.2496 6.67503C48.1945 6.86208 48.1785 7.0585 48.2028 7.25199C48.2028 7.88812 48.2028 8.52425 48.2028 9.16038V12.7863L47.7258 12.9772H48.2028C48.2188 13.8518 48.7594 14.4721 49.5546 14.4721Z" fill="#2F76FF"/>
<path d="M73.855 36.1161C74.1943 35.9932 74.4739 35.7453 74.6364 35.423C74.799 35.1008 74.8323 34.7287 74.7296 34.3827C74.0776 31.9495 73.3302 29.6117 72.5032 27.3693C72.4237 27.0855 72.2493 26.8376 72.0091 26.6668C71.7688 26.4961 71.4774 26.4129 71.1832 26.431C70.973 26.4223 70.7637 26.4639 70.5729 26.5524C70.382 26.6409 70.215 26.7738 70.0859 26.9399C69.9522 27.1201 69.8649 27.3304 69.8316 27.5522C69.7983 27.7741 69.8201 28.0008 69.8951 28.2122C70.4994 30.2319 71.2151 32.4425 72.1056 35.162C72.1485 35.3451 72.2294 35.5172 72.3434 35.6669C72.4573 35.8166 72.6016 35.9405 72.7668 36.0306C72.9319 36.1207 73.1141 36.1749 73.3017 36.1896C73.4892 36.2043 73.6778 36.1793 73.855 36.1161Z" fill="#2F76FF"/>
<path d="M68.3681 19.5292C68.0132 19.5369 67.6746 19.6791 67.4206 19.9272C67.1667 20.1752 67.0165 20.5104 67.0004 20.865C66.9987 21.0489 67.0345 21.2311 67.1055 21.4007C67.1766 21.5702 67.2816 21.7234 67.4139 21.851C67.5345 21.989 67.6838 22.099 67.8514 22.1732C68.019 22.2473 68.2008 22.284 68.384 22.2804C68.5702 22.2781 68.7538 22.2374 68.9235 22.1607C69.0932 22.0841 69.2452 21.9733 69.37 21.8351C69.6215 21.568 69.7634 21.216 69.7676 20.8492C69.7473 20.4919 69.5909 20.1561 69.3306 19.9106C69.0703 19.6651 68.7259 19.5286 68.3681 19.5292Z" fill="#2F76FF"/>
<path d="M58.7466 6.21819C58.5418 6.14773 58.3271 6.11017 58.1105 6.10688C57.9465 6.09883 57.7831 6.13255 57.6357 6.20487C57.4883 6.27719 57.3617 6.38573 57.2676 6.52035C56.2196 7.88996 55.3288 9.37296 54.6118 10.9415C54.6118 11.1164 54.2778 11.673 55.0889 12.341C55.2562 12.526 55.4832 12.6464 55.7302 12.6813C55.9772 12.7162 56.2286 12.6633 56.4406 12.5318C57.5993 11.3519 58.527 9.96566 59.1761 8.44466C59.3033 8.20611 59.4305 7.96757 59.5418 7.72902C59.5793 7.42613 59.5233 7.119 59.3812 6.84892C59.239 6.57884 59.0176 6.35873 58.7466 6.21819Z" fill="#2F76FF"/>
<path d="M47.7734 33.6195C48.1278 28.4518 48.0214 23.2627 47.4554 18.1138C47.2963 16.6348 47.01 16.3326 45.6264 16.0623L28.9598 12.8816C27.3695 12.5795 27.1468 12.6908 26.3993 14.0744C21.9961 22.2633 18.9001 31.0901 17.2232 40.2353C16.0976 45.8079 16.3047 51.5676 17.8275 57.0451C18.909 60.6392 20.5787 64.615 24.9203 66.746C25.1403 66.8442 25.3159 67.0207 25.4129 67.2412C25.5099 67.4617 25.5214 67.7103 25.4452 67.9388C24.2047 74.5652 22.9749 81.1968 21.7556 87.8338C21.7443 87.9853 21.7019 88.1327 21.6307 88.2668C21.5595 88.401 21.4612 88.5189 21.3421 88.6131C21.2098 88.6859 21.0644 88.7318 20.9143 88.7481C20.7642 88.7645 20.6123 88.751 20.4674 88.7085C18.8771 88.3745 17.2868 88.0724 15.6965 87.7702L12.9452 87.2454C12.3896 87.0979 11.8094 87.0675 11.2414 87.156C10.6734 87.2444 10.1301 87.4499 9.64565 87.7594C9.16125 88.0689 8.74638 88.4756 8.42738 88.9538C8.10838 89.432 7.89226 89.9713 7.79257 90.5374C7.62515 91.1376 7.58108 91.7656 7.66308 92.3833C7.74508 93.001 7.95143 93.5957 8.26965 94.1315C8.59159 94.6007 9.00588 94.9992 9.48714 95.3028C9.96841 95.6063 10.5066 95.8084 11.0686 95.8968C13.5336 96.4057 16.0145 96.8828 18.4795 97.3599L25.1748 98.6799L26.9878 99.0138C28.4047 99.243 29.8066 99.5563 31.1862 99.9521H32.6812L33.365 99.7295C33.6674 99.642 33.9604 99.5248 34.2397 99.3796C35.0019 98.8613 35.6028 98.139 35.974 97.2954C36.3452 96.4517 36.4716 95.5207 36.3389 94.6086C36.1948 93.6891 35.7526 92.8423 35.0802 92.1986C34.4079 91.555 33.5426 91.1501 32.6176 91.0463L31.0272 90.7441L25.4929 89.6786C25.3067 89.6721 25.1239 89.6262 24.9567 89.5439C24.7895 89.4617 24.6416 89.345 24.5228 89.2015C24.3421 88.8768 24.2965 88.4941 24.3956 88.136C25.6043 81.8542 26.7492 75.6201 28.0056 68.7181C28.0097 68.5538 28.0464 68.3919 28.1136 68.2419C28.1808 68.0919 28.2771 67.9568 28.397 67.8443C28.5168 67.7319 28.6578 67.6443 28.8117 67.5869C28.9657 67.5294 29.1295 67.503 29.2937 67.5094C31.4035 67.3075 33.4118 66.5075 35.0826 65.2034C38.9817 62.1337 41.9543 58.0437 43.6704 53.3873C46.1325 47.0734 47.5193 40.3917 47.7734 33.6195ZM32.1564 93.7658C32.6551 93.8166 33.1157 94.0554 33.4446 94.4337C33.5504 94.6233 33.6163 94.8326 33.6382 95.0487C33.6601 95.2648 33.6374 95.483 33.5717 95.69C33.365 96.676 32.9833 97.0895 32.1882 97.0895C31.9636 97.083 31.7401 97.0564 31.5202 97.01L11.9592 93.2091C10.8301 93.0024 10.3688 92.414 10.496 91.4757C10.5915 90.8555 10.7823 89.7581 12.1977 89.8854L13.788 90.1716L18.1933 91.0145L32.1564 93.7658ZM41.905 50.5565C40.6753 54.1168 38.8111 57.4251 36.4026 60.3211C35.0769 61.9252 33.423 63.2267 31.5521 64.1379C30.6441 64.5752 29.6496 64.8035 28.6418 64.8059C27.5161 64.7703 26.416 64.4623 25.4355 63.9083C24.455 63.3544 23.6234 62.571 23.012 61.6252C20.9238 58.4396 19.7166 54.7577 19.5133 50.9541C19.4861 50.812 19.4906 50.6657 19.5263 50.5255C19.562 50.3854 19.6282 50.2548 19.72 50.143C19.8271 50.0426 19.9563 49.9687 20.0971 49.9272C20.238 49.8858 20.3866 49.878 20.531 49.9045H42.1595L41.905 50.5565ZM41.905 47.1214H28.4827C25.9381 47.1214 23.4096 47.1214 20.8809 47.1214C20.6838 47.1413 20.4847 47.1205 20.2959 47.0603C20.1072 47.0002 19.9328 46.9018 19.7836 46.7715C19.6558 46.5944 19.5658 46.3929 19.5193 46.1794C19.4728 45.966 19.4707 45.7453 19.5133 45.5311C20.1653 37.3568 22.5985 28.8962 27.2104 18.8931C27.3142 18.6536 27.4311 18.42 27.5603 18.1933C27.7421 17.8706 27.9014 17.5359 28.0374 17.1914C28.0908 16.9394 28.1986 16.702 28.3535 16.4961C28.5083 16.2902 28.7064 16.1206 28.9337 15.9994C29.1611 15.8782 29.4121 15.8082 29.6694 15.7943C29.9267 15.7804 30.1839 15.823 30.4229 15.9192C34.6532 16.8097 38.8993 17.6208 43.6067 18.5114C43.8019 18.5234 43.9927 18.5743 44.1678 18.6613C44.343 18.7483 44.4989 18.8695 44.6264 19.0177C44.7539 19.166 44.8504 19.3383 44.9102 19.5245C44.97 19.7107 44.9918 19.907 44.9745 20.1017C45.412 25.3141 45.412 30.554 44.9745 35.7664C44.6882 39.2453 44.1568 42.6996 43.3841 46.1036C43.3571 46.2703 43.2949 46.4295 43.2017 46.5704C43.1086 46.7113 42.9865 46.8308 42.8437 46.9211C42.7008 47.0113 42.5405 47.0701 42.3732 47.0937C42.2059 47.1173 42.0355 47.105 41.8733 47.0578L41.905 47.1214Z" fill="#2F76FF"/>
<path d="M41.4917 35.671C41.603 34.1761 41.6984 32.6812 41.7939 31.1863V29.7709V29.4051C41.7939 28.8962 41.7939 28.3873 41.7939 27.8148C41.7939 26.622 41.7939 25.4452 41.7939 24.2524C41.816 24.0542 41.7965 23.8535 41.7366 23.6633C41.6767 23.473 41.5776 23.2974 41.4459 23.1477C41.3141 22.9979 41.1525 22.8774 40.9714 22.7938C40.7903 22.7101 40.5938 22.6653 40.3944 22.6621C40.2084 22.6681 40.0255 22.7115 39.8567 22.7897C39.6879 22.868 39.5367 22.9795 39.412 23.1176C39.2872 23.2556 39.1916 23.4174 39.1309 23.5933C39.0701 23.7692 39.0455 23.9555 39.0584 24.1411C39.0584 27.5762 39.0584 31.5679 38.7563 35.5119C38.7367 35.6956 38.7564 35.8813 38.8139 36.0567C38.8715 36.2322 38.9657 36.3934 39.0903 36.5298C39.2169 36.6657 39.3692 36.7751 39.5385 36.8516C39.7078 36.928 39.8906 36.97 40.0763 36.9751C40.4364 36.988 40.7871 36.8583 41.0522 36.6141C41.3172 36.3699 41.4752 36.031 41.4917 35.671Z" fill="#2F76FF"/>
<path d="M39.0584 41.7301C38.7021 41.7533 38.367 41.9075 38.1174 42.1629C37.8679 42.4183 37.7216 42.7569 37.7066 43.1137C37.71 43.2959 37.7497 43.4755 37.8234 43.6421C37.8971 43.8087 38.0034 43.9588 38.136 44.0838C38.2636 44.2161 38.4168 44.3211 38.5863 44.3922C38.7559 44.4633 38.9381 44.499 39.122 44.4973C39.4844 44.4863 39.8276 44.3318 40.0762 44.0679C40.3323 43.792 40.4694 43.4263 40.4579 43.0501C40.4375 42.6929 40.2812 42.357 40.0209 42.1115C39.7606 41.866 39.4162 41.7295 39.0584 41.7301Z" fill="#2F76FF"/>
<path d="M42.4937 6.82254C42.2997 6.51464 41.9912 6.29643 41.6363 6.2159C41.2814 6.13538 40.9091 6.19913 40.6012 6.39315C40.2933 6.58717 40.0751 6.89557 39.9945 7.25048C39.914 7.60539 39.9778 7.97774 40.1718 8.28564C40.7602 9.33526 41.3963 10.369 42.0483 11.4663L42.4141 12.0706C42.5414 12.2726 42.7173 12.4395 42.9256 12.5562C43.134 12.6729 43.3681 12.7356 43.6068 12.7386C43.8351 12.7452 44.0609 12.6894 44.2598 12.5773C44.4587 12.4653 44.6234 12.3011 44.736 12.1024C44.8616 11.8849 44.9277 11.638 44.9277 11.3868C44.9277 11.1355 44.8616 10.8887 44.736 10.6711C44.0204 9.20803 43.1934 7.90397 42.4937 6.82254Z" fill="#2F76FF"/>
</svg>
