<svg width="32" height="32" viewBox="0 0 32 32" fill="none" xmlns="http://www.w3.org/2000/svg">
<path d="M8.01919 20.604H12.8153C13.199 20.5528 13.5188 20.3738 13.7746 20.0668C14.056 19.7599 14.1966 19.4146 14.1966 19.0309C14.1966 18.6216 14.056 18.2635 13.7746 17.9565C13.5188 17.6496 13.199 17.4705 12.8153 17.4194H8.01919C7.63549 17.4705 7.30296 17.6496 7.02158 17.9565C6.76579 18.2635 6.63789 18.6216 6.63789 19.0309C6.63789 19.4146 6.76579 19.7599 7.02158 20.0668C7.30296 20.3738 7.63549 20.5528 8.01919 20.604ZM27.2038 4.604H4.79616C3.92646 4.604 3.1207 4.82143 2.3789 5.25628C1.66267 5.69113 1.08713 6.27946 0.652278 7.02127C0.217426 7.7375 0 8.53046 0 9.40017V23.7887C0 24.6584 0.217426 25.4641 0.652278 26.2059C1.08713 26.9222 1.66267 27.4977 2.3789 27.9325C3.1207 28.3674 3.92646 28.5848 4.79616 28.5848H27.2038C28.0735 28.5848 28.8665 28.3674 29.5827 27.9325C30.3245 27.4977 30.9129 26.9222 31.3477 26.2059C31.7826 25.4641 32 24.6584 32 23.7887V9.40017C32 8.53046 31.7826 7.7375 31.3477 7.02127C30.9129 6.27946 30.3245 5.69113 29.5827 5.25628C28.8665 4.82143 28.0735 4.604 27.2038 4.604ZM28.777 23.7887C28.777 24.2235 28.6235 24.6072 28.3165 24.9397C28.0096 25.2467 27.6387 25.4002 27.2038 25.4002H4.79616C4.36131 25.4002 3.99041 25.2467 3.68345 24.9397C3.3765 24.6072 3.22302 24.2235 3.22302 23.7887V14.1963H28.777V23.7887ZM28.777 11.0117H3.22302V9.40017C3.22302 8.96531 3.3765 8.59441 3.68345 8.28746C3.99041 7.9805 4.36131 7.82703 4.79616 7.82703H27.2038C27.6387 7.82703 28.0096 7.9805 28.3165 8.28746C28.6235 8.59441 28.777 8.96531 28.777 9.40017V11.0117Z" fill="#202737"/>
</svg>
