<svg width="201" height="54" viewBox="0 0 201 54" fill="none" xmlns="http://www.w3.org/2000/svg">
<path fill-rule="evenodd" clip-rule="evenodd" d="M46.7401 25.6228L83.8249 0.418387C84.2367 0.1455 84.7196 0 85.2134 0C85.7073 0 86.1902 0.1455 86.6021 0.418387L123.687 25.6228C123.785 25.7167 123.854 25.8379 123.883 25.9709C123.913 26.1039 123.902 26.2427 123.853 26.3696C123.803 26.4965 123.717 26.6059 123.606 26.6837C123.494 26.7615 123.362 26.8043 123.226 26.8067H47.2128C47.0758 26.8067 46.9419 26.7655 46.8285 26.6886C46.7151 26.6117 46.6272 26.5024 46.5764 26.375C46.5255 26.2476 46.5139 26.1078 46.5431 25.9738C46.5723 25.8397 46.6409 25.7174 46.7401 25.6228Z" fill="#009E16"/>
<path fill-rule="evenodd" clip-rule="evenodd" d="M89.8641 21.3846L120.674 0.442038C121.085 0.169151 121.568 0.0236511 122.062 0.0236511C122.556 0.0236511 123.039 0.169151 123.451 0.442038L154.248 21.3846C154.371 21.4721 154.462 21.5978 154.506 21.7422C154.55 21.8865 154.546 22.0414 154.493 22.183C154.441 22.3246 154.343 22.4448 154.216 22.5252C154.088 22.6056 153.938 22.6416 153.788 22.6276H90.3368C90.1857 22.6448 90.0331 22.6111 89.9031 22.5318C89.7732 22.4525 89.6733 22.3322 89.6191 22.1898C89.565 22.0474 89.5596 21.8909 89.604 21.7452C89.6484 21.5994 89.7399 21.4725 89.8641 21.3846Z" fill="#FFDB27"/>
<path fill-rule="evenodd" clip-rule="evenodd" d="M103.632 12.0203L89.8636 21.3846C89.7408 21.4722 89.6502 21.5979 89.6059 21.7422C89.5616 21.8866 89.5661 22.0415 89.6186 22.1831C89.6711 22.3246 89.7687 22.4449 89.8963 22.5253C90.0239 22.6057 90.1744 22.6417 90.3245 22.6277H119.231L103.632 12.0203Z" fill="#FFC200"/>
<path d="M16.9706 32.8443H0.602728C0.442878 32.8443 0.289563 32.9079 0.176532 33.0212C0.0635007 33.1344 0 33.288 0 33.4481V37.6153C0 37.7754 0.0635007 37.929 0.176532 38.0422C0.289563 38.1555 0.442878 38.2191 0.602728 38.2191H5.99172V52.9818C5.9917 53.0621 6.00767 53.1416 6.03869 53.2156C6.06972 53.2897 6.11518 53.3568 6.17241 53.413C6.22963 53.4692 6.29746 53.5134 6.37196 53.5431C6.44645 53.5727 6.5261 53.5871 6.60624 53.5856H10.9434C11.0236 53.5871 11.1032 53.5727 11.1777 53.5431C11.2522 53.5134 11.3201 53.4692 11.3773 53.413C11.4345 53.3568 11.48 53.2897 11.511 53.2156C11.542 53.1416 11.558 53.0621 11.558 52.9818V38.2191H16.9706C17.1305 38.2191 17.2838 38.1555 17.3968 38.0422C17.5098 37.929 17.5733 37.7754 17.5733 37.6153V33.4481C17.5733 33.288 17.5098 33.1344 17.3968 33.0212C17.2838 32.9079 17.1305 32.8443 16.9706 32.8443Z" fill="#202737"/>
<path d="M31.8965 48.2346H24.4749V45.7485H31.1284C31.2085 45.7485 31.2879 45.7325 31.3618 45.7014C31.4357 45.6703 31.5027 45.6248 31.5588 45.5675C31.6149 45.5102 31.659 45.4422 31.6886 45.3676C31.7182 45.2929 31.7327 45.2132 31.7311 45.1329V41.309C31.7311 41.1489 31.6676 40.9953 31.5545 40.8821C31.4415 40.7688 31.2882 40.7052 31.1284 40.7052H24.4749V38.1954H31.8729C32.0327 38.1954 32.186 38.1318 32.2991 38.0186C32.4121 37.9054 32.4756 37.7518 32.4756 37.5917V33.4837C32.4756 33.3235 32.4121 33.17 32.2991 33.0567C32.186 32.9435 32.0327 32.8799 31.8729 32.8799H22.974C22.4416 32.8799 21.9145 32.9849 21.4227 33.189C20.9309 33.3931 20.4841 33.6922 20.1077 34.0692C19.7313 34.4463 19.4327 34.8939 19.229 35.3866C19.0253 35.8793 18.9204 36.4073 18.9204 36.9406V53.0174C18.9204 53.1775 18.9839 53.3311 19.0969 53.4443C19.21 53.5575 19.3633 53.6212 19.5231 53.6212H31.8965C32.0575 53.6212 32.212 53.558 32.3269 53.4451C32.4419 53.3322 32.508 53.1786 32.5111 53.0174V48.8857C32.5159 48.8019 32.5036 48.718 32.4749 48.6392C32.4461 48.5604 32.4017 48.4883 32.3441 48.4273C32.2866 48.3663 32.2172 48.3177 32.1402 48.2846C32.0632 48.2515 31.9803 48.2345 31.8965 48.2346Z" fill="#202737"/>
<path d="M51.3964 32.8444H47.0473C46.9672 32.8428 46.8876 32.8573 46.8131 32.8869C46.7386 32.9165 46.6707 32.9607 46.6135 33.017C46.5563 33.0732 46.5108 33.1403 46.4798 33.2143C46.4488 33.2884 46.4328 33.3679 46.4328 33.4481V43.1795L40.252 33.1285C40.1963 33.0411 40.1194 32.9692 40.0284 32.9196C39.9375 32.8699 39.8356 32.844 39.732 32.8444H34.4494C34.2896 32.8444 34.1363 32.908 34.0232 33.0212C33.9102 33.1344 33.8467 33.288 33.8467 33.4481V52.9818C33.8467 53.142 33.9102 53.2956 34.0232 53.4088C34.1363 53.522 34.2896 53.5856 34.4494 53.5856H38.7748C38.9346 53.5856 39.0879 53.522 39.201 53.4088C39.314 53.2956 39.3775 53.142 39.3775 52.9818V42.2679L46.2792 53.3015C46.3349 53.3889 46.4118 53.4608 46.5028 53.5105C46.5937 53.5602 46.6956 53.586 46.7992 53.5856H51.3964C51.5562 53.5856 51.7095 53.522 51.8226 53.4088C51.9356 53.2956 51.9991 53.142 51.9991 52.9818V33.4481C51.9991 33.288 51.9356 33.1344 51.8226 33.0212C51.7095 32.908 51.5562 32.8444 51.3964 32.8444Z" fill="#202737"/>
<path d="M61.0162 32.8443H57.388C56.3139 32.8475 55.2847 33.2763 54.5252 34.0371C53.7657 34.798 53.3376 35.829 53.3345 36.905V52.9818C53.3345 53.0621 53.3504 53.1416 53.3814 53.2156C53.4125 53.2897 53.4579 53.3568 53.5152 53.413C53.5724 53.4692 53.6402 53.5134 53.7147 53.5431C53.7892 53.5727 53.8689 53.5871 53.949 53.5856H60.9807C67.3151 53.5856 71.416 49.5249 71.416 43.2268C71.416 36.9286 67.3269 32.8443 61.0162 32.8443ZM58.9007 38.1599H60.7916C63.8288 38.1599 65.637 40.054 65.637 43.2268C65.637 47.7728 62.2452 48.27 60.7916 48.27H58.9007V38.1599Z" fill="#202737"/>
<path d="M90.9035 52.7688L84.5336 35.6028C84.2297 34.7938 83.6868 34.0969 82.9774 33.6049C82.2679 33.113 81.4256 32.8495 80.5627 32.8495C79.6999 32.8495 78.8576 33.113 78.1481 33.6049C77.4386 34.0969 76.8958 34.7938 76.5919 35.6028L70.1393 52.7806C70.1046 52.8714 70.0918 52.9692 70.1021 53.0659C70.1124 53.1626 70.1454 53.2555 70.1984 53.337C70.2564 53.4177 70.3328 53.4833 70.4211 53.5286C70.5095 53.5739 70.6073 53.5975 70.7066 53.5975H75.2683C75.3944 53.598 75.5176 53.5596 75.6212 53.4876C75.7247 53.4156 75.8037 53.3135 75.8474 53.195L77.1001 49.6434H83.7772L85.0299 53.195C85.0736 53.3135 85.1526 53.4156 85.2561 53.4876C85.3597 53.5596 85.4829 53.598 85.609 53.5975H90.3362C90.434 53.598 90.5304 53.5747 90.6172 53.5296C90.704 53.4845 90.7785 53.4189 90.8343 53.3385C90.8901 53.2581 90.9256 53.1653 90.9377 53.0681C90.9497 52.9709 90.938 52.8722 90.9035 52.7806V52.7688ZM81.9809 44.4817H78.9673L80.4918 40.1843L81.9809 44.4817Z" fill="#202737"/>
<path d="M100.784 40.7526L98.1601 40.2554C96.742 39.9949 96.742 39.2609 96.742 38.9886C96.742 38.2546 97.5101 37.497 98.7983 37.497C99.4046 37.4144 100.019 37.5706 100.513 37.9327C101.007 38.2948 101.341 38.8346 101.446 39.4385C101.457 39.5234 101.488 39.6046 101.535 39.6762C101.582 39.7479 101.644 39.8082 101.717 39.8529C101.787 39.9007 101.867 39.9329 101.951 39.9472C102.034 39.9615 102.12 39.9576 102.202 39.9357L106.114 38.8348C106.258 38.7908 106.381 38.6953 106.459 38.5666C106.537 38.4378 106.566 38.2847 106.539 38.1363C106.303 36.7985 105.026 32.4301 98.8219 32.4301C94.5674 32.4301 91.2348 35.4489 91.2348 39.3201C91.2348 42.5284 93.4566 44.9553 97.0374 45.642L99.6964 46.1392C100.181 46.2339 101.292 46.5535 101.292 47.5006C101.292 48.4477 100.193 48.9331 99.1528 48.9331C96.2811 48.9331 95.7965 46.9679 95.7138 46.1155C95.7063 46.0289 95.6803 45.9449 95.6375 45.8693C95.5947 45.7937 95.536 45.7283 95.4656 45.6775C95.3187 45.5826 95.1407 45.5486 94.9693 45.5828L90.9866 46.5535C90.8429 46.5871 90.7161 46.6714 90.6293 46.7909C90.5425 46.9105 90.5015 47.0574 90.5139 47.2047C90.8566 50.5905 93.6457 54 99.0937 54C104.175 54 106.917 50.4484 106.917 47.2283C106.917 44.0082 104.518 41.4629 100.784 40.7526Z" fill="#202737"/>
<path d="M123.923 42.8006C124.557 42.3191 125.07 41.6959 125.421 40.9806C125.772 40.2653 125.951 39.4777 125.944 38.6808C125.944 35.1884 123.261 32.8443 119.267 32.8443H111.975C111.815 32.8443 111.662 32.9079 111.549 33.0212C111.436 33.1344 111.373 33.288 111.373 33.4481V52.9818C111.373 53.1419 111.436 53.2955 111.549 53.4087C111.662 53.522 111.815 53.5856 111.975 53.5856H119.881C123.829 53.5856 126.594 51.0639 126.594 47.4413C126.606 46.4987 126.365 45.5703 125.895 44.7536C125.425 43.9369 124.744 43.2623 123.923 42.8006ZM118.57 40.6697H116.821V37.6626H118.522C119.811 37.6626 120.472 38.1717 120.472 39.1543C120.472 40.5157 119.149 40.6697 118.57 40.6697ZM116.821 45.4051H118.936C120.236 45.4051 121.016 46.0325 121.016 47.0862C121.016 48.5897 119.562 48.7554 118.936 48.7554H116.821V45.4051Z" fill="#202737"/>
<path d="M143.21 52.7096L139.546 45.3934C140.655 44.8856 141.589 44.0628 142.234 43.0272C142.879 41.9916 143.206 40.789 143.175 39.5688C143.201 38.6593 143.038 37.7542 142.695 36.9114C142.353 36.0687 141.839 35.3066 141.187 34.6739C140.534 34.0411 139.757 33.5517 138.904 33.2367C138.052 32.9217 137.144 32.7881 136.237 32.8444H128.508C128.349 32.8444 128.195 32.908 128.082 33.0213C127.969 33.1345 127.906 33.2881 127.906 33.4482V52.9819C127.906 53.142 127.969 53.2956 128.082 53.4088C128.195 53.5221 128.349 53.5857 128.508 53.5857H132.881C133.041 53.5857 133.194 53.5221 133.307 53.4088C133.42 53.2956 133.484 53.142 133.484 52.9819V46.3168H134.063L137.384 53.2424C137.435 53.3461 137.514 53.4333 137.612 53.494C137.71 53.5547 137.824 53.5865 137.939 53.5857H142.666C142.77 53.5872 142.873 53.5618 142.964 53.512C143.055 53.4622 143.131 53.3898 143.186 53.3016C143.242 53.2137 143.273 53.1127 143.277 53.0088C143.282 52.9049 143.258 52.8017 143.21 52.7096ZM133.46 37.8285H135.41C136.391 37.8285 137.549 38.1363 137.549 39.5924C137.549 40.7053 136.769 41.3564 135.41 41.3564H133.46V37.8285Z" fill="#202737"/>
<path d="M172.602 40.7526L169.978 40.2554C168.56 39.9949 168.56 39.2609 168.56 38.9886C168.56 38.2546 169.328 37.497 170.616 37.497C171.222 37.4144 171.837 37.5706 172.331 37.9327C172.824 38.2948 173.159 38.8346 173.263 39.4385C173.275 39.5234 173.306 39.6046 173.353 39.6762C173.4 39.7479 173.462 39.8082 173.535 39.8529C173.605 39.9007 173.685 39.9329 173.768 39.9472C173.852 39.9615 173.938 39.9576 174.02 39.9357L177.931 38.8348C178.075 38.7908 178.198 38.6953 178.277 38.5666C178.355 38.4378 178.384 38.2847 178.357 38.1363C178.121 36.7985 176.844 32.4301 170.64 32.4301C166.385 32.4301 163.053 35.4489 163.053 39.3201C163.053 42.5284 165.274 44.9553 168.855 45.642L171.514 46.1392C171.999 46.2339 173.11 46.5535 173.11 47.5006C173.11 48.4477 172.011 48.9331 170.971 48.9331C168.099 48.9331 167.614 46.9679 167.532 46.1155C167.524 46.0289 167.498 45.9449 167.455 45.8693C167.413 45.7937 167.354 45.7283 167.283 45.6775C167.137 45.5826 166.959 45.5486 166.787 45.5828L162.804 46.5535C162.661 46.5871 162.534 46.6714 162.447 46.7909C162.36 46.9105 162.319 47.0574 162.332 47.2047C162.674 50.5905 165.463 54 170.912 54C175.993 54 178.735 50.4484 178.735 47.2283C178.735 44.0082 176.383 41.4629 172.602 40.7526Z" fill="#202737"/>
<path d="M185.081 32.8326H180.673C180.34 32.8326 180.07 33.1029 180.07 33.4363V52.9819C180.07 53.3153 180.34 53.5856 180.673 53.5856H185.081C185.414 53.5856 185.684 53.3153 185.684 52.9819V33.4363C185.684 33.1029 185.414 32.8326 185.081 32.8326Z" fill="#202737"/>
<path d="M200.386 48.2109H192.586V33.4481C192.586 33.3679 192.57 33.2884 192.539 33.2143C192.508 33.1403 192.462 33.0732 192.405 33.017C192.348 32.9607 192.28 32.9165 192.206 32.8869C192.131 32.8573 192.051 32.8428 191.971 32.8444H187.634C187.554 32.8428 187.474 32.8573 187.4 32.8869C187.325 32.9165 187.257 32.9607 187.2 33.017C187.143 33.0732 187.098 33.1403 187.067 33.2143C187.035 33.2884 187.02 33.3679 187.02 33.4481V49.525C187.02 50.0592 187.125 50.5882 187.329 51.0817C187.534 51.5751 187.833 52.0233 188.211 52.4005C188.589 52.7777 189.037 53.0766 189.53 53.2799C190.023 53.4833 190.552 53.5872 191.085 53.5856H200.386C200.466 53.5872 200.545 53.5727 200.62 53.5431C200.694 53.5135 200.762 53.4693 200.82 53.413C200.877 53.3568 200.922 53.2897 200.953 53.2157C200.984 53.1416 201 53.0621 201 52.9818V48.8147C201 48.7344 200.984 48.6549 200.953 48.5808C200.922 48.5068 200.877 48.4397 200.82 48.3835C200.762 48.3273 200.694 48.283 200.62 48.2534C200.545 48.2238 200.466 48.2093 200.386 48.2109Z" fill="#202737"/>
<path d="M162.746 52.7687L156.364 35.6027C156.063 34.7926 155.521 34.0941 154.813 33.6009C154.104 33.1077 153.262 32.8434 152.399 32.8434C151.536 32.8434 150.694 33.1077 149.985 33.6009C149.276 34.0941 148.735 34.7926 148.434 35.6027L141.97 52.7806C141.935 52.8732 141.923 52.9729 141.936 53.0711C141.948 53.1692 141.985 53.2628 142.042 53.3435C142.099 53.4242 142.175 53.4895 142.264 53.5338C142.352 53.5781 142.45 53.6 142.549 53.5975H147.063C147.188 53.599 147.31 53.5609 147.412 53.4886C147.514 53.4163 147.59 53.3135 147.63 53.195L148.895 49.6434H155.572L156.825 53.195C156.867 53.3144 156.945 53.4176 157.049 53.4898C157.153 53.5621 157.277 53.5997 157.404 53.5975H162.131C162.229 53.598 162.325 53.5747 162.412 53.5296C162.499 53.4845 162.573 53.4189 162.629 53.3385C162.685 53.2581 162.72 53.1653 162.732 53.0681C162.744 52.9709 162.733 52.8722 162.698 52.7806L162.746 52.7687ZM153.811 44.4817H150.798L152.322 40.1843L153.811 44.4817Z" fill="#202737"/>
<path d="M161.362 15.7139C162.047 15.7021 162.72 15.8948 163.295 16.2675C163.871 16.6401 164.322 17.1758 164.592 17.8063C164.863 18.4369 164.94 19.1337 164.813 19.8081C164.687 20.4826 164.363 21.104 163.883 21.5934C163.402 22.0828 162.788 22.418 162.117 22.5562C161.446 22.6945 160.749 22.6296 160.115 22.3698C159.481 22.11 158.939 21.667 158.557 21.0973C158.175 20.5276 157.971 19.857 157.971 19.1708C157.968 18.2632 158.322 17.391 158.957 16.7437C159.592 16.0964 160.457 15.7264 161.362 15.7139ZM161.362 21.941C161.913 21.9599 162.457 21.8136 162.924 21.5209C163.391 21.2282 163.76 20.8024 163.984 20.2982C164.208 19.7939 164.276 19.2342 164.18 18.6907C164.084 18.1473 163.829 17.6448 163.446 17.2479C163.063 16.8509 162.571 16.5775 162.032 16.4627C161.493 16.3479 160.933 16.397 160.422 16.6036C159.911 16.8102 159.473 17.1649 159.165 17.6223C158.857 18.0797 158.692 18.6189 158.692 19.1708C158.681 19.5296 158.741 19.887 158.87 20.2219C159 20.5568 159.194 20.8623 159.443 21.1206C159.692 21.3788 159.99 21.5844 160.32 21.7253C160.65 21.8663 161.004 21.9396 161.362 21.941ZM160.937 21.0176H160.228V17.2529H161.528C161.69 17.2415 161.853 17.2637 162.006 17.3181C162.159 17.3724 162.299 17.4578 162.418 17.5689C162.536 17.68 162.631 17.8144 162.695 17.9637C162.76 18.113 162.793 18.2741 162.792 18.4368C162.789 18.6858 162.707 18.9275 162.559 19.1273C162.41 19.3271 162.202 19.4749 161.965 19.5496L162.816 21.0176H162.001L161.221 19.6088H160.937V21.0176ZM161.422 18.9932C161.835 18.9932 162.072 18.7919 162.072 18.4486C162.072 18.1053 161.835 17.8804 161.422 17.8804H160.937V18.9932H161.422Z" fill="#202737"/>
</svg>
