<svg width="351" height="75" viewBox="0 0 351 75" fill="none" xmlns="http://www.w3.org/2000/svg">
<path d="M258.48 41.9611C257.155 51.0803 255.849 60.0817 254.529 69.1788H260.122C260.354 67.5434 260.582 65.9439 260.805 64.3444C261.028 62.745 261.247 61.1284 261.469 59.5199C261.696 57.8755 261.913 56.2303 262.161 54.5883C262.396 53.0297 262.488 51.4425 262.874 49.9126H263.12L269.756 69.254C272.26 69.2033 274.639 69.3489 277.049 69.1559C278.379 60.0727 279.693 51.1048 281.021 42.042H275.506C274.57 48.4399 273.637 54.8301 272.705 61.2126L272.436 61.2265C271.993 59.9885 271.545 58.7521 271.109 57.51C269.409 52.6735 267.711 47.8353 266.015 42.9955C265.653 41.9652 265.647 41.9636 264.529 41.9603C262.976 41.9554 261.429 41.9603 259.879 41.9603L258.48 41.9611Z" fill="#002F78"/>
<path d="M324.068 52.8375H320.862C319.866 52.8375 318.87 52.8416 317.874 52.8375C316.857 52.8293 315.841 52.8106 314.696 52.7942C315 50.6362 315.28 48.6517 315.572 46.5837H326.071C326.257 45.0423 326.432 43.5924 326.606 42.154C325.419 41.8883 311.25 41.9251 310.363 42.1933C309.103 51.1326 307.838 60.1013 306.559 69.1665H322.879C323.318 67.6996 323.502 66.1686 323.424 64.6397C320.032 64.5481 316.618 64.7034 313.069 64.5472C313.405 62.1211 313.723 59.8364 314.05 57.4421H323.476C323.679 55.8778 323.864 54.4353 324.068 52.8375Z" fill="#002F78"/>
<path d="M248.901 23.7301C248.266 23.91 247.845 24.031 247.422 24.1471C245.48 24.7637 243.419 24.9103 241.409 24.5748C240.386 24.4584 239.435 23.9879 238.722 23.2447C238.009 22.5015 237.578 21.5324 237.504 20.505C237.032 17.1105 237.711 13.6556 239.432 10.6924C240.235 9.15423 241.494 7.90253 243.037 7.10945C244.58 6.31637 246.33 6.02089 248.048 6.26366C249.356 6.37896 250.652 6.66352 252.054 6.88676C252.455 5.43776 252.863 3.9634 253.251 2.56347C253.094 2.39993 253.054 2.32225 252.994 2.29935C252.787 2.22169 252.576 2.15779 252.361 2.10802C249.84 1.51317 247.225 1.42561 244.67 1.85044C242.491 2.20792 240.423 3.05751 238.623 4.33463C236.822 5.61175 235.337 7.28276 234.279 9.22052C232.143 12.9309 231.215 17.2145 231.624 21.4765C231.965 25.6983 234.445 28.3804 238.608 29.2014C240.611 29.5586 242.658 29.5805 244.668 29.266C246.005 29.14 247.317 28.8256 248.565 28.3322C248.675 26.8423 248.781 25.3811 248.901 23.7301Z" fill="#002F78"/>
<path d="M303.847 25.0057C303.239 25.0875 302.843 25.1562 302.446 25.1856C302.041 25.2192 301.635 25.2275 301.229 25.2102C300.084 25.1537 299.632 24.6729 299.668 23.5281C299.687 23.0485 299.742 22.571 299.831 22.0996C300.188 20.1371 300.554 18.1789 300.93 16.2251C301.136 15.1522 301.363 14.0827 301.597 12.9297H306.294C306.557 11.6213 306.803 10.4062 307.082 9.01772H302.393C302.444 8.532 302.457 8.20492 302.515 7.88682C302.816 6.25139 303.133 4.62413 303.431 2.99115C303.492 2.65098 303.492 2.301 303.532 1.82754C301.92 2.13991 300.472 2.39994 299.035 2.71967C298.779 2.82971 298.575 3.03285 298.463 3.28799C298.359 3.56383 298.293 3.85231 298.266 4.14576C297.951 5.73131 297.638 7.31769 297.3 9.03245H293.924C293.651 10.3776 293.403 11.5903 293.12 12.9828H296.48C296.439 13.3917 296.433 13.6517 296.385 13.9003C295.869 16.656 295.308 19.4052 294.843 22.1699C294.616 23.4382 294.506 24.7247 294.516 26.0132C294.489 26.8209 294.765 27.6093 295.291 28.2231C295.816 28.8369 296.553 29.2315 297.355 29.329C299.182 29.6239 301.051 29.5463 302.847 29.1009C302.981 29.0636 303.103 28.9954 303.205 28.9018C303.307 28.8081 303.385 28.6917 303.434 28.562C303.611 27.4433 303.706 26.3108 303.847 25.0057Z" fill="#002F78"/>
<path d="M285.948 9.02755C283.187 8.89709 280.419 9.00461 277.676 9.34892C277.396 10.3581 277.227 11.3948 277.173 12.4407C278.266 12.6983 279.36 12.5691 280.416 13.0409C279.48 18.3994 278.338 23.6713 277.423 29.033H282.346C282.622 27.5611 282.874 26.1489 283.154 24.7449C283.663 21.6416 284.821 18.6806 286.552 16.055C287.696 14.4302 289.053 13.1047 291.388 13.4694C291.733 11.8528 292.065 10.2934 292.407 8.69146C291.612 8.49425 290.78 8.50237 289.989 8.71507C289.198 8.92776 288.474 9.33805 287.885 9.90741C286.851 10.9115 285.979 12.0701 285.3 13.3418C285.099 13.6845 284.891 14.0246 284.693 14.3656L284.538 14.3026C284.989 12.6165 285.44 10.932 285.948 9.02755Z" fill="#002F78"/>
<path d="M329.047 4.12452C328.72 3.13508 328.708 2.06059 328.121 1.0597C326.297 2.38277 324.536 2.10475 322.784 1.07033C322.435 0.864992 322.074 0.679089 321.703 0.51347C320.774 0.0941287 319.75 -0.0729163 318.736 0.0291479C317.721 0.131212 316.752 0.498783 315.924 1.09487C315.609 1.29275 315.292 1.50374 315.403 1.96738C315.614 2.84561 315.82 3.72546 316.047 4.69037C316.389 4.49003 316.608 4.3633 316.828 4.2341C317.366 3.90588 317.979 3.72173 318.609 3.69939C319.24 3.67705 319.865 3.81727 320.425 4.10653C320.858 4.31076 321.278 4.54237 321.681 4.79995C322.826 5.46999 324.152 5.76513 325.472 5.64402C326.793 5.5229 328.043 4.99159 329.047 4.12452Z" fill="#002F78"/>
<path d="M280.662 69.1658C281.942 60.0679 283.204 51.0942 284.47 42.0993C284.701 42.0386 284.936 41.997 285.173 41.975C288.234 41.9799 291.295 41.9611 294.354 42.02C296.056 42.071 297.73 42.4602 299.279 43.1648C300.729 43.7814 302.017 44.7255 303.041 45.9232C304.065 47.1209 304.798 48.5395 305.182 50.068C306.057 53.0603 306.104 56.2343 305.316 59.2509C303.934 64.544 300.375 67.5663 295.147 68.7144C293.742 69.0124 292.311 69.1767 290.875 69.205C287.816 69.2868 284.754 69.2451 281.693 69.2492C281.406 69.2475 281.117 69.2042 280.662 69.1658ZM287.179 64.5277C289.333 64.7594 291.512 64.5906 293.605 64.0297C294.965 63.6583 296.203 62.9341 297.194 61.9302C298.185 60.9263 298.892 59.6785 299.246 58.313C299.779 56.4247 299.921 54.4475 299.664 52.5023C299.564 51.4096 299.166 50.3653 298.514 49.4832C297.861 48.6011 296.979 47.915 295.964 47.4995C293.974 46.6777 291.804 46.3894 289.669 46.663C288.842 52.5849 288.021 58.4815 287.179 64.5309L287.179 64.5277Z" fill="#002F78"/>
<path d="M249.302 55.0806C249.685 55.3038 250.008 55.4731 250.311 55.6734C251.077 56.1971 251.71 56.8918 252.161 57.7026C252.612 58.5134 252.868 59.4181 252.909 60.345C253.31 64.1343 251.678 66.7625 248.124 68.1428C246.506 68.7759 244.791 69.1261 243.055 69.178C239.92 69.2663 236.783 69.2451 233.646 69.2598C233.351 69.2341 233.058 69.1879 232.768 69.1216C234.029 60.064 235.282 51.0418 236.529 42.0551C236.792 42.0085 237.056 41.9761 237.322 41.9579C240.2 41.9644 243.079 41.9619 245.956 41.9995C247.215 42.0294 248.455 42.3139 249.6 42.8361C250.795 43.3145 251.813 44.15 252.515 45.2286C253.218 46.3072 253.57 47.5763 253.525 48.8626C253.568 50.0546 253.258 51.2329 252.635 52.2496C252.011 53.2663 251.101 54.0762 250.019 54.5777C249.825 54.6823 249.628 54.7813 249.435 54.8868C249.411 54.9047 249.396 54.944 249.302 55.0806ZM239.039 64.535C240.292 64.535 241.386 64.5906 242.473 64.5186C243.544 64.501 244.595 64.2202 245.533 63.7009C246.923 62.853 247.189 61.5373 247.031 60.0605C246.98 59.4854 246.746 58.9418 246.363 58.5095C245.981 58.0772 245.47 57.7791 244.905 57.6588C243.314 57.2308 241.654 57.1246 240.021 57.3464L239.039 64.535ZM240.685 52.7443C242.634 52.8703 244.407 52.8883 246.093 52.0902C246.353 51.9529 246.596 51.7867 246.819 51.5946C248.039 50.6305 248.256 47.6066 246.095 46.9476C244.612 46.5797 243.073 46.489 241.557 46.6801L240.685 52.7443Z" fill="#002F78"/>
<path d="M214.05 60.1275C213.835 58.1739 213.024 56.3339 211.726 54.8578C210.429 53.3817 208.708 52.3411 206.799 51.8775C202.637 50.6984 199.076 51.9062 196.194 55.1362C195.715 55.6589 195.463 56.3502 195.492 57.0586C195.517 61.0147 195.501 64.9716 195.506 68.9278C195.506 69.272 195.552 69.6163 195.579 70.0072C195.93 70.0431 196.202 70.0947 196.478 70.0955C200.648 70.0955 204.818 70.0873 208.981 70.1053C209.513 70.113 210.027 69.917 210.419 69.5574C211.822 68.4625 212.901 67.0067 213.541 65.3457C214.18 63.6847 214.357 61.881 214.05 60.1275ZM195.573 41.2562V52.6674C196.666 51.5725 197.6 50.6354 198.535 49.7008C199.484 48.7511 200.434 47.802 201.384 46.8535C202.358 45.8796 203.326 44.8991 204.309 43.9342C205.253 43.0078 206.141 42.0175 207.049 41.2244L224.437 58.6507C223.774 59.3122 223.03 60.0531 222.287 60.7956C221.512 61.5691 220.737 62.343 219.963 63.1171C219.214 63.8669 218.469 64.62 217.72 65.3707C216.946 66.1459 216.157 66.9056 215.397 67.6938C214.601 68.4117 213.863 69.1909 213.189 70.0243H224.561V41.2162C223.379 40.9676 196.463 41.0044 195.575 41.257L195.573 41.2562Z" fill="#196D33"/>
<path d="M344.793 42.796L343.769 47.5216C343.364 47.3776 343.064 47.2836 342.774 47.1659C341.153 46.4348 339.383 46.0956 337.607 46.1756C336.801 46.2298 336.011 46.4235 335.272 46.748C334.93 46.8741 334.623 47.0812 334.379 47.3516C334.134 47.622 333.959 47.9476 333.867 48.3006C333.776 48.6535 333.772 49.0234 333.855 49.3785C333.937 49.7336 334.105 50.0633 334.343 50.3394C334.797 50.918 335.345 51.4171 335.963 51.8162C336.842 52.4205 337.825 52.8727 338.707 53.4737C339.76 54.1492 340.757 54.9077 341.689 55.7421C342.349 56.3665 342.875 57.119 343.234 57.9536C343.593 58.7882 343.779 59.6874 343.779 60.5961C343.823 61.4798 343.781 62.3658 343.653 63.2414C343.468 64.3389 343.022 65.3758 342.352 66.2641C341.681 67.1524 340.807 67.8658 339.802 68.3439C338.45 69.0324 336.98 69.4565 335.469 69.5934C332.078 69.9307 328.655 69.4649 325.477 68.2336C325.413 68.209 325.364 68.1436 325.204 68.0128C325.562 66.4746 325.934 64.8809 326.331 63.1735C327.017 63.458 327.552 63.6911 328.094 63.9046C329.741 64.6653 331.533 65.0579 333.346 65.0551C334.118 65.0249 334.879 64.8688 335.6 64.5931C336.162 64.3944 336.66 64.0512 337.046 63.5982C337.433 63.1452 337.692 62.5982 337.8 62.0127C337.907 61.4271 337.858 60.8237 337.658 60.2631C337.457 59.7025 337.113 59.2047 336.658 58.82C335.954 58.2276 335.193 57.7053 334.386 57.2606C333.319 56.6064 332.174 56.0659 331.146 55.3578C329.824 54.5175 328.809 53.2715 328.255 51.8063C327.7 50.3412 327.635 48.7358 328.069 47.2305C328.275 46.3663 328.654 45.5526 329.183 44.8386C329.712 44.1246 330.379 43.5249 331.146 43.0756C332.434 42.2689 333.894 41.7751 335.408 41.634C338.165 41.3121 340.959 41.5522 343.621 42.3397C343.968 42.4452 344.298 42.6005 344.793 42.796Z" fill="#002F78"/>
<path d="M264.468 29.1115C264.76 27.0615 265.497 25.2134 265.858 23.237C265.701 23.4545 265.549 23.6769 265.384 23.8912C264.502 25.0221 263.684 26.2127 262.712 27.2626C261.636 28.451 260.185 29.235 258.601 29.4843C256.23 29.8638 253.953 29.0166 253.254 26.0982C252.775 23.7403 252.829 21.3052 253.413 18.971C253.756 17.3047 254.393 15.7127 255.293 14.2691C256.316 12.5429 257.776 11.1172 259.526 10.136C261.277 9.15481 263.255 8.65285 265.261 8.68082C267.534 8.62767 269.817 8.93349 272.095 9.08968C272.378 9.14585 272.656 9.23107 272.922 9.34399C271.929 14.6093 270.941 19.8386 269.932 25.1848L273.129 25.6754C273.137 26.6067 272.995 27.5332 272.709 28.4197C272.659 28.5297 272.583 28.6262 272.488 28.701C272.392 28.7758 272.281 28.8268 272.162 28.8498C269.609 29.1469 267.036 29.2344 264.468 29.1115ZM267.238 12.9591C264.815 12.2984 262.683 12.5404 260.997 14.3304C258.56 16.9201 257.862 20.1239 258.212 23.56C258.372 25.121 259.499 25.6313 260.854 24.7964C261.696 24.2697 262.441 23.6019 263.056 22.8224C265.041 20.2827 266.407 17.3148 267.044 14.1546C267.122 13.8022 267.163 13.4407 267.238 12.9591Z" fill="#002F78"/>
<path d="M327.666 9.34892C326.665 14.6134 325.678 19.8157 324.66 25.1775L327.965 25.7016L327.419 28.7329C324.707 29.1154 321.965 29.2493 319.229 29.1328C319.503 27.0517 320.258 25.184 320.594 23.192C320.394 23.4889 320.213 23.7996 319.989 24.0793C319.071 25.2241 318.207 26.4294 317.192 27.4875C316.136 28.5951 314.73 29.3045 313.212 29.4958C310.824 29.8131 308.691 28.9414 308.035 26.1637C307.495 23.5511 307.598 20.8462 308.336 18.2825C308.52 17.5685 308.761 16.8704 309.057 16.1949C311.114 11.421 314.772 8.8632 319.942 8.68248C322.225 8.69754 324.507 8.83127 326.776 9.08315C327.081 9.14066 327.379 9.22974 327.666 9.34892ZM321.985 12.9469C319.494 12.2927 317.345 12.5642 315.655 14.4106C313.29 16.9921 312.601 20.1526 312.943 23.538C313.103 25.1121 314.16 25.5651 315.573 24.8504C316.51 24.3292 317.314 23.5971 317.92 22.7121C319.73 20.2856 321.022 17.5124 321.714 14.5651C321.836 14.0729 321.884 13.5642 321.985 12.9469Z" fill="#002F78"/>
<path d="M351 16.1564C350.9 20.1199 349.708 23.5641 346.839 26.2764C345.46 27.6244 343.763 28.6037 341.906 29.1242C340.049 29.6448 338.09 29.6899 336.211 29.2554C333.186 28.6666 331.495 26.9601 331.169 23.8928C330.689 19.3578 331.741 15.2127 335.088 11.9223C336.492 10.4895 338.254 9.45917 340.192 8.93831C342.129 8.41746 344.17 8.42512 346.104 8.9605C347.423 9.2161 348.618 9.91024 349.493 10.9303C350.369 11.9504 350.874 13.2364 350.927 14.5798C350.981 15.1293 350.98 15.6846 351 16.1564ZM345.709 16.8261C345.709 16.6045 345.714 16.3837 345.709 16.1629C345.636 14.032 344.482 12.9313 342.341 12.9583C341.508 12.9776 340.693 13.2023 339.967 13.6124C339.242 14.0225 338.629 14.6054 338.183 15.3092C336.805 17.2488 336.138 19.6049 336.296 21.9793C336.389 24.1692 337.761 25.3394 339.942 25.1186C340.75 25.0318 341.529 24.7644 342.221 24.3363C342.913 23.9081 343.5 23.3302 343.939 22.645C345.117 20.9369 345.736 18.9046 345.709 16.8294V16.8261Z" fill="#002F78"/>
<path d="M150.192 75C157.942 75 164.224 68.7163 164.224 60.9651C164.224 53.2138 157.942 46.9301 150.192 46.9301C142.442 46.9301 136.16 53.2138 136.16 60.9651C136.16 68.7163 142.442 75 150.192 75Z" fill="#1D1D1B"/>
<path d="M145.724 62.4447L145.637 62.3871C145.366 62.8115 144.971 63.142 144.505 63.3337C143.569 63.7409 142.702 63.6365 142.079 63.0907L142.022 63.1781L140.956 64.7686C141.223 64.9529 141.508 65.108 141.808 65.2312C142.788 65.6254 143.873 65.6711 144.882 65.3606C145.891 65.0501 146.762 64.4023 147.351 63.5256L145.733 62.4425L145.724 62.4447ZM145.893 57.0294C145.259 56.64 144.541 56.4087 143.799 56.3549C143.057 56.3011 142.313 56.4264 141.629 56.7203C140.535 57.227 139.681 58.1403 139.249 59.2664C138.817 60.3925 138.84 61.6427 139.314 62.7517C139.407 62.9621 139.514 63.1665 139.632 63.3636L147.96 59.7392C147.911 59.6176 147.86 59.4705 147.803 59.3362C147.34 58.2681 146.741 57.5155 145.893 57.0294ZM141.016 60.9651C140.946 60.4613 141.045 59.9486 141.297 59.507C141.549 59.0654 141.94 58.7197 142.41 58.5239C143.546 58.0357 144.484 58.3107 145.204 59.1635L141.016 60.9651ZM150.868 63.2207V54.3772H148.902V63.242C148.891 63.6276 148.993 64.0081 149.197 64.3358C149.378 64.6179 149.638 64.8403 149.945 64.9754L151.46 65.615L152.24 63.7921L150.868 63.2207Z" fill="white"/>
<path d="M154.428 60.9651C154.427 60.6079 154.502 60.2545 154.649 59.929C154.796 59.6035 155.012 59.3134 155.281 59.0783L153.869 57.507C153.38 57.9405 152.988 58.4729 152.72 59.069C152.452 59.6651 152.313 60.3114 152.313 60.9651C152.313 61.6188 152.452 62.2651 152.72 62.8612C152.988 63.4573 153.38 63.9897 153.869 64.4232L155.279 62.8498C155.01 62.6148 154.795 62.325 154.649 61.9998C154.502 61.6747 154.427 61.3218 154.428 60.9651Z" fill="#00A0DD"/>
<path d="M156.932 63.4744C156.662 63.4734 156.394 63.4295 156.137 63.3444L155.463 65.3463C156.083 65.5536 156.739 65.6272 157.39 65.5623C158.04 65.4974 158.669 65.2954 159.235 64.9697C159.801 64.6439 160.292 64.2018 160.675 63.6725C161.058 63.1432 161.325 62.5387 161.457 61.8989L159.388 61.4725C159.271 62.0379 158.964 62.5459 158.516 62.9106C158.069 63.2754 157.509 63.4745 156.932 63.4744Z" fill="#E53212"/>
<path d="M156.939 56.3493C156.441 56.3488 155.947 56.428 155.474 56.5838L156.141 58.5879C156.478 58.4762 156.834 58.4371 157.187 58.4732C157.54 58.5094 157.881 58.62 158.188 58.7977C158.495 58.9754 158.761 59.2161 158.968 59.5041C159.175 59.7921 159.319 60.1207 159.39 60.4683L161.46 60.0419C161.246 59.0001 160.679 58.064 159.856 57.3913C159.032 56.7187 158.002 56.3506 156.939 56.3493Z" fill="#FFCB00"/>
<path fill-rule="evenodd" clip-rule="evenodd" d="M97.5949 52.9253H93.5449C91.7522 53.0085 90.2878 53.7312 89.8636 55.2193C89.6505 55.9975 89.5226 56.8503 89.3499 57.6541C88.4738 61.7475 87.6958 65.9539 86.8559 69.9664H118.433C120.874 69.9664 122.552 69.4504 123.003 67.5103C123.217 66.6106 123.415 65.5915 123.617 64.6023C124.402 60.7455 125.188 56.8887 125.992 52.9253H97.5949Z" fill="#C40000"/>
<path fill-rule="evenodd" clip-rule="evenodd" d="M97.2795 58.9802C97.4479 58.865 97.6674 58.3406 97.418 58.1103C97.3605 58.0717 97.295 58.0463 97.2265 58.0359C97.1579 58.0256 97.0879 58.0306 97.0215 58.0506C96.9562 58.0562 96.8927 58.075 96.8349 58.1057C96.777 58.1365 96.7259 58.1787 96.6848 58.2297C96.5782 58.3747 96.4716 58.816 96.6464 58.9802C96.8212 59.1443 97.1708 59.0463 97.2795 58.9802ZM94.8558 58.1103C94.7343 58.8992 94.5979 59.6731 94.4594 60.4449C93.579 60.4555 92.6795 60.4896 91.829 60.4257C91.9889 59.6688 92.104 58.8672 92.2553 58.1103H91.3046C90.9657 60.0291 90.6651 61.9991 90.2772 63.8902H91.2449C91.3984 62.9201 91.5412 61.9415 91.7416 61.0205C92.6117 60.9777 93.4834 60.9841 94.3528 61.0397C94.1887 61.9969 93.9904 62.9201 93.8391 63.8902H94.8068C95.1202 61.9308 95.4463 59.9907 95.8364 58.1103H94.8558ZM108.568 59.7733C107.816 59.4684 107.221 59.9865 106.946 60.4662C107.01 60.253 107.036 59.9993 107.085 59.7733H106.332C106.149 61.1996 105.878 62.5449 105.62 63.8902H106.473C106.592 63.0864 106.646 62.0055 106.91 61.238C107.123 60.6239 107.673 60.1016 108.472 60.3852C108.498 60.1592 108.556 59.9865 108.577 59.7733H108.568ZM109.044 62.9201C108.966 62.6633 108.94 62.394 108.965 62.127C109.01 61.5556 109.219 60.8606 109.538 60.5451C109.984 60.1187 110.858 60.1805 111.557 60.4257C111.578 60.1911 111.627 59.9801 111.657 59.752C110.51 59.5665 109.423 59.6816 108.845 60.2871C108.268 60.8926 107.92 62.2443 108.183 63.0971C108.487 64.0991 109.86 64.163 110.973 63.7708C111.022 63.5682 111.047 63.3444 111.09 63.1312C110.485 63.4531 109.323 63.6173 109.052 62.9201H109.044ZM118.602 59.7925C117.849 59.4172 117.225 60.0483 116.98 60.4321C117.05 60.238 117.052 59.9779 117.118 59.7797H116.385C116.182 61.1939 115.938 62.5662 115.654 63.8966H116.523C116.55 63.3946 116.616 62.8955 116.722 62.4042C116.903 61.2614 117.171 60.0099 118.504 60.3852C118.536 60.1933 118.555 59.9737 118.61 59.7925H118.602ZM96.3991 59.7733C96.3757 59.7733 96.3778 59.8031 96.3799 59.833C96.1924 61.2337 95.9387 62.5705 95.668 63.8838H96.5206C96.7338 62.4703 96.9597 61.0887 97.2518 59.7669L96.3991 59.7733ZM103.879 59.6944C103.265 59.7413 102.745 59.9182 102.387 60.3063C101.933 60.7838 101.566 61.8392 101.675 62.8007C101.826 64.1716 103.534 64.1225 104.9 63.79C104.923 63.549 104.981 63.3444 105.017 63.1184C104.457 63.3316 103.478 63.6215 102.9 63.257C102.463 62.9798 102.461 62.2805 102.604 61.6729C103.521 61.643 104.476 61.6494 105.394 61.6729C105.452 61.2465 105.618 60.7732 105.473 60.3468C105.279 59.7839 104.589 59.639 103.887 59.6859L103.879 59.6944ZM104.691 61.1975H102.7C102.745 60.9276 102.882 60.6816 103.087 60.5012C103.293 60.3209 103.554 60.2173 103.828 60.2082C104.448 60.1848 104.874 60.4321 104.7 61.1975H104.691ZM100.654 59.7733C99.9333 59.5025 99.0551 59.8244 98.6757 60.1315C98.6757 60.1464 98.6757 60.1485 98.6543 60.1485L98.6757 60.1315C98.6757 59.9993 98.729 59.9076 98.7353 59.7754H98.0106C97.7058 61.8051 97.3434 63.7793 96.9619 65.7322H97.8145C97.9381 64.9711 98.0277 64.1694 98.1918 63.4552C98.3858 64.2057 99.6541 64.0628 100.189 63.7729C101.293 63.1738 102.144 60.3255 100.662 59.7733H100.654ZM99.9802 63.1184C99.5262 63.6002 98.4071 63.5917 98.3197 62.7815C98.2813 62.4276 98.4113 62.0588 98.4774 61.6921C98.5435 61.3254 98.5904 60.9672 98.6543 60.6431C99.1041 60.0952 100.421 60.0291 100.556 60.9395C100.679 61.7304 100.366 62.7176 99.9887 63.1184H99.9802ZM121.778 57.9909C121.703 58.6305 121.607 59.2467 121.479 59.833C119.393 59.1721 118.114 60.7071 118.135 62.6046C118.114 62.9593 118.219 63.3101 118.433 63.5938C118.828 64.0415 119.96 64.1481 120.531 63.7729C120.644 63.689 120.743 63.5892 120.827 63.4766C120.883 63.4062 120.97 63.225 120.985 63.2783C120.944 63.4808 120.918 63.686 120.906 63.8923H121.678C121.827 61.7603 122.287 59.9353 122.628 57.9931L121.778 57.9909ZM119.876 63.4339C119.305 63.4467 119.024 63.0928 119.007 62.5044C118.983 61.4746 119.433 60.3297 120.352 60.2274C120.709 60.1955 121.069 60.2496 121.401 60.3852C121.113 61.5428 121.217 63.4062 119.876 63.4339ZM112.535 59.7733C112.495 60.0078 112.429 60.221 112.378 60.4449C112.878 60.3191 114.443 59.9332 114.594 60.6048C114.622 60.8231 114.587 61.0448 114.494 61.2444C113.081 61.11 111.936 61.3446 111.625 62.353C111.423 63.0267 111.649 63.6898 112.081 63.8752C112.913 64.2334 113.927 63.8241 114.277 63.2634C114.231 63.4733 114.211 63.6881 114.217 63.903H114.95C114.967 63.2641 115.038 62.6278 115.164 62.0012C115.255 61.4639 115.428 60.9352 115.4 60.4576C115.343 59.3597 113.544 59.7434 112.535 59.7733ZM113.921 63.0971C113.482 63.5235 112.252 63.6493 112.378 62.6238C112.482 61.771 113.409 61.5897 114.415 61.7113C114.341 62.1782 114.253 62.7709 113.921 63.0971Z" fill="white"/>
<path d="M57.5743 52.9253C59.5472 52.9244 61.4593 53.6078 62.9849 54.859C64.5104 56.1102 65.5549 57.8519 65.9403 59.7871C66.3258 61.7223 66.0284 63.7313 65.0987 65.4717C64.1691 67.2122 62.6648 68.5763 60.8422 69.3317C59.0196 70.0871 56.9915 70.1869 55.1036 69.6142C53.2157 69.0415 51.5847 67.8317 50.4887 66.1909C49.3927 64.5502 48.8995 62.5801 49.0931 60.6164C49.2867 58.6527 50.1552 56.8169 51.5505 55.4219C53.1484 53.8243 55.315 52.9264 57.5743 52.9253Z" fill="#FF000D"/>
<path d="M68.1492 52.9253C70.1196 52.9234 72.0296 53.605 73.5539 54.8539C75.0781 56.1029 76.1221 57.8418 76.508 59.7744C76.894 61.707 76.5979 63.7136 75.6703 65.4523C74.7427 67.191 73.241 68.5542 71.4211 69.3095C69.6011 70.0649 67.5757 70.1656 65.6898 69.5946C63.8039 69.0235 62.1744 67.8161 61.079 66.1779C59.9835 64.5398 59.4899 62.5725 59.6822 60.6111C59.8746 58.6498 60.741 56.8158 62.1338 55.4219C63.7289 53.8252 65.8925 52.9272 68.1492 52.9253Z" fill="#FFAA00"/>
<path d="M59.6442 61.4448C59.6427 62.727 59.9313 63.993 60.4883 65.1479C61.0454 66.3028 61.8564 67.3167 62.8607 68.1136C63.8686 67.3174 64.6831 66.3031 65.243 65.147C65.803 63.9909 66.0939 62.723 66.0939 61.4384C66.0939 60.1537 65.803 58.8858 65.243 57.7297C64.6831 56.5736 63.8686 55.5594 62.8607 54.7631C61.8562 55.5627 61.0453 56.579 60.4883 57.7359C59.9313 58.8929 59.6428 60.1607 59.6442 61.4448Z" fill="#FF5B00"/>
<path d="M11.3422 55.3579L8.2855 63.6088L7.9615 61.9863C7.18711 59.8612 5.64898 58.1008 3.64716 57.0486L6.44594 67.4954H9.74565L14.6483 55.3217L11.3422 55.3579ZM32.7882 62.6707L34.0458 58.735L34.9922 62.6707H32.7882ZM36.4247 55.4091H33.9648C33.6228 55.367 33.2765 55.4396 32.9803 55.6156C32.684 55.7915 32.4545 56.0608 32.3277 56.3813L27.7107 67.5039H30.9827L31.8886 65.0969H35.5337L36.0069 67.5167H38.8866L36.4247 55.4091ZM25.3638 60.3127C24.2831 59.7733 23.6074 59.4066 23.6074 58.8523C23.6074 58.298 24.1744 57.8374 25.4043 57.8374C26.1887 57.8417 26.9632 58.0125 27.6766 58.3385L27.9601 58.46L28.4077 55.8781C27.511 55.5471 26.5627 55.3775 25.6068 55.3771C22.4968 55.3771 20.2928 56.9868 20.2928 59.2723C20.2928 60.9629 21.8488 61.8946 22.9978 62.4703C24.1467 63.0459 24.6199 63.4169 24.6199 63.9307C24.6199 64.7153 23.633 65.0798 22.742 65.0798C21.733 65.1015 20.7331 64.8845 19.8238 64.4466L19.3975 64.259L18.9712 66.8963C20.0791 67.3251 21.2577 67.542 22.4457 67.5359C25.7177 67.5359 27.8535 65.9539 27.8535 63.4851C27.8535 62.1313 27.0286 61.1186 25.2317 60.2871L25.3638 60.3127ZM15.8996 55.3622L13.9513 67.5359H17.0762L19.0223 55.3622H15.8996Z" fill="#0040E0"/>
<path d="M6.93407 56.9824C6.83702 56.5177 6.58113 56.1013 6.2104 55.8048C5.83968 55.5083 5.37727 55.3503 4.90266 55.3578H0V55.635C1.73138 56.0497 3.34739 56.8484 4.72844 57.9722C6.1095 59.0959 7.22026 60.5158 7.97855 62.1269L6.93407 56.9824Z" fill="#FFA300"/>
<path fill-rule="evenodd" clip-rule="evenodd" d="M14.3283 9.36574H25.5488C31.5733 9.36574 33.8411 12.4162 33.4907 16.8977C32.9114 24.2965 28.4394 28.3898 22.5076 28.3898H19.5128C18.6989 28.3898 18.1515 28.9286 17.9314 30.3887L16.6599 38.8767C16.5759 39.4271 16.2862 39.7458 15.8518 39.7892H8.80201C8.13874 39.7892 7.90413 39.2822 8.07791 38.1843L12.3761 10.9735C12.5441 9.88429 13.1408 9.36574 14.3283 9.36574Z" fill="#00B1FF"/>
<path fill-rule="evenodd" clip-rule="evenodd" d="M63.0424 8.86168C66.828 8.86168 70.321 10.9156 69.8431 16.0345C69.2638 22.118 66.0054 25.4842 60.8643 25.4987H56.372C55.7262 25.4987 55.4134 26.0259 55.2454 27.1065L54.3765 32.6309C54.2461 33.4652 53.8174 33.8766 53.186 33.8766H49.0066C48.3404 33.8766 48.1087 33.4507 48.2564 32.4977L51.706 10.3565C51.8769 9.26725 52.2853 8.86168 53.0296 8.86168H63.0337H63.0424ZM56.2359 20.7159H59.6392C61.768 20.6348 63.1814 19.1602 63.3233 16.5009C63.4102 14.8583 62.3009 13.6822 60.537 13.6908L57.3336 13.7053L56.2359 20.7159ZM81.2055 32.1819C81.5879 31.8343 81.976 31.6547 81.9209 32.0834L81.7848 33.1089C81.7153 33.6448 81.9267 33.9287 82.4249 33.9287H86.1381C86.7637 33.9287 87.0678 33.6767 87.2213 32.7091L89.5094 18.3462C89.6253 17.6249 89.4486 17.2714 88.9012 17.2714H84.8173C84.4495 17.2714 84.2699 17.4771 84.1743 18.0391L84.0237 18.9227C83.9455 19.3833 83.7341 19.4644 83.5371 19.0009C82.8449 17.3612 81.0781 16.6254 78.6133 16.6834C72.8872 16.8021 69.0263 21.1504 68.6121 26.7241C68.2935 31.0347 71.381 34.4212 75.4533 34.4212C78.4076 34.4212 79.7284 33.5521 81.2171 32.1906L81.2055 32.1819ZM78.0948 29.9715C75.63 29.9715 73.9125 28.0045 74.2687 25.5943C74.625 23.1841 76.9305 21.217 79.3953 21.217C81.8601 21.217 83.5777 23.1841 83.2214 25.5943C82.8652 28.0045 80.5625 29.9715 78.0948 29.9715ZM96.7764 17.2251H93.0112C92.2349 17.2251 91.9192 17.8045 92.1654 18.5171L96.8402 32.208L92.2552 38.7231C91.87 39.2678 92.1683 39.7631 92.7099 39.7631H96.9415C97.1881 39.7917 97.4378 39.7487 97.6606 39.6393C97.8835 39.5299 98.0702 39.3587 98.1986 39.1461L112.576 18.52C113.019 17.8856 112.811 17.2193 112.084 17.2193H108.078C107.392 17.2193 107.116 17.4916 106.723 18.0623L100.727 26.7531L98.0479 18.042C97.8915 17.5148 97.5005 17.2251 96.7793 17.2251H96.7764Z" fill="#003BA9"/>
<path fill-rule="evenodd" clip-rule="evenodd" d="M127.533 8.86168C131.319 8.86168 134.812 10.9156 134.334 16.0345C133.754 22.118 130.496 25.4842 125.355 25.4987H120.866C120.22 25.4987 119.907 26.0259 119.739 27.1065L118.87 32.6309C118.74 33.4652 118.311 33.8766 117.68 33.8766H113.5C112.834 33.8766 112.602 33.4508 112.75 32.4977L116.205 10.3507C116.376 9.26145 116.785 8.85588 117.529 8.85588H127.533V8.86168ZM120.727 20.7159H124.13C126.259 20.6348 127.672 19.1602 127.814 16.5009C127.901 14.8583 126.792 13.6822 125.028 13.6908L121.824 13.7053L120.727 20.7159ZM145.696 32.1819C146.079 31.8343 146.467 31.6547 146.412 32.0834L146.275 33.1089C146.206 33.6448 146.417 33.9287 146.916 33.9287H150.629C151.254 33.9287 151.558 33.6767 151.712 32.7091L154 18.3462C154.116 17.6249 153.939 17.2714 153.392 17.2714H149.314C148.946 17.2714 148.766 17.4771 148.671 18.0391L148.52 18.9227C148.442 19.3833 148.231 19.4644 148.034 19.0009C147.341 17.3612 145.575 16.6254 143.11 16.6834C137.384 16.8021 133.523 21.1504 133.109 26.7241C132.79 31.0347 135.877 34.4212 139.95 34.4212C142.904 34.4212 144.225 33.5521 145.714 32.1906L145.696 32.1819ZM142.588 29.9715C140.124 29.9715 138.406 28.0045 138.762 25.5943C139.119 23.1841 141.424 21.217 143.889 21.217C146.354 21.217 148.071 23.1841 147.715 25.5943C147.359 28.0045 145.053 29.9715 142.588 29.9715ZM159.715 33.9519H155.428C155.353 33.9552 155.279 33.9421 155.21 33.9133C155.141 33.8846 155.08 33.841 155.03 33.7856C154.979 33.7303 154.942 33.6646 154.92 33.5931C154.899 33.5217 154.893 33.4464 154.904 33.3725L158.669 9.51349C158.705 9.35065 158.795 9.20478 158.924 9.09958C159.054 8.99439 159.215 8.93607 159.382 8.9341H163.668C163.743 8.93077 163.817 8.94394 163.886 8.97268C163.955 9.00143 164.017 9.04503 164.067 9.10038C164.117 9.15573 164.154 9.22146 164.176 9.29287C164.197 9.36428 164.203 9.43961 164.192 9.51349L160.427 33.3725C160.392 33.5364 160.303 33.6836 160.173 33.79C160.044 33.8963 159.882 33.9555 159.715 33.9577V33.9519Z" fill="#00B1FF"/>
<path fill-rule="evenodd" clip-rule="evenodd" d="M7.31044 0H18.5426C21.7054 0 25.4591 0.101392 27.9674 2.31754C29.6444 3.79786 30.5249 6.15306 30.3221 8.69076C29.6328 17.2685 24.5033 22.0745 17.6215 22.0745H12.0837C11.1394 22.0745 10.5167 22.7003 10.2503 24.3921L8.7036 34.2416C8.60222 34.8789 8.32707 35.2555 7.83468 35.3019H0.90367C0.136131 35.3019 -0.13613 34.7225 0.0637192 33.4421L5.04548 1.87141C5.24533 0.602557 5.94335 0 7.31044 0Z" fill="#003BA9"/>
<path fill-rule="evenodd" clip-rule="evenodd" d="M10.4125 23.3926L12.3733 10.9735C12.5442 9.8843 13.1409 9.36285 14.3284 9.36285H25.5489C27.4055 9.36285 28.9087 9.65254 30.0846 10.1885C28.958 17.8248 24.0196 22.0658 17.5549 22.0658H12.0258C11.2843 22.0687 10.7398 22.4396 10.4125 23.3926Z" fill="#00228E"/>
</svg>
