<svg width="97" height="17" viewBox="0 0 97 17" fill="none" xmlns="http://www.w3.org/2000/svg">
<path d="M11.4311 4.45357H8.52013C8.48728 4.44876 8.45376 4.45165 8.42222 4.46203C8.39068 4.47241 8.36199 4.48999 8.33842 4.51336C8.31485 4.53674 8.29704 4.56529 8.2864 4.59674C8.27576 4.62819 8.27259 4.66168 8.27713 4.69457V9.42657C8.36067 10.3815 8.13375 11.3379 7.63013 12.1536C7.43211 12.4264 7.16973 12.646 6.86634 12.7929C6.56294 12.9398 6.22793 13.0094 5.89113 12.9956C5.66202 13.012 5.43231 12.9733 5.22126 12.8826C5.0102 12.792 4.82396 12.652 4.67813 12.4746C4.36542 12.0028 4.22421 11.438 4.27813 10.8746V4.65457C4.28266 4.62168 4.27949 4.58819 4.26885 4.55674C4.25821 4.52529 4.2404 4.49674 4.21683 4.47336C4.19326 4.44999 4.16457 4.43241 4.13303 4.42203C4.10149 4.41165 4.06798 4.40876 4.03513 4.41357H1.24313C1.21028 4.40876 1.17676 4.41165 1.14522 4.42203C1.11368 4.43241 1.08499 4.44999 1.06142 4.47336C1.03785 4.49674 1.02004 4.52529 1.0094 4.55674C0.998761 4.58819 0.995586 4.62168 1.00013 4.65457V11.8726C0.967278 12.4186 1.04328 12.9657 1.2237 13.4821C1.40413 13.9984 1.68538 14.4738 2.05113 14.8806C2.44631 15.2452 2.91154 15.5256 3.41851 15.7047C3.92548 15.8838 4.4636 15.958 5.00013 15.9226C5.64299 15.9378 6.28035 15.8007 6.86013 15.5226C7.41395 15.2654 7.89966 14.8818 8.27813 14.4026V15.4856C8.27359 15.5185 8.27676 15.552 8.2874 15.5834C8.29804 15.6148 8.31585 15.6434 8.33942 15.6668C8.36299 15.6902 8.39168 15.7077 8.42322 15.7181C8.45476 15.7285 8.48828 15.7314 8.52113 15.7266H11.4321C11.465 15.7314 11.4985 15.7285 11.53 15.7181C11.5616 15.7077 11.5903 15.6902 11.6138 15.6668C11.6374 15.6434 11.6552 15.6148 11.6659 15.5834C11.6765 15.552 11.6797 15.5185 11.6751 15.4856V4.65457C11.6741 4.53357 11.5931 4.45357 11.4311 4.45357ZM18.1001 3.29057H20.7281C20.8049 3.28632 20.88 3.26639 20.9488 3.23199C21.0176 3.19759 21.0787 3.14946 21.1281 3.09057L23.4801 0.243568C23.5119 0.196634 23.5261 0.139952 23.5201 0.0835679C23.5009 0.0590155 23.4765 0.0390184 23.4487 0.0250133C23.4209 0.0110082 23.3903 0.00334279 23.3591 0.00256793H19.8811C19.8101 0.00829705 19.7421 0.0339491 19.6849 0.0765786C19.6278 0.119208 19.5839 0.177087 19.5581 0.243568L17.9811 3.05057C17.9617 3.07267 17.9509 3.10111 17.9509 3.13057C17.9509 3.16002 17.9617 3.18847 17.9811 3.21057C17.9811 3.25057 18.0221 3.29057 18.1001 3.29057ZM22.8301 5.09057C21.8414 4.50266 20.7048 4.21046 19.5551 4.24857C18.4942 4.22397 17.4464 4.4873 16.5231 5.01057C15.6546 5.5123 14.9311 6.23068 14.4231 7.09557C13.9275 8.01958 13.6768 9.05517 13.6951 10.1036C13.6721 11.1652 13.9228 12.2149 14.4231 13.1516C14.905 14.0235 15.6186 14.7451 16.4851 15.2366C17.4189 15.7286 18.4618 15.9769 19.5171 15.9586C20.7683 16.0109 22.0068 15.6899 23.0751 15.0366C24.0548 14.3555 24.7802 13.3681 25.1371 12.2296C25.1702 12.1538 25.1839 12.071 25.1771 11.9886C25.1771 11.8686 25.1371 11.8286 25.0151 11.8286H22.1461C22.0651 11.8286 22.0251 11.8286 21.9841 11.8686L21.8221 12.0286C21.6072 12.3891 21.2807 12.6699 20.8921 12.8286C20.4556 13.0039 19.9872 13.086 19.5171 13.0696C18.9285 13.081 18.3552 12.8821 17.9001 12.5086C17.452 12.1286 17.1516 11.6034 17.0511 11.0246H25.2591C25.292 11.0294 25.3255 11.0265 25.357 11.0161C25.3886 11.0057 25.4173 10.9882 25.4408 10.9648C25.4644 10.9414 25.4822 10.9128 25.4929 10.8814C25.5035 10.85 25.5067 10.8165 25.5021 10.7836V10.3836C25.508 9.31783 25.2728 8.26456 24.8141 7.30257C24.382 6.3902 23.6937 5.62334 22.8331 5.09557L22.8301 5.09057ZM17.0921 8.70257C17.2583 8.1979 17.5849 7.76139 18.0221 7.45957C18.4771 7.15914 19.0131 7.00524 19.5581 7.01857C20.1167 6.99957 20.6675 7.15359 21.1351 7.45957C21.569 7.75589 21.8839 8.19623 22.0241 8.70257H17.0921ZM36.5801 4.93457C35.8051 4.44938 34.9064 4.19864 33.9921 4.21257C33.4109 4.21802 32.8353 4.32671 32.2921 4.53357C31.7579 4.76823 31.2767 5.10837 30.8771 5.53357V0.243568C30.9171 0.0835679 30.8371 0.00256793 30.6771 0.00256793H27.7661C27.7333 -0.00224295 27.6998 0.000655364 27.6682 0.0110336C27.6367 0.0214119 27.608 0.0389855 27.5844 0.0623644C27.5608 0.0857434 27.543 0.114286 27.5324 0.145736C27.5218 0.177186 27.5186 0.210679 27.5231 0.243568V15.5216C27.5186 15.5545 27.5218 15.588 27.5324 15.6194C27.543 15.6508 27.5608 15.6794 27.5844 15.7028C27.608 15.7262 27.6367 15.7437 27.6682 15.7541C27.6998 15.7645 27.7333 15.7674 27.7661 15.7626H30.6771C30.71 15.7674 30.7435 15.7645 30.775 15.7541C30.8066 15.7437 30.8353 15.7262 30.8588 15.7028C30.8824 15.6794 30.9002 15.6508 30.9109 15.6194C30.9215 15.588 30.9247 15.5545 30.9201 15.5216V14.5596C31.3139 14.9846 31.7789 15.3376 32.2941 15.6026C32.8251 15.8576 33.4052 15.9941 33.9941 16.0026C34.9084 16.0165 35.8071 15.7658 36.5821 15.2806C37.3549 14.7789 37.9713 14.0703 38.3611 13.2356C38.8155 12.2711 39.0371 11.2134 39.0081 10.1476C39.0371 9.08178 38.8155 8.02407 38.3611 7.05957C38.0083 6.18001 37.3845 5.43569 36.5801 4.93457ZM34.9221 12.1926C34.7076 12.4441 34.4411 12.646 34.1409 12.7845C33.8408 12.923 33.5142 12.9947 33.1836 12.9947C32.8531 12.9947 32.5265 12.923 32.2263 12.7845C31.9262 12.646 31.6596 12.4441 31.4451 12.1926C30.9992 11.5911 30.771 10.8558 30.7981 10.1076C30.7513 9.3568 30.9815 8.61496 31.4451 8.02257C31.6519 7.76218 31.9171 7.5541 32.2192 7.41512C32.5213 7.27615 32.8518 7.21019 33.1841 7.22257C33.5158 7.21445 33.845 7.28231 34.1464 7.42098C34.4478 7.55964 34.7135 7.76542 34.9231 8.02257C35.3691 8.62404 35.5972 9.35929 35.5701 10.1076C35.5652 10.8514 35.3397 11.577 34.9221 12.1926ZM51.8631 6.97957C51.4862 6.13649 50.8669 5.42463 50.0841 4.93457C49.3102 4.45047 48.4129 4.20011 47.5001 4.21357C46.9189 4.21902 46.3433 4.32771 45.8001 4.53457C45.2659 4.76923 44.7847 5.10937 44.3851 5.53457V0.243568C44.3897 0.210487 44.3866 0.176785 44.3758 0.145159C44.3651 0.113534 44.3471 0.0848619 44.3232 0.0614389C44.2994 0.0380159 44.2705 0.0204918 44.2387 0.0102692C44.2069 4.65149e-05 44.1731 -0.00259092 44.1401 0.00256793H41.2291C41.1081 0.00256793 41.0291 0.0825679 41.0291 0.243568V15.5216C41.0246 15.5545 41.0278 15.588 41.0384 15.6194C41.049 15.6508 41.0668 15.6794 41.0904 15.7028C41.114 15.7262 41.1427 15.7437 41.1742 15.7541C41.2058 15.7645 41.2393 15.7674 41.2721 15.7626H44.1831C44.216 15.7674 44.2495 15.7645 44.281 15.7541C44.3126 15.7437 44.3413 15.7262 44.3648 15.7028C44.3884 15.6794 44.4062 15.6508 44.4169 15.6194C44.4275 15.588 44.4307 15.5545 44.4261 15.5216V14.5596C44.8199 14.9846 45.2849 15.3376 45.8001 15.6026C46.3311 15.8576 46.9112 15.9941 47.5001 16.0026C48.4144 16.0165 49.3131 15.7658 50.0881 15.2806C50.8609 14.7789 51.4773 14.0703 51.8671 13.2356C52.3215 12.2711 52.5431 11.2134 52.5141 10.1476C52.5216 9.05761 52.2998 7.97825 51.8631 6.97957ZM48.3861 12.1926C48.1716 12.4441 47.9051 12.646 47.6049 12.7845C47.3048 12.923 46.9782 12.9947 46.6476 12.9947C46.3171 12.9947 45.9905 12.923 45.6903 12.7845C45.3902 12.646 45.1236 12.4441 44.9091 12.1926C44.4632 11.5911 44.235 10.8558 44.2621 10.1076C44.2153 9.3568 44.4455 8.61496 44.9091 8.02257C45.1159 7.76218 45.3811 7.5541 45.6832 7.41512C45.9853 7.27615 46.3158 7.21019 46.6481 7.22257C46.9798 7.21445 47.309 7.28231 47.6104 7.42098C47.9118 7.55964 48.1775 7.76542 48.3871 8.02257C48.8331 8.62404 49.0612 9.35929 49.0341 10.1076C49.0485 10.8542 48.8212 11.5856 48.3861 12.1926Z" fill="#636873"/>
<path d="M59.6261 12.6347C59.2387 12.376 58.9307 12.015 58.7361 11.5917C58.5228 11.1119 58.4126 10.5927 58.4126 10.0677C58.4126 9.54265 58.5228 9.02345 58.7361 8.54369C58.9307 8.12042 59.2387 7.75938 59.6261 7.50069C60.025 7.25028 60.4895 7.12459 60.9601 7.13969C61.3069 7.14 61.6504 7.20793 61.9711 7.33969C62.2908 7.46413 62.5803 7.6554 62.8201 7.90069V5.13569C62.818 5.11934 62.8196 5.1027 62.825 5.08708C62.8303 5.07147 62.8392 5.05729 62.8509 5.04567C62.8626 5.03405 62.8768 5.0253 62.8925 5.0201C62.9082 5.0149 62.9248 5.01339 62.9411 5.01569H63.5882C63.6045 5.01339 63.6211 5.0149 63.6368 5.0201C63.6525 5.0253 63.6667 5.03405 63.6784 5.04567C63.6901 5.05729 63.699 5.07147 63.7043 5.08708C63.7097 5.1027 63.7113 5.11934 63.7092 5.13569V12.7947C63.7113 12.8111 63.7097 12.8277 63.7043 12.8433C63.699 12.8589 63.6901 12.8731 63.6784 12.8847C63.6667 12.8963 63.6525 12.9051 63.6368 12.9103C63.6211 12.9155 63.6045 12.917 63.5882 12.9147H62.9411C62.9248 12.917 62.9082 12.9155 62.8925 12.9103C62.8768 12.9051 62.8626 12.8963 62.8509 12.8847C62.8392 12.8731 62.8303 12.8589 62.825 12.8433C62.8196 12.8277 62.818 12.8111 62.8201 12.7947V12.2737C62.5919 12.5143 62.3165 12.7053 62.0112 12.8347C61.6753 12.9626 61.3195 13.0303 60.9601 13.0347C60.4885 13.0181 60.0291 12.8803 59.6261 12.6347ZM62.4131 11.5917C62.7519 11.1581 62.924 10.6174 62.8981 10.0677C62.9238 9.51837 62.7517 8.97806 62.4131 8.54469C62.2495 8.35907 62.0489 8.2097 61.8241 8.10615C61.5993 8.00261 61.3554 7.94717 61.108 7.94341C60.8606 7.93964 60.6151 7.98763 60.3873 8.08428C60.1595 8.18094 59.9544 8.32414 59.7851 8.50469C59.4771 8.95176 59.321 9.4861 59.3401 10.0287C59.3148 10.5721 59.4714 11.1083 59.7851 11.5527C59.9363 11.7474 60.1341 11.9009 60.3603 11.9989C60.5865 12.097 60.8337 12.1364 61.0791 12.1137C61.3279 12.1539 61.5828 12.1267 61.8174 12.0349C62.0521 11.9431 62.2578 11.79 62.4131 11.5917Z" fill="#636873"/>
<path d="M66.458 6.09869V5.13569C66.4558 5.11934 66.4574 5.1027 66.4628 5.08708C66.4681 5.07147 66.477 5.05729 66.4887 5.04567C66.5004 5.03405 66.5147 5.0253 66.5303 5.0201C66.546 5.0149 66.5626 5.01339 66.579 5.01569H67.549C67.5653 5.01339 67.582 5.0149 67.5976 5.0201C67.6133 5.0253 67.6275 5.03405 67.6392 5.04567C67.6509 5.05729 67.6598 5.07147 67.6652 5.08708C67.6705 5.1027 67.6721 5.11934 67.67 5.13569V6.09769C67.6721 6.11405 67.6705 6.13069 67.6652 6.14631C67.6598 6.16192 67.6509 6.1761 67.6392 6.18771C67.6275 6.19933 67.6133 6.20809 67.5976 6.21329C67.582 6.21849 67.5653 6.22 67.549 6.21769H66.579C66.5627 6.21996 66.5462 6.21847 66.5306 6.21332C66.515 6.20817 66.5008 6.19951 66.4891 6.18801C66.4774 6.17651 66.4685 6.16247 66.4631 6.14698C66.4577 6.1315 66.456 6.11498 66.458 6.09869ZM66.62 12.7987V7.38169C66.6178 7.36534 66.6194 7.3487 66.6248 7.33308C66.6301 7.31747 66.639 7.30329 66.6507 7.29167C66.6624 7.28006 66.6767 7.2713 66.6923 7.2661C66.708 7.2609 66.7246 7.25939 66.741 7.26169H67.388C67.4043 7.25939 67.4209 7.2609 67.4366 7.2661C67.4523 7.2713 67.4665 7.28006 67.4782 7.29167C67.49 7.30329 67.4988 7.31747 67.5041 7.33308C67.5095 7.3487 67.5111 7.36534 67.509 7.38169V12.7957C67.5111 12.8121 67.5095 12.8287 67.5041 12.8443C67.4988 12.8599 67.49 12.8741 67.4782 12.8857C67.4665 12.8973 67.4523 12.9061 67.4366 12.9113C67.4209 12.9165 67.4043 12.918 67.388 12.9157H66.741C66.7245 12.918 66.7078 12.9165 66.692 12.9113C66.6763 12.906 66.662 12.8972 66.6502 12.8854C66.6385 12.8737 66.6297 12.8594 66.6244 12.8436C66.6191 12.8279 66.6176 12.8111 66.62 12.7947V12.7987Z" fill="#636873"/>
<path d="M71.1893 14.7596C70.9644 14.6116 70.78 14.4098 70.6528 14.1725C70.5257 13.9352 70.4599 13.6698 70.4613 13.4006C70.4592 13.3842 70.4608 13.3676 70.4662 13.352C70.4715 13.3364 70.4804 13.3222 70.4921 13.3106C70.5038 13.299 70.518 13.2902 70.5337 13.285C70.5494 13.2798 70.566 13.2783 70.5824 13.2806H71.2294C71.2694 13.2806 71.3103 13.2806 71.3103 13.3206C71.3321 13.3422 71.3461 13.3703 71.3504 13.4006C71.4227 13.7015 71.5934 13.9697 71.8354 14.1626C72.169 14.3451 72.5478 14.4287 72.9274 14.4036C73.147 14.422 73.3679 14.388 73.5718 14.3044C73.7757 14.2208 73.9569 14.0899 74.1004 13.9226C74.3755 13.5375 74.516 13.0726 74.5004 12.5996V12.1996C74.2598 12.4148 73.9868 12.5906 73.6914 12.7206C73.3821 12.8385 73.0522 12.8929 72.7214 12.8806C72.2646 12.8848 71.816 12.7596 71.4274 12.5196C71.0303 12.2794 70.7082 11.933 70.4974 11.5196C70.2588 11.0484 70.1474 10.5231 70.1743 9.99559C70.1717 9.47033 70.2818 8.95062 70.4974 8.47159C70.6929 8.06072 71.0012 7.71391 71.3864 7.47159C71.7852 7.22118 72.2497 7.09549 72.7204 7.11059C73.0797 7.115 73.4355 7.18271 73.7713 7.31059C74.0621 7.42648 74.3242 7.60426 74.5394 7.83159V7.30059C74.5372 7.28424 74.5388 7.2676 74.5442 7.25198C74.5495 7.23636 74.5584 7.22219 74.5701 7.21057C74.5818 7.19895 74.596 7.1902 74.6117 7.185C74.6274 7.1798 74.644 7.17829 74.6604 7.18059H75.3074C75.3237 7.17829 75.3403 7.1798 75.356 7.185C75.3717 7.1902 75.3859 7.19895 75.3976 7.21057C75.4093 7.22219 75.4182 7.23636 75.4235 7.25198C75.4289 7.2676 75.4305 7.28424 75.4284 7.30059V12.5136C75.4766 13.221 75.2606 13.9212 74.8224 14.4786C74.5906 14.7226 74.3064 14.9108 73.9913 15.0289C73.6762 15.1471 73.3384 15.1921 73.0034 15.1606C72.3697 15.2625 71.721 15.1191 71.1893 14.7596ZM74.0603 11.4716C74.3989 11.0534 74.5716 10.5251 74.5453 9.98759C74.5716 9.45013 74.3989 8.92184 74.0603 8.50359C73.9005 8.31904 73.7013 8.1728 73.4773 8.07569C73.2533 7.97858 73.0103 7.9331 72.7664 7.94259C72.5219 7.92886 72.2776 7.97243 72.0529 8.06983C71.8282 8.16723 71.6294 8.31577 71.4724 8.50359C71.141 8.92384 70.9819 9.45437 71.0274 9.98759C71.0014 10.5186 71.1585 11.0425 71.4724 11.4716C71.6294 11.6594 71.8282 11.808 72.0529 11.9054C72.2776 12.0028 72.5219 12.0463 72.7664 12.0326C73.0112 12.051 73.2569 12.0096 73.4822 11.9119C73.7074 11.8141 73.9055 11.663 74.0594 11.4716H74.0603Z" fill="#636873"/>
<path d="M78.103 6.09869V5.13569C78.1008 5.11934 78.1025 5.1027 78.1078 5.08708C78.1131 5.07147 78.122 5.05729 78.1337 5.04567C78.1454 5.03405 78.1597 5.0253 78.1753 5.0201C78.191 5.0149 78.2076 5.01339 78.224 5.01569H79.194C79.2103 5.01339 79.227 5.0149 79.2426 5.0201C79.2583 5.0253 79.2725 5.03405 79.2843 5.04567C79.296 5.05729 79.3048 5.07147 79.3102 5.08708C79.3155 5.1027 79.3171 5.11934 79.315 5.13569V6.09769C79.3171 6.11405 79.3155 6.13069 79.3102 6.14631C79.3048 6.16192 79.296 6.1761 79.2843 6.18771C79.2725 6.19933 79.2583 6.20809 79.2426 6.21329C79.227 6.21849 79.2103 6.22 79.194 6.21769H78.224C78.2077 6.21996 78.1912 6.21847 78.1756 6.21332C78.16 6.20817 78.1458 6.19951 78.1342 6.18801C78.1225 6.17651 78.1136 6.16247 78.1082 6.14698C78.1028 6.1315 78.101 6.11498 78.103 6.09869ZM78.265 12.7987V7.38169C78.2628 7.36534 78.2645 7.3487 78.2698 7.33308C78.2751 7.31747 78.284 7.30329 78.2957 7.29167C78.3074 7.28006 78.3217 7.2713 78.3373 7.2661C78.353 7.2609 78.3696 7.25939 78.386 7.26169H79.033C79.0493 7.25939 79.066 7.2609 79.0816 7.2661C79.0973 7.2713 79.1115 7.28006 79.1233 7.29167C79.135 7.30329 79.1438 7.31747 79.1492 7.33308C79.1545 7.3487 79.1562 7.36534 79.154 7.38169V12.7957C79.1562 12.8121 79.1545 12.8287 79.1492 12.8443C79.1438 12.8599 79.135 12.8741 79.1233 12.8857C79.1115 12.8973 79.0973 12.9061 79.0816 12.9113C79.066 12.9165 79.0493 12.918 79.033 12.9157H78.386C78.3695 12.918 78.3528 12.9165 78.337 12.9113C78.3213 12.906 78.307 12.8972 78.2953 12.8854C78.2835 12.8737 78.2747 12.8594 78.2694 12.8436C78.2642 12.8279 78.2626 12.8111 78.265 12.7947V12.7987Z" fill="#636873"/>
<path d="M82.9949 12.5546C82.6945 12.2115 82.5355 11.7673 82.5499 11.3116V8.10255H81.5389C81.5226 8.10485 81.5059 8.10334 81.4903 8.09814C81.4746 8.09294 81.4604 8.08419 81.4486 8.07257C81.4369 8.06095 81.4281 8.04678 81.4227 8.03116C81.4174 8.01555 81.4157 7.99891 81.4179 7.98255V7.38255C81.4157 7.36619 81.4174 7.34955 81.4227 7.33394C81.4281 7.31832 81.4369 7.30415 81.4486 7.29253C81.4604 7.28091 81.4746 7.27216 81.4903 7.26696C81.5059 7.26176 81.5226 7.26025 81.5389 7.26255H82.5499V5.66255C82.5478 5.64619 82.5494 5.62955 82.5547 5.61394C82.5601 5.59832 82.5689 5.58415 82.5807 5.57253C82.5924 5.56091 82.6066 5.55216 82.6223 5.54696C82.6379 5.54176 82.6546 5.54025 82.6709 5.54255H83.3179C83.3343 5.54025 83.3509 5.54176 83.3666 5.54696C83.3822 5.55216 83.3965 5.56091 83.4082 5.57253C83.4199 5.58415 83.4288 5.59832 83.4341 5.61394C83.4394 5.62955 83.4411 5.64619 83.4389 5.66255V7.26255H85.3389C85.3553 7.26025 85.3719 7.26176 85.3876 7.26696C85.4032 7.27216 85.4175 7.28091 85.4292 7.29253C85.4409 7.30415 85.4498 7.31832 85.4551 7.33394C85.4604 7.34955 85.4621 7.36619 85.4599 7.38255V7.98255C85.4621 7.99891 85.4604 8.01555 85.4551 8.03116C85.4498 8.04678 85.4409 8.06095 85.4292 8.07257C85.4175 8.08419 85.4032 8.09294 85.3876 8.09814C85.3719 8.10334 85.3553 8.10485 85.3389 8.10255H83.4389V11.2305C83.4389 11.8726 83.7219 12.1925 84.3289 12.1925C84.5185 12.2007 84.7084 12.1873 84.8949 12.1526L85.3799 12.0325C85.3959 12.0173 85.415 12.0059 85.4359 11.999C85.4569 11.992 85.4791 11.9899 85.5009 11.9926C85.5409 11.9926 85.5819 12.0325 85.5819 12.1125V12.7946C85.5819 12.8346 85.5419 12.8345 85.5009 12.8345C85.1117 12.9728 84.7009 13.0405 84.2879 13.0346C83.8117 13.0437 83.3498 12.8722 82.9949 12.5546Z" fill="#636873"/>
<path d="M88.6949 12.7947C88.3832 12.6785 88.115 12.4689 87.9269 12.1947C87.7312 11.913 87.6319 11.5755 87.6439 11.2327C87.6314 10.9645 87.6837 10.6973 87.7963 10.4536C87.9089 10.2099 88.0786 9.99696 88.2909 9.83268C88.7676 9.47798 89.3563 9.30719 89.9489 9.35168C90.496 9.36176 91.0396 9.44277 91.5659 9.59268V9.27168C91.5779 9.09459 91.5516 8.91699 91.4888 8.75098C91.426 8.58497 91.3281 8.43445 91.2019 8.30968C91.0642 8.18998 90.9035 8.09975 90.7296 8.04454C90.5557 7.98934 90.3724 7.97033 90.1909 7.98868C89.8901 7.98206 89.5943 8.06603 89.3419 8.22968C89.1055 8.37535 88.9324 8.60447 88.8569 8.87168C88.8169 8.95168 88.7759 8.99168 88.6949 8.99168H87.9269C87.906 8.9903 87.8864 8.98146 87.8715 8.96677C87.8566 8.95208 87.8475 8.93252 87.8459 8.91168V8.78068C87.9587 8.31542 88.2303 7.90411 88.6139 7.61768C89.0579 7.29421 89.6019 7.13801 90.1499 7.17668C90.5534 7.17112 90.9533 7.25335 91.3219 7.41768C91.6425 7.57659 91.92 7.81055 92.1309 8.09968C92.3325 8.40895 92.4316 8.77391 92.4139 9.14268V11.8697C92.4022 12.0576 92.4156 12.2463 92.4539 12.4307C92.4973 12.568 92.5515 12.7018 92.6159 12.8307C92.6159 12.8707 92.6559 12.8707 92.6559 12.9107C92.6559 12.9507 92.6159 12.9507 92.5749 12.9507H91.6859C91.6695 12.953 91.6529 12.9515 91.6372 12.9463C91.6216 12.9411 91.6073 12.9323 91.5956 12.9207C91.5839 12.9091 91.575 12.8949 91.5697 12.8793C91.5644 12.8637 91.5627 12.847 91.5649 12.8307V12.2307C91.3631 12.4918 91.0991 12.6981 90.7969 12.8307C90.4534 12.9813 90.0795 13.0498 89.7049 13.0307C89.3554 13.0235 89.0114 12.9431 88.6949 12.7947ZM90.9949 11.7117C91.1611 11.5438 91.2902 11.3428 91.3738 11.1217C91.4573 10.9007 91.4935 10.6646 91.4799 10.4287C90.9839 10.2675 90.4654 10.1862 89.9439 10.1877C89.5783 10.1721 89.2152 10.2554 88.8929 10.4287C88.7593 10.5029 88.6502 10.6146 88.5792 10.75C88.5081 10.8853 88.4781 11.0385 88.4929 11.1907C88.4907 11.3332 88.5183 11.4746 88.5739 11.6058C88.6295 11.737 88.7119 11.8552 88.8159 11.9527C89.0737 12.1406 89.3859 12.2393 89.7049 12.2337C90.187 12.2297 90.6498 12.0432 90.9999 11.7117H90.9949Z" fill="#636873"/>
<path d="M95.246 12.7947V5.13569C95.2439 5.11934 95.2455 5.1027 95.2509 5.08708C95.2562 5.07147 95.265 5.05729 95.2768 5.04567C95.2885 5.03405 95.3027 5.0253 95.3184 5.0201C95.334 5.0149 95.3507 5.01339 95.367 5.01569H96.014C96.0304 5.01339 96.047 5.0149 96.0627 5.0201C96.0784 5.0253 96.0926 5.03405 96.1043 5.04567C96.116 5.05729 96.1249 5.07147 96.1302 5.08708C96.1356 5.1027 96.1372 5.11934 96.135 5.13569V12.7947C96.1372 12.8111 96.1356 12.8277 96.1302 12.8433C96.1249 12.8589 96.116 12.8731 96.1043 12.8847C96.0926 12.8963 96.0784 12.9051 96.0627 12.9103C96.047 12.9155 96.0304 12.917 96.014 12.9147H95.367C95.3507 12.917 95.334 12.9155 95.3184 12.9103C95.3027 12.9051 95.2885 12.8963 95.2768 12.8847C95.265 12.8731 95.2562 12.8589 95.2509 12.8433C95.2455 12.8277 95.2439 12.8111 95.246 12.7947Z" fill="#636873"/>
</svg>
