<svg width="149" height="40" viewBox="0 0 149 40" fill="none" xmlns="http://www.w3.org/2000/svg">
<path fill-rule="evenodd" clip-rule="evenodd" d="M34.6224 18.9798L62.0926 0.309916C62.3977 0.107778 62.7554 0 63.1212 0C63.487 0 63.8447 0.107778 64.1498 0.309916L91.62 18.9798C91.693 19.0494 91.7436 19.1392 91.7655 19.2377C91.7874 19.3362 91.7796 19.439 91.743 19.533C91.7063 19.6271 91.6427 19.708 91.56 19.7657C91.4773 19.8233 91.3793 19.8551 91.2786 19.8568H34.9726C34.8711 19.8568 34.7719 19.8263 34.6879 19.7693C34.6039 19.7123 34.5388 19.6314 34.5012 19.5371C34.4635 19.4427 34.4549 19.3391 34.4765 19.2398C34.4981 19.1405 34.5489 19.0499 34.6224 18.9798Z" fill="#009E16"/>
<path fill-rule="evenodd" clip-rule="evenodd" d="M66.5658 15.84L89.3876 0.327006C89.6927 0.124868 90.0504 0.0170898 90.4162 0.0170898C90.782 0.0170898 91.1397 0.124868 91.4448 0.327006L114.258 15.84C114.349 15.9049 114.416 15.998 114.449 16.1049C114.482 16.2118 114.478 16.3266 114.439 16.4314C114.4 16.5363 114.328 16.6254 114.234 16.6849C114.139 16.7444 114.028 16.7711 113.916 16.7608H66.916C66.804 16.7735 66.691 16.7485 66.5947 16.6898C66.4985 16.6311 66.4245 16.5419 66.3843 16.4364C66.3442 16.3309 66.3403 16.2151 66.3731 16.1071C66.406 15.9991 66.4738 15.9051 66.5658 15.84Z" fill="#FFDB27"/>
<path fill-rule="evenodd" clip-rule="evenodd" d="M76.7643 8.90381L66.5658 15.8404C66.4748 15.9052 66.4078 15.9983 66.3749 16.1053C66.3421 16.2122 66.3454 16.3269 66.3843 16.4318C66.4232 16.5367 66.4955 16.6257 66.59 16.6853C66.6845 16.7448 66.796 16.7715 66.9072 16.7611H88.3196L76.7643 8.90381Z" fill="#FFC200"/>
<path d="M12.5708 24.3286H0.446465C0.328057 24.3286 0.214491 24.3757 0.130764 24.4596C0.0470376 24.5435 0 24.6572 0 24.7758V27.8627C0 27.9813 0.0470376 28.095 0.130764 28.1789C0.214491 28.2628 0.328057 28.3099 0.446465 28.3099H4.43831V39.2452C4.4383 39.3047 4.45012 39.3636 4.4731 39.4184C4.49609 39.4733 4.52976 39.523 4.57215 39.5646C4.61454 39.6063 4.66478 39.639 4.71997 39.661C4.77515 39.6829 4.83415 39.6937 4.89351 39.6925H8.10625C8.16562 39.6937 8.2246 39.6829 8.27978 39.661C8.33496 39.639 8.38522 39.6063 8.42761 39.5646C8.47 39.523 8.50368 39.4733 8.52666 39.4184C8.54964 39.3636 8.56147 39.3047 8.56146 39.2452V28.3099H12.5708C12.6892 28.3099 12.8028 28.2628 12.8865 28.1789C12.9702 28.095 13.0173 27.9813 13.0173 27.8627V24.7758C13.0173 24.6572 12.9702 24.5435 12.8865 24.4596C12.8028 24.3757 12.6892 24.3286 12.5708 24.3286Z" fill="#C7C9CD"/>
<path d="M23.6276 35.7293H18.13V33.8877H23.0585C23.1179 33.8878 23.1767 33.8759 23.2314 33.8529C23.2862 33.8299 23.3358 33.7961 23.3774 33.7537C23.4189 33.7112 23.4516 33.6609 23.4736 33.6056C23.4955 33.5503 23.5062 33.4912 23.505 33.4317V30.5992C23.505 30.4806 23.458 30.3669 23.3742 30.283C23.2905 30.1991 23.177 30.152 23.0585 30.152H18.13V28.2929H23.6101C23.7285 28.2929 23.842 28.2458 23.9257 28.1619C24.0095 28.078 24.0565 27.9643 24.0565 27.8457V24.8027C24.0565 24.6841 24.0095 24.5703 23.9257 24.4865C23.842 24.4026 23.7285 24.3555 23.6101 24.3555H17.0183C16.6239 24.3555 16.2335 24.4333 15.8692 24.5844C15.5049 24.7356 15.1739 24.9571 14.8951 25.2365C14.6163 25.5158 14.3951 25.8473 14.2442 26.2123C14.0933 26.5772 14.0156 26.9683 14.0156 27.3633V39.2721C14.0156 39.3907 14.0627 39.5045 14.1464 39.5883C14.2301 39.6722 14.3437 39.7193 14.4621 39.7193H23.6276C23.7468 39.7194 23.8613 39.6725 23.9464 39.5889C24.0315 39.5053 24.0805 39.3915 24.0828 39.2721V36.2116C24.0864 36.1496 24.0772 36.0874 24.056 36.029C24.0347 35.9706 24.0017 35.9172 23.9591 35.872C23.9165 35.8269 23.8651 35.7909 23.8081 35.7663C23.751 35.7418 23.6896 35.7292 23.6276 35.7293Z" fill="#C7C9CD"/>
<path d="M38.0711 24.3287H34.8496C34.7902 24.3275 34.7312 24.3382 34.676 24.3602C34.6208 24.3821 34.5706 24.4149 34.5282 24.4565C34.4858 24.4982 34.4521 24.5479 34.4292 24.6027C34.4062 24.6576 34.3943 24.7165 34.3944 24.7759V31.9843L29.816 24.5392C29.7747 24.4744 29.7177 24.4212 29.6504 24.3844C29.583 24.3476 29.5075 24.3284 29.4308 24.3287H25.5178C25.3993 24.3287 25.2858 24.3758 25.2021 24.4597C25.1183 24.5436 25.0713 24.6573 25.0713 24.7759V39.2453C25.0713 39.3639 25.1183 39.4777 25.2021 39.5616C25.2858 39.6455 25.3993 39.6926 25.5178 39.6926H28.7217C28.8401 39.6926 28.9537 39.6455 29.0374 39.5616C29.1211 39.4777 29.1682 39.3639 29.1682 39.2453V31.3091L34.2805 39.4821C34.3219 39.5469 34.3788 39.6001 34.4462 39.6369C34.5135 39.6737 34.589 39.6928 34.6657 39.6926H38.0711C38.1895 39.6926 38.303 39.6455 38.3867 39.5616C38.4705 39.4777 38.5175 39.3639 38.5175 39.2453V24.7759C38.5175 24.6573 38.4705 24.5436 38.3867 24.4597C38.303 24.3758 38.1895 24.3287 38.0711 24.3287Z" fill="#C7C9CD"/>
<path d="M45.1975 24.3286H42.51C41.7143 24.3309 40.9519 24.6486 40.3893 25.2122C39.8267 25.7757 39.5096 26.5395 39.5073 27.3365V39.2452C39.5073 39.3047 39.5191 39.3636 39.5421 39.4184C39.5651 39.4733 39.5988 39.523 39.6412 39.5646C39.6836 39.6063 39.7338 39.639 39.789 39.661C39.8442 39.6829 39.9032 39.6937 39.9625 39.6925H45.1712C49.8634 39.6925 52.901 36.6846 52.901 32.0193C52.901 27.354 49.8721 24.3286 45.1975 24.3286ZM43.6305 28.266H45.0311C47.2809 28.266 48.6203 29.6691 48.6203 32.0193C48.6203 35.3867 46.1079 35.7551 45.0311 35.7551H43.6305V28.266Z" fill="#C7C9CD"/>
<path d="M67.3358 39.088L62.6173 26.3725C62.3923 25.7732 61.9901 25.257 61.4646 24.8926C60.9391 24.5282 60.3151 24.333 59.676 24.333C59.0369 24.333 58.4129 24.5282 57.8874 24.8926C57.3618 25.257 56.9597 25.7732 56.7346 26.3725L51.9549 39.0968C51.9292 39.1641 51.9197 39.2365 51.9274 39.3081C51.935 39.3798 51.9594 39.4486 51.9987 39.509C52.0417 39.5687 52.0982 39.6173 52.1637 39.6509C52.2291 39.6844 52.3016 39.7019 52.3751 39.7019H55.7542C55.8476 39.7023 55.9388 39.6739 56.0156 39.6205C56.0923 39.5672 56.1508 39.4915 56.1831 39.4037L57.1111 36.7729H62.0571L62.985 39.4037C63.0173 39.4915 63.0759 39.5672 63.1526 39.6205C63.2293 39.6739 63.3206 39.7023 63.414 39.7019H66.9156C66.988 39.7023 67.0594 39.685 67.1237 39.6516C67.188 39.6182 67.2432 39.5696 67.2846 39.51C67.3259 39.4505 67.3522 39.3818 67.3611 39.3098C67.37 39.2378 67.3613 39.1647 67.3358 39.0968V39.088ZM60.7265 32.9495H58.4942L59.6235 29.7662L60.7265 32.9495Z" fill="#C7C9CD"/>
<path d="M74.6548 30.1868L72.7114 29.8185C71.6609 29.6256 71.6609 29.0819 71.6609 28.8802C71.6609 28.3365 72.2299 27.7753 73.1841 27.7753C73.6332 27.7141 74.0885 27.8298 74.4542 28.098C74.8199 28.3662 75.0675 28.7661 75.145 29.2134C75.1538 29.2763 75.1765 29.3364 75.2113 29.3895C75.2461 29.4426 75.2922 29.4873 75.3463 29.5204C75.3983 29.5558 75.4572 29.5796 75.5191 29.5902C75.5811 29.6008 75.6445 29.5979 75.7053 29.5817L78.6029 28.7662C78.7095 28.7336 78.8006 28.6629 78.8587 28.5675C78.9167 28.4722 78.9379 28.3587 78.918 28.2488C78.7429 27.2579 77.7975 24.022 73.2016 24.022C70.0501 24.022 67.5815 26.2582 67.5815 29.1257C67.5815 31.5022 69.2273 33.2999 71.8797 33.8086L73.8494 34.1769C74.2083 34.247 75.0312 34.4838 75.0312 35.1854C75.0312 35.8869 74.2171 36.2464 73.4467 36.2464C71.3195 36.2464 70.9606 34.7907 70.8993 34.1593C70.8938 34.0952 70.8745 34.033 70.8428 33.977C70.811 33.921 70.7676 33.8725 70.7154 33.8349C70.6066 33.7646 70.4748 33.7394 70.3478 33.7647L67.3977 34.4838C67.2912 34.5087 67.1973 34.5711 67.133 34.6597C67.0687 34.7482 67.0383 34.857 67.0475 34.9661C67.3014 37.4742 69.3673 39.9997 73.4029 39.9997C77.1672 39.9997 79.1981 37.3689 79.1981 34.9837C79.1981 32.5984 77.421 30.713 74.6548 30.1868Z" fill="#C7C9CD"/>
<path d="M91.7948 31.7036C92.2645 31.347 92.6444 30.8853 92.9043 30.3554C93.1642 29.8256 93.2969 29.2422 93.2918 28.6519C93.2918 26.0649 91.3046 24.3286 88.3457 24.3286H82.9445C82.8261 24.3286 82.7125 24.3757 82.6288 24.4596C82.5451 24.5435 82.498 24.6572 82.498 24.7758V39.2452C82.498 39.3639 82.5451 39.4776 82.6288 39.5615C82.7125 39.6454 82.8261 39.6925 82.9445 39.6925H88.801C91.7248 39.6925 93.7732 37.8246 93.7732 35.1412C93.7823 34.443 93.6034 33.7552 93.2552 33.1503C92.9071 32.5454 92.4026 32.0456 91.7948 31.7036ZM87.8293 30.1251H86.5337V27.8977H87.7942C88.7484 27.8977 89.2387 28.2748 89.2387 29.0027C89.2387 30.0111 88.2582 30.1251 87.8293 30.1251ZM86.5337 33.6329H88.1006C89.0636 33.6329 89.6414 34.0977 89.6414 34.8781C89.6414 35.9918 88.5646 36.1146 88.1006 36.1146H86.5337V33.6329Z" fill="#C7C9CD"/>
<path d="M106.082 39.0441L103.368 33.6246C104.189 33.2485 104.881 32.639 105.359 31.8719C105.837 31.1048 106.079 30.214 106.055 29.3101C106.075 28.6364 105.954 27.966 105.7 27.3417C105.447 26.7174 105.066 26.1529 104.583 25.6843C104.099 25.2156 103.523 24.853 102.892 24.6197C102.261 24.3864 101.588 24.2874 100.917 24.3291H95.1916C95.0732 24.3291 94.9596 24.3762 94.8759 24.4601C94.7922 24.544 94.7451 24.6577 94.7451 24.7764V39.2458C94.7451 39.3644 94.7922 39.4781 94.8759 39.562C94.9596 39.6459 95.0732 39.693 95.1916 39.693H98.4306C98.549 39.693 98.6625 39.6459 98.7463 39.562C98.83 39.4781 98.877 39.3644 98.877 39.2458V34.3086H99.306L101.766 39.4387C101.804 39.5155 101.862 39.5801 101.935 39.6251C102.008 39.6701 102.092 39.6936 102.177 39.693H105.679C105.756 39.6941 105.832 39.6753 105.899 39.6384C105.967 39.6016 106.023 39.5479 106.064 39.4825C106.105 39.4174 106.128 39.3426 106.132 39.2657C106.135 39.1887 106.117 39.1123 106.082 39.0441ZM98.8595 28.021H100.304C101.031 28.021 101.888 28.249 101.888 29.3276C101.888 30.152 101.311 30.6343 100.304 30.6343H98.8595V28.021Z" fill="#C7C9CD"/>
<path d="M127.853 30.1868L125.91 29.8185C124.859 29.6256 124.859 29.0819 124.859 28.8802C124.859 28.3365 125.428 27.7753 126.382 27.7753C126.831 27.7141 127.287 27.8298 127.652 28.098C128.018 28.3662 128.266 28.7661 128.343 29.2134C128.352 29.2763 128.375 29.3364 128.41 29.3895C128.444 29.4426 128.49 29.4873 128.545 29.5204C128.596 29.5558 128.655 29.5796 128.717 29.5902C128.779 29.6008 128.843 29.5979 128.903 29.5817L131.801 28.7662C131.908 28.7336 131.999 28.6629 132.057 28.5675C132.115 28.4722 132.136 28.3587 132.116 28.2488C131.941 27.2579 130.996 24.022 126.4 24.022C123.248 24.022 120.78 26.2582 120.78 29.1257C120.78 31.5022 122.425 33.2999 125.078 33.8086L127.048 34.1769C127.407 34.247 128.229 34.4838 128.229 35.1854C128.229 35.8869 127.415 36.2464 126.645 36.2464C124.518 36.2464 124.159 34.7907 124.098 34.1593C124.092 34.0952 124.073 34.033 124.041 33.977C124.009 33.921 123.966 33.8725 123.914 33.8349C123.805 33.7646 123.673 33.7394 123.546 33.7647L120.596 34.4838C120.489 34.5087 120.395 34.5711 120.331 34.6597C120.267 34.7482 120.237 34.857 120.246 34.9661C120.5 37.4742 122.566 39.9997 126.601 39.9997C130.365 39.9997 132.396 37.3689 132.396 34.9837C132.396 32.5984 130.654 30.713 127.853 30.1868Z" fill="#C7C9CD"/>
<path d="M137.097 24.3203H133.832C133.586 24.3203 133.386 24.5205 133.386 24.7675V39.2457C133.386 39.4927 133.586 39.693 133.832 39.693H137.097C137.344 39.693 137.544 39.4927 137.544 39.2457V24.7675C137.544 24.5205 137.344 24.3203 137.097 24.3203Z" fill="#C7C9CD"/>
<path d="M148.434 35.7113H142.656V24.7759C142.656 24.7165 142.644 24.6576 142.621 24.6027C142.598 24.5479 142.564 24.4982 142.522 24.4565C142.48 24.4149 142.429 24.3821 142.374 24.3602C142.319 24.3382 142.26 24.3275 142.201 24.3287H138.988C138.929 24.3275 138.87 24.3382 138.814 24.3602C138.759 24.3821 138.709 24.4149 138.667 24.4565C138.624 24.4982 138.591 24.5479 138.568 24.6027C138.545 24.6576 138.533 24.7165 138.533 24.7759V36.6847C138.533 37.0804 138.611 37.4723 138.762 37.8378C138.914 38.2033 139.136 38.5353 139.415 38.8147C139.695 39.0941 140.027 39.3155 140.392 39.4661C140.758 39.6168 141.149 39.6937 141.544 39.6926H148.434C148.493 39.6937 148.552 39.683 148.607 39.6611C148.662 39.6391 148.713 39.6064 148.755 39.5647C148.797 39.5231 148.831 39.4734 148.854 39.4185C148.877 39.3637 148.889 39.3048 148.889 39.2453V36.1585C148.889 36.0991 148.877 36.0402 148.854 35.9853C148.831 35.9305 148.797 35.8808 148.755 35.8392C148.713 35.7975 148.662 35.7647 148.607 35.7428C148.552 35.7208 148.493 35.7101 148.434 35.7113Z" fill="#C7C9CD"/>
<path d="M120.552 39.0877L115.825 26.3721C115.602 25.772 115.201 25.2546 114.676 24.8893C114.151 24.5239 113.527 24.3281 112.888 24.3281C112.249 24.3281 111.625 24.5239 111.1 24.8893C110.575 25.2546 110.174 25.772 109.951 26.3721L105.163 39.0964C105.137 39.165 105.128 39.2389 105.137 39.3116C105.147 39.3843 105.174 39.4536 105.216 39.5134C105.259 39.5732 105.315 39.6216 105.38 39.6544C105.446 39.6872 105.518 39.7034 105.592 39.7015H108.936C109.028 39.7027 109.119 39.6745 109.194 39.6209C109.27 39.5673 109.326 39.4912 109.356 39.4034L110.292 36.7726H115.238L116.166 39.4034C116.198 39.4919 116.256 39.5683 116.333 39.6218C116.41 39.6753 116.502 39.7032 116.595 39.7015H120.097C120.169 39.7019 120.241 39.6847 120.305 39.6512C120.369 39.6178 120.425 39.5693 120.466 39.5097C120.507 39.4501 120.534 39.3814 120.543 39.3094C120.551 39.2374 120.543 39.1643 120.517 39.0964L120.552 39.0877ZM113.934 32.9491H111.702L112.831 29.7659L113.934 32.9491Z" fill="#C7C9CD"/>
<path d="M119.528 11.6395C120.035 11.6308 120.533 11.7736 120.959 12.0496C121.385 12.3256 121.72 12.7224 121.92 13.1895C122.12 13.6566 122.177 14.1727 122.084 14.6723C121.99 15.1719 121.75 15.6322 121.394 15.9948C121.039 16.3573 120.583 16.6055 120.086 16.7079C119.589 16.8104 119.073 16.7623 118.604 16.5698C118.134 16.3774 117.732 16.0492 117.449 15.6272C117.166 15.2053 117.015 14.7085 117.015 14.2002C117.013 13.5279 117.275 12.8818 117.746 12.4024C118.216 11.9229 118.857 11.6488 119.528 11.6395ZM119.528 16.2522C119.935 16.2662 120.338 16.1578 120.684 15.941C121.03 15.7242 121.303 15.4088 121.469 15.0353C121.635 14.6618 121.686 14.2472 121.615 13.8446C121.544 13.442 121.355 13.0699 121.071 12.7758C120.788 12.4818 120.423 12.2793 120.024 12.1942C119.625 12.1092 119.209 12.1455 118.831 12.2986C118.452 12.4516 118.128 12.7144 117.9 13.0532C117.671 13.392 117.549 13.7914 117.549 14.2002C117.541 14.466 117.586 14.7307 117.682 14.9788C117.777 15.2269 117.922 15.4532 118.106 15.6445C118.29 15.8358 118.511 15.9881 118.755 16.0925C119 16.1968 119.262 16.2512 119.528 16.2522ZM119.212 15.5682H118.687V12.7795H119.65C119.77 12.7711 119.891 12.7875 120.004 12.8278C120.117 12.8681 120.221 12.9314 120.309 13.0136C120.397 13.0959 120.467 13.1955 120.515 13.3061C120.563 13.4167 120.587 13.536 120.587 13.6565C120.584 13.841 120.524 14.02 120.414 14.168C120.304 14.316 120.15 14.4255 119.974 14.4808L120.604 15.5682H120L119.423 14.5246H119.212V15.5682ZM119.571 14.0686C119.878 14.0686 120.053 13.9196 120.053 13.6653C120.053 13.4109 119.878 13.2443 119.571 13.2443H119.212V14.0686H119.571Z" fill="#C7C9CD"/>
</svg>
